<svg width="20" height="20" viewBox="0 0 20 20" fill="none" xmlns="http://www.w3.org/2000/svg">
<path d="M19.6825 1.31265L11.4325 19.3127C11.3637 19.4639 11.2466 19.588 11.0997 19.6655C10.9527 19.743 10.7841 19.7695 10.6205 19.7408C10.4568 19.7121 10.3073 19.6299 10.1954 19.5071C10.0835 19.3843 10.0156 19.2278 10.0023 19.0622L9.30477 10.6944L0.937773 9.9969C0.77243 9.9833 0.616263 9.91526 0.493717 9.80343C0.37117 9.6916 0.289161 9.5423 0.260525 9.37888C0.23189 9.21547 0.258244 9.04718 0.335463 8.90034C0.412682 8.75351 0.536407 8.63642 0.687273 8.5674L18.6873 0.317404C18.8265 0.253515 18.9819 0.233766 19.1326 0.260812C19.2833 0.287858 19.4222 0.360403 19.5305 0.468694C19.6388 0.576985 19.7113 0.715833 19.7384 0.866573C19.7654 1.01731 19.7457 1.17272 19.6818 1.3119L19.6825 1.31265Z" fill="white"/>
</svg>
