<svg width="138" height="138" viewBox="0 0 138 138" fill="none" xmlns="http://www.w3.org/2000/svg">
<g filter="url(#filter0_d_9_57)">
<path d="M101.537 64.8601C97.0952 82.719 78.9643 93.5975 61.1055 89.1554C43.2466 84.7134 32.3681 66.5826 36.8101 48.7237C41.2522 30.8648 59.383 19.9863 77.2419 24.4284C95.1008 28.8704 105.979 47.0012 101.537 64.8601Z" fill="#F7931A"/>
<path d="M83.9503 52.0777C84.5849 47.6357 81.2307 45.2787 76.6073 43.6469L78.1484 37.6637L74.5223 36.7572L72.9812 42.559C71.984 42.2871 70.9868 42.1058 70.0802 41.8338L71.5307 35.9413L67.9045 35.0347L66.3634 41.0179C65.5475 40.8366 64.8223 40.6553 64.0064 40.474L58.9298 39.2048L57.9326 43.103C57.9326 43.103 60.6522 43.7375 60.5615 43.7375C62.012 44.1001 62.284 45.0973 62.284 45.8226L60.5615 52.7123L58.2045 62.4123C58.0232 62.8656 57.5699 63.5001 56.4821 63.3188C56.4821 63.4095 53.8531 62.6843 53.8531 62.6843L52.04 66.8543L56.8447 68.0329C57.7513 68.2142 58.5671 68.4861 59.4737 68.6674L57.9326 74.7413L61.5587 75.6478L63.0998 69.6646C64.097 69.9366 65.0942 70.2086 66.0008 70.3899L64.5503 76.373L68.1765 77.2796L69.7176 71.2057C75.9727 72.3843 80.6868 71.931 82.5905 66.2198C84.2223 61.6871 82.4998 59.0581 79.2363 57.3357C81.5933 56.8824 83.4064 55.3413 83.9503 52.0777ZM75.5195 63.7721C74.4316 68.3048 66.726 65.8572 64.2784 65.2226L66.2727 57.1544C68.7204 57.7889 76.698 59.0581 75.5195 63.7721ZM76.698 51.9871C75.7008 56.1572 69.2643 53.9815 67.1793 53.5282L68.9924 46.1852C71.0774 46.7291 77.7858 47.6357 76.698 51.9871Z" fill="white"/>
</g>
<defs>
<filter id="filter0_d_9_57" x="0.817139" y="0.435364" width="136.713" height="136.713" filterUnits="userSpaceOnUse" color-interpolation-filters="sRGB">
<feFlood flood-opacity="0" result="BackgroundImageFix"/>
<feColorMatrix in="SourceAlpha" type="matrix" values="0 0 0 0 0 0 0 0 0 0 0 0 0 0 0 0 0 0 127 0" result="hardAlpha"/>
<feOffset dy="12"/>
<feGaussianBlur stdDeviation="17.5"/>
<feComposite in2="hardAlpha" operator="out"/>
<feColorMatrix type="matrix" values="0 0 0 0 0.968627 0 0 0 0 0.576471 0 0 0 0 0.101961 0 0 0 0.78 0"/>
<feBlend mode="normal" in2="BackgroundImageFix" result="effect1_dropShadow_9_57"/>
<feBlend mode="normal" in="SourceGraphic" in2="effect1_dropShadow_9_57" result="shape"/>
</filter>
</defs>
</svg>
