<svg width="60" height="61" viewBox="0 0 60 61" fill="none" xmlns="http://www.w3.org/2000/svg">
<path d="M35.3807 47.7041H41.9224L41.9151 47.6958H45.7871L45.7881 36.1443H48.1957V34.2751C48.1957 32.3231 46.6134 30.7397 44.6614 30.7397H19.4282C17.4762 30.7397 15.8939 32.3231 15.8939 34.2751V44.1687C15.8939 46.1218 17.4762 47.7041 19.4282 47.7041H26.2722H35.3807Z" fill="#EAF0F0"/>
<path d="M25.6016 37.237C25.6016 38.1338 24.8747 38.8608 23.9779 38.8608C23.5331 38.8608 21.9281 38.8679 21.9281 38.8679C21.9281 38.8679 21.9281 37.689 21.9281 37.237C21.9281 36.8658 21.9281 35.6133 21.9281 35.6133C21.9281 35.6133 23.4524 35.6133 23.9779 35.6133C24.8747 35.6133 25.6016 36.3402 25.6016 37.237Z" stroke="black" stroke-width="2" stroke-miterlimit="10" stroke-linecap="round" stroke-linejoin="round"/>
<path d="M26.2354 40.762C26.2354 41.811 25.385 42.6614 24.336 42.6614C23.8157 42.6614 21.9283 42.6697 21.9283 42.6697C21.9283 42.6697 21.9283 41.2907 21.9283 40.762C21.9283 40.3276 21.9283 38.8625 21.9283 38.8625C21.9283 38.8625 23.7213 38.8625 24.336 38.8625C25.385 38.8625 26.2354 39.7129 26.2354 40.762Z" stroke="black" stroke-width="2" stroke-miterlimit="10" stroke-linecap="round" stroke-linejoin="round"/>
<path d="M37.8692 35.7742L40.1232 39.2262L42.3588 35.7921" stroke="black" stroke-width="2" stroke-miterlimit="10" stroke-linecap="round" stroke-linejoin="round"/>
<path d="M40.1144 42.6698L40.1232 38.6018" stroke="black" stroke-width="2" stroke-miterlimit="10" stroke-linecap="round" stroke-linejoin="round"/>
<path d="M29.6641 35.7742V40.6298C29.6641 41.4566 30.0742 42.0134 30.7711 42.4586C31.1104 42.6755 31.539 42.8299 32.0717 42.8306C32.5331 42.8312 32.9186 42.7245 33.2374 42.5639C34.0495 42.1549 34.5673 41.5339 34.5673 40.6247V35.7742" stroke="black" stroke-width="2" stroke-miterlimit="10" stroke-linecap="round" stroke-linejoin="round"/>
<path d="M47.3931 17.3108V27.2054C47.3931 29.1574 45.8098 30.7398 43.8578 30.7398H16.5545C14.6014 30.7398 13.0191 29.1574 13.0191 27.2054V25.3269H15.2486V13.7754H43.8578C45.8098 13.7754 47.3931 15.3587 47.3931 17.3108Z" fill="#EAF0F0"/>
<path d="M33.3148 18.6206V25.4997C33.3909 25.5127 35.7257 25.4997 35.7257 25.4997" stroke="black" stroke-width="2" stroke-miterlimit="10" stroke-linecap="round" stroke-linejoin="round"/>
<path d="M39.1908 18.6206V25.4997C39.2669 25.5127 41.6016 25.4997 41.6016 25.4997" stroke="black" stroke-width="2" stroke-miterlimit="10" stroke-linecap="round" stroke-linejoin="round"/>
<path d="M29.7391 18.6521H26.8646V25.4741H29.7391" stroke="black" stroke-width="2" stroke-miterlimit="10" stroke-linecap="round" stroke-linejoin="round"/>
<path d="M29.5272 22.063H26.8646" stroke="black" stroke-width="2" stroke-miterlimit="10" stroke-linecap="round" stroke-linejoin="round"/>
<path d="M23.2165 19.3286C23.2165 19.3286 21.9811 18.2901 20.5243 18.729C19.1865 19.1319 18.9995 20.6744 19.9672 21.3054C19.9672 21.3054 20.9168 21.729 21.9702 22.1175C24.5056 23.0527 23.4134 25.5056 21.3724 25.5056C20.3503 25.5056 19.4924 25.0581 18.9732 24.4851" stroke="black" stroke-width="2" stroke-miterlimit="10" stroke-linecap="round" stroke-linejoin="round"/>
<path d="M12.082 5.55859L5.04346 13.7759H8.91558V25.3275H15.2483V13.7759H19.1204L12.082 5.55859Z" fill="#FF7E96"/>
<path d="M48.9538 55.9133L55.9924 47.696H52.1202V36.1443H45.7875V47.696H41.9154L48.9538 55.9133Z" fill="#8CC8FF"/>
<path d="M35.3807 47.7041H41.9224L41.9151 47.6958H45.7871L45.7881 36.1443H48.1957V34.2751C48.1957 32.3231 46.6134 30.7397 44.6614 30.7397H19.4282C17.4762 30.7397 15.8939 32.3231 15.8939 34.2751V44.1687C15.8939 46.1218 17.4762 47.7041 19.4282 47.7041H26.2722" stroke="black" stroke-width="2" stroke-miterlimit="10" stroke-linecap="round" stroke-linejoin="round"/>
<path d="M47.3931 17.3108V27.2054C47.3931 29.1574 45.8098 30.7398 43.8578 30.7398H16.5545C14.6014 30.7398 13.0191 29.1574 13.0191 27.2054V25.3269H15.2486V13.7754H43.8578C45.8098 13.7754 47.3931 15.3587 47.3931 17.3108Z" stroke="black" stroke-width="2" stroke-miterlimit="10" stroke-linecap="round" stroke-linejoin="round"/>
<path d="M12.082 5.55859L5.04346 13.7759H8.91558V25.3275H15.2483V13.7759H19.1204L12.082 5.55859Z" stroke="black" stroke-width="2" stroke-miterlimit="10" stroke-linecap="round" stroke-linejoin="round"/>
<path d="M48.9538 55.9133L55.9924 47.696H52.1202V36.1443H45.7875V47.696H41.9154L48.9538 55.9133Z" stroke="black" stroke-width="2" stroke-miterlimit="10" stroke-linecap="round" stroke-linejoin="round"/>
</svg>
