<svg width="112" height="112" viewBox="0 0 112 112" fill="none" xmlns="http://www.w3.org/2000/svg">
<path d="M99.1352 66.3567C99.1352 67.5545 100.106 68.5265 101.306 68.5265L54.8766 30.7478C55.6601 31.0975 56.5735 30.9545 57.2117 30.379C57.7492 29.8965 58.6475 29.3244 59.9007 29.3244C62.129 29.3244 63.9409 31.1363 63.9409 33.3646C63.9409 35.593 62.129 37.4049 59.9007 37.4049C58.6474 37.4049 57.7491 36.8326 57.2118 36.348L57.2116 36.3479C56.5734 35.7748 55.6579 35.6318 54.8767 35.9791L54.8766 35.9792C54.093 36.3289 53.5899 37.1054 53.5899 37.9628V47.8567C53.5899 49.0545 54.5619 50.0265 55.7596 50.0265C56.9581 50.0265 57.9302 49.0545 57.9302 47.8567V41.5057C58.5716 41.6648 59.2315 41.7459 59.9007 41.7459C64.523 41.7459 68.2812 37.987 68.2812 33.3646C68.2812 28.7423 64.523 24.9833 59.9007 24.9833C59.2315 24.9833 58.5716 25.0645 57.9302 25.2236V12.7618H93.0244C96.3937 12.7618 99.1352 15.5039 99.1352 18.8725V66.3567Z" fill="url(#paint0_linear_21_1369)" stroke="url(#paint1_linear_21_1369)" stroke-width="0.2"/>
<path d="M75.9186 55.2546L75.9185 55.2543C75.5688 54.4707 74.7916 53.9676 73.9349 53.9676H64.041C62.8409 53.9676 61.8705 54.9396 61.8705 56.1374C61.8705 57.3359 62.8409 58.3079 64.041 58.3079H70.392C70.2329 58.9483 70.1518 59.6093 70.1518 60.2784C70.1518 64.9008 73.9107 68.659 78.5331 68.659C83.1554 68.659 86.9136 64.9008 86.9136 60.2784C86.9136 59.6093 86.8325 58.9483 86.6734 58.3079H99.1352V93.4021C99.1352 96.7715 96.3937 99.5129 93.0244 99.5129H45.541C44.3409 99.5129 43.3705 100.483 43.3705 101.683C43.3705 102.883 44.3409 103.854 45.541 103.854H93.0244C98.7878 103.854 103.476 99.1655 103.476 93.4021V56.1374C103.476 54.9396 102.506 53.9676 101.306 53.9676H83.1305C82.2738 53.9676 81.4965 54.4707 81.1476 55.2544L81.1475 55.2546C80.8003 56.0378 80.9431 56.9534 81.5187 57.5895C82.0005 58.127 82.5733 59.0253 82.5733 60.2784C82.5733 62.5067 80.7614 64.3187 78.5331 64.3187C76.3047 64.3187 74.492 62.5067 74.492 60.2784C74.492 59.0254 75.0649 58.1271 75.5474 57.5896C76.1222 56.9535 76.2659 56.038 75.9186 55.2546Z" fill="url(#paint2_linear_21_1369)" stroke="url(#paint3_linear_21_1369)" stroke-width="0.2"/>
<path d="M56.6428 76.2965L56.6435 76.2962C57.4263 75.9465 57.9302 75.1693 57.9302 74.3126V64.4187C57.9302 63.2186 56.9581 62.2481 55.7597 62.2481C54.5619 62.2481 53.5899 63.2186 53.5899 64.4187V70.7698C52.9476 70.6106 52.2865 70.5295 51.6194 70.5295C46.997 70.5295 43.2381 74.2884 43.2381 78.9108C43.2381 83.5331 46.997 87.2913 51.6194 87.2913C52.2865 87.2913 52.9476 87.2101 53.5899 87.051V99.5129H18.4949C15.1263 99.5129 12.3841 96.7714 12.3841 93.4021V45.9187C12.3841 44.7186 11.4121 43.7481 10.2144 43.7481C9.0159 43.7481 8.04386 44.7186 8.04386 45.9187V93.4021C8.04386 99.1655 12.7323 103.854 18.4949 103.854H55.7597C56.9581 103.854 57.9302 102.883 57.9302 101.683V83.5082C57.9302 82.6515 57.4263 81.8742 56.6434 81.5253L56.643 81.5251C55.8577 81.1797 54.9444 81.3207 54.3082 81.8965L54.3753 81.9707L54.3085 81.8962C53.771 82.378 52.8726 82.951 51.6194 82.951C49.3911 82.951 47.5791 81.1391 47.5791 78.9108C47.5791 76.6824 49.3911 74.8697 51.6194 74.8697C52.8724 74.8697 53.7707 75.4426 54.3082 75.925C54.9446 76.5002 55.86 76.6387 56.6428 76.2965Z" fill="url(#paint4_linear_21_1369)" stroke="url(#paint5_linear_21_1369)" stroke-width="0.2"/>
<path d="M35.6016 57.0211L35.6016 57.0211C35.9513 57.8039 36.7278 58.3078 37.5853 58.3078H55.7597C56.9582 58.3078 57.9302 57.3358 57.9302 56.1373C57.9302 54.9395 56.9582 53.9675 55.7597 53.9675H41.1281C41.2872 53.3252 41.3684 52.6641 41.3684 51.997C41.3684 47.3747 37.6094 43.6157 32.9871 43.6157C28.3647 43.6157 24.6058 47.3747 24.6058 51.997C24.6058 52.6641 24.6869 53.3252 24.8461 53.9675H12.3842V18.8725C12.3842 15.504 15.1264 12.7618 18.495 12.7618H65.9792C67.1769 12.7618 68.1489 11.7898 68.1489 10.592C68.1489 9.3935 67.177 8.42148 65.9792 8.42148H18.495C12.7324 8.42148 8.04392 13.1099 8.04392 18.8725V56.1373C8.04392 57.3358 9.01591 58.3078 10.2144 58.3078H28.3889C29.2465 58.3078 30.0214 57.8038 30.3703 57.021C30.7199 56.2375 30.5746 55.322 30.0016 54.6861C29.5191 54.1487 28.9468 53.2503 28.9468 51.997C28.9468 49.7687 30.7587 47.9567 32.9871 47.9567C35.2154 47.9567 37.0273 49.7687 37.0273 51.997C37.0273 53.2503 36.4551 54.1486 35.9704 54.6859L35.9703 54.686C35.3974 55.3234 35.2519 56.2374 35.6016 57.0211Z" fill="url(#paint6_linear_21_1369)" stroke="url(#paint7_linear_21_1369)" stroke-width="0.2"/>
<path d="M18.4949 18.7726H18.3949V18.8726V23.0136V23.1136H18.4949H22.6359H22.7359V23.0136V18.8726V18.7726H22.6359H18.4949Z" fill="url(#paint8_linear_21_1369)" stroke="url(#paint9_linear_21_1369)" stroke-width="0.2"/>
<path d="M88.8841 18.7726H88.7841V18.8726V23.0136V23.1136H88.8841H93.0244H93.1244V23.0136V18.8726V18.7726H93.0244H88.8841Z" fill="url(#paint10_linear_21_1369)" stroke="url(#paint11_linear_21_1369)" stroke-width="0.2"/>
<path d="M18.4949 89.1617H18.3949V89.2617V93.402V93.502H18.4949H22.6359H22.7359V93.402V89.2617V89.1617H22.6359H18.4949Z" fill="url(#paint12_linear_21_1369)" stroke="url(#paint13_linear_21_1369)" stroke-width="0.2"/>
<path d="M88.8841 89.1617H88.7841V89.2617V93.402V93.502H88.8841H93.0244H93.1244V93.402V89.2617V89.1617H93.0244H88.8841Z" fill="url(#paint14_linear_21_1369)" stroke="url(#paint15_linear_21_1369)" stroke-width="0.2"/>
<defs>
<linearGradient id="paint0_linear_21_1369" x1="53.6899" y1="8.52148" x2="112.796" y2="58.6058" gradientUnits="userSpaceOnUse">
<stop stop-color="#F7138F"/>
<stop offset="1" stop-color="#FBA45A"/>
</linearGradient>
<linearGradient id="paint1_linear_21_1369" x1="53.6899" y1="8.52148" x2="112.796" y2="58.6058" gradientUnits="userSpaceOnUse">
<stop stop-color="#F7138F"/>
<stop offset="1" stop-color="#FBA45A"/>
</linearGradient>
<linearGradient id="paint2_linear_21_1369" x1="43.4705" y1="54.0676" x2="92.1077" y2="113.977" gradientUnits="userSpaceOnUse">
<stop stop-color="#F7138F"/>
<stop offset="1" stop-color="#FBA45A"/>
</linearGradient>
<linearGradient id="paint3_linear_21_1369" x1="43.4705" y1="54.0676" x2="92.1077" y2="113.977" gradientUnits="userSpaceOnUse">
<stop stop-color="#F7138F"/>
<stop offset="1" stop-color="#FBA45A"/>
</linearGradient>
<linearGradient id="paint4_linear_21_1369" x1="8.14386" y1="43.8481" x2="67.2506" y2="93.9324" gradientUnits="userSpaceOnUse">
<stop stop-color="#F7138F"/>
<stop offset="1" stop-color="#FBA45A"/>
</linearGradient>
<linearGradient id="paint5_linear_21_1369" x1="8.14386" y1="43.8481" x2="67.2506" y2="93.9324" gradientUnits="userSpaceOnUse">
<stop stop-color="#F7138F"/>
<stop offset="1" stop-color="#FBA45A"/>
</linearGradient>
<linearGradient id="paint6_linear_21_1369" x1="8.14392" y1="8.52148" x2="56.7813" y2="68.4304" gradientUnits="userSpaceOnUse">
<stop stop-color="#F7138F"/>
<stop offset="1" stop-color="#FBA45A"/>
</linearGradient>
<linearGradient id="paint7_linear_21_1369" x1="8.14392" y1="8.52148" x2="56.7813" y2="68.4304" gradientUnits="userSpaceOnUse">
<stop stop-color="#F7138F"/>
<stop offset="1" stop-color="#FBA45A"/>
</linearGradient>
<linearGradient id="paint8_linear_21_1369" x1="18.4949" y1="18.8726" x2="22.6359" y2="23.1032" gradientUnits="userSpaceOnUse">
<stop stop-color="#F7138F"/>
<stop offset="1" stop-color="#FBA45A"/>
</linearGradient>
<linearGradient id="paint9_linear_21_1369" x1="18.4949" y1="18.8726" x2="22.6359" y2="23.1032" gradientUnits="userSpaceOnUse">
<stop stop-color="#F7138F"/>
<stop offset="1" stop-color="#FBA45A"/>
</linearGradient>
<linearGradient id="paint10_linear_21_1369" x1="88.8841" y1="18.8726" x2="93.0251" y2="23.1024" gradientUnits="userSpaceOnUse">
<stop stop-color="#F7138F"/>
<stop offset="1" stop-color="#FBA45A"/>
</linearGradient>
<linearGradient id="paint11_linear_21_1369" x1="88.8841" y1="18.8726" x2="93.0251" y2="23.1024" gradientUnits="userSpaceOnUse">
<stop stop-color="#F7138F"/>
<stop offset="1" stop-color="#FBA45A"/>
</linearGradient>
<linearGradient id="paint12_linear_21_1369" x1="18.4949" y1="89.2617" x2="22.6351" y2="93.4923" gradientUnits="userSpaceOnUse">
<stop stop-color="#F7138F"/>
<stop offset="1" stop-color="#FBA45A"/>
</linearGradient>
<linearGradient id="paint13_linear_21_1369" x1="18.4949" y1="89.2617" x2="22.6351" y2="93.4923" gradientUnits="userSpaceOnUse">
<stop stop-color="#F7138F"/>
<stop offset="1" stop-color="#FBA45A"/>
</linearGradient>
<linearGradient id="paint14_linear_21_1369" x1="88.8841" y1="89.2617" x2="93.0244" y2="93.4916" gradientUnits="userSpaceOnUse">
<stop stop-color="#F7138F"/>
<stop offset="1" stop-color="#FBA45A"/>
</linearGradient>
<linearGradient id="paint15_linear_21_1369" x1="88.8841" y1="89.2617" x2="93.0244" y2="93.4916" gradientUnits="userSpaceOnUse">
<stop stop-color="#F7138F"/>
<stop offset="1" stop-color="#FBA45A"/>
</linearGradient>
</defs>
</svg>
