<svg width="60" height="61" viewBox="0 0 60 61" fill="none" xmlns="http://www.w3.org/2000/svg">
<path d="M55.6957 30.1383C55.6957 44.2145 44.3773 55.6466 30.3445 55.8318C30.0285 55.8352 29.5914 55.8352 29.0126 55.8152C15.2797 55.2962 4.30457 43.9984 4.30457 30.1383C4.30457 16.2461 15.3294 4.92974 29.1057 4.45823C29.4025 4.44788 29.7013 4.44271 30.0001 4.44271C30.1108 4.44271 29.995 4.44272 30.3445 4.44479C44.3773 4.62998 55.6957 16.0621 55.6957 30.1383Z" fill="#BBEC6C"/>
<path d="M55.6957 30.1383C55.6957 44.2145 44.3772 55.6466 30.3444 55.8318C30.0284 55.8352 29.5913 55.8352 29.0126 55.8152C42.3991 54.9228 53.3691 43.7461 53.3691 30.1383C53.3691 16.515 42.5118 5.32888 29.1057 4.45823C29.4024 4.44788 29.7013 4.44271 30.0001 4.44271C30.1107 4.44271 29.9949 4.44272 30.3444 4.44479C44.3772 4.62998 55.6957 16.0621 55.6957 30.1383Z" fill="#A2E62E"/>
<path d="M5.85507 30.376C5.85507 24.463 8.15775 18.904 12.3387 14.7228C16.5199 10.5418 22.079 8.23913 27.9919 8.23913C33.9049 8.23913 39.4638 10.5418 43.645 14.7228C47.8261 18.904 50.1288 24.463 50.1288 30.376C50.1288 35.4265 48.3828 40.7803 45.2127 44.7004C42.0901 48.5618 37.717 51.2892 32.8989 52.3801C31.5777 52.6791 30.2641 51.4371 29.9649 50.1157C29.6656 48.7944 30.4943 47.4809 31.8156 47.1816C35.5627 46.3332 38.9659 44.2095 41.3981 41.202C43.9003 38.1077 45.2229 34.3642 45.2229 30.376C45.2229 20.8747 37.4932 13.145 27.9919 13.145C18.4907 13.145 10.7609 20.8747 10.7609 30.376C10.7609 34.3715 12.0878 38.1203 14.5981 41.2173C17.0384 44.228 20.4512 46.3494 24.2075 47.1905C25.5295 47.4867 26.3615 48.7988 26.0651 50.1202C25.7692 51.4421 24.4574 52.2739 23.1355 51.9779C18.3056 50.8963 13.9201 48.1718 10.7869 44.3064C7.60651 40.3827 5.85507 35.4356 5.85507 30.376Z" fill="#A2E62E"/>
<path d="M51.8863 30.3762C51.8863 35.4264 50.1409 40.367 46.9706 44.287C43.8478 48.1481 39.4749 50.8758 34.6563 51.9667C34.4268 52.0184 34.1992 52.036 33.976 52.0237C33.9728 52.0226 33.9687 52.0226 33.9655 52.0226C33.6171 52.0019 33.2811 51.9057 32.9802 51.7476C32.7196 51.6131 32.4849 51.4311 32.2884 51.2108L32.2874 51.2098H32.2864C32.0175 50.9099 31.8179 50.5377 31.7228 50.1158C31.4229 48.7943 32.2522 47.4811 33.5737 47.1813C37.321 46.3333 40.724 44.2094 43.156 41.2015C45.6584 38.1078 46.9809 34.3645 46.9809 30.3762C46.9809 20.8746 39.2505 13.1452 29.7499 13.1452C20.2481 13.1452 12.5188 20.8746 12.5188 30.3762C12.5188 34.3717 13.8454 38.1201 16.3561 41.217C18.7964 44.2281 22.2087 46.3499 25.9653 47.1905C27.2868 47.4863 28.1192 48.7985 27.8235 50.1199C27.5267 51.4425 26.2156 52.2739 24.8931 51.9781C20.0631 50.8965 15.6778 48.1719 12.5446 44.3066C9.36404 40.3826 7.6124 35.4358 7.6124 30.3762C7.6124 24.4627 9.91518 18.9037 14.0968 14.7231C18.1284 10.6904 23.4434 8.40533 29.1202 8.24805C29.329 8.24185 29.5389 8.23875 29.7499 8.23875C35.6624 8.23875 41.2213 10.5416 45.403 14.7231C49.5836 18.9037 51.8863 24.4627 51.8863 30.3762Z" fill="#4FC123"/>
<path d="M25.9654 47.1904C22.2091 46.3493 18.7963 44.228 16.3559 41.2171C13.8457 38.1202 12.5188 34.3713 12.5188 30.3758C12.5188 21.273 19.6144 13.7974 28.565 13.1864C28.1734 13.1597 27.7784 13.1449 27.3802 13.1449C17.8789 13.1449 10.1491 20.8747 10.1491 30.3758C10.1491 34.3713 11.476 38.1202 13.9862 41.2171C16.4267 44.228 19.8394 46.3493 23.5958 47.1904C24.9176 47.4865 25.7497 48.7987 25.4535 50.1202C25.2835 50.879 24.7785 51.4758 24.1294 51.7909C24.3828 51.8574 24.6373 51.9204 24.8934 51.9778C26.2153 52.2738 27.5271 51.4421 27.823 50.1202C28.1194 48.7987 27.2873 47.4865 25.9654 47.1904Z" fill="#47A920"/>
<path d="M45.403 14.7231C41.2214 10.5416 35.6624 8.23869 29.7499 8.23869C29.5389 8.23869 29.329 8.24179 29.1202 8.248C28.9339 8.25317 28.7489 8.26144 28.5649 8.27074C34.0328 8.55717 39.1326 10.8217 43.033 14.7231C47.2147 18.9036 49.5174 24.4626 49.5174 30.3762C49.5174 35.4264 47.7708 40.3669 44.6006 44.2869C41.8867 47.6433 38.0872 50.1369 33.9896 51.4488C32.9497 51.5807 32.3208 51.2293 32.2884 51.2108C32.5404 51.4929 32.8552 51.7114 33.205 51.8512C33.4202 51.9316 33.6482 52.0043 33.9759 52.0235C34.1992 52.0359 34.4269 52.0184 34.6563 51.9667C39.4749 50.8758 43.8478 48.148 46.9706 44.2869C50.1409 40.3669 51.8863 35.4264 51.8863 30.3762C51.8863 24.4626 49.5836 18.9036 45.403 14.7231Z" fill="#47A920"/>
<path d="M12.7579 11.0864C17.3172 6.9577 23.3649 4.44284 30.0001 4.44284C44.1914 4.44284 55.6957 15.9471 55.6957 30.1384C55.6957 44.3297 44.1914 55.834 30.0001 55.834C15.8088 55.834 4.30457 44.3297 4.30457 30.1384C4.30457 23.8864 6.53744 18.1558 10.2492 13.7007" stroke="black" stroke-width="2" stroke-miterlimit="10" stroke-linecap="round" stroke-linejoin="round"/>
<path d="M51.8835 30.7443C51.8008 35.6663 50.0635 40.4621 46.9705 44.2869C43.8479 48.1483 39.4748 50.8757 34.6567 51.9666C33.3355 52.2657 32.0219 51.4371 31.7227 50.1159C31.4234 48.7945 32.2521 47.4809 33.5735 47.1818C37.3205 46.3334 40.7237 44.2097 43.156 41.2021C45.6582 38.1079 46.9807 34.3644 46.9807 30.3761C46.9807 20.8749 39.251 13.1451 29.7498 13.1451C20.2486 13.1451 12.5188 20.8749 12.5188 30.3761C12.5188 34.3716 13.8457 38.1204 16.3559 41.2173C18.7963 44.2281 22.2091 46.3495 25.9654 47.1907C27.2873 47.4867 28.1194 48.7989 27.823 50.1204C27.527 51.4423 26.2153 52.2741 24.8933 51.978C20.0635 50.8964 15.6779 48.1719 12.5448 44.3065C9.36442 40.3829 7.61288 35.4357 7.61288 30.3761C7.61288 24.4632 9.91556 18.9041 14.0965 14.723C18.2777 10.5419 23.8369 8.23921 29.7498 8.23921C35.6627 8.23921 41.2218 10.5419 45.4029 14.723C48.8263 18.1463 50.9903 22.4935 51.6622 27.2023" stroke="black" stroke-width="2" stroke-miterlimit="10" stroke-linecap="round" stroke-linejoin="round"/>
<path d="M40.994 26.2981L37.7028 34.1404" stroke="black" stroke-width="2" stroke-miterlimit="10" stroke-linecap="round" stroke-linejoin="round"/>
<path d="M33.8026 32.384C33.8026 33.6845 32.7483 34.7388 31.4477 34.7388C30.1471 34.7388 29.0928 33.6845 29.0928 32.384V28.6178C29.0928 27.3172 30.1471 26.263 31.4477 26.263C32.7483 26.263 33.8026 27.3172 33.8026 28.6178V32.384Z" stroke="black" stroke-width="2" stroke-miterlimit="10" stroke-linecap="round" stroke-linejoin="round"/>
<path d="M26.5975 32.384C26.5975 33.6845 25.5432 34.7388 24.2427 34.7388C22.942 34.7388 21.8877 33.6845 21.8877 32.384V28.6178C21.8877 27.3172 22.942 26.263 24.2427 26.263C25.5432 26.263 26.5975 27.3172 26.5975 28.6178V32.384Z" stroke="black" stroke-width="2" stroke-miterlimit="10" stroke-linecap="round" stroke-linejoin="round"/>
<path d="M17.5682 26.4401H19.3318V34.6914" stroke="black" stroke-width="2" stroke-miterlimit="10" stroke-linecap="round" stroke-linejoin="round"/>
<path d="M38.0432 26.44C38.0432 26.9382 37.6393 27.342 37.141 27.342C36.6428 27.342 36.2389 26.9382 36.2389 26.44C36.2389 25.9418 36.6428 25.5378 37.141 25.5378C37.6393 25.5378 38.0432 25.9418 38.0432 26.44Z" fill="black"/>
<path d="M42.4321 33.8056C42.4321 34.3038 42.0282 34.7078 41.5299 34.7078C41.0317 34.7078 40.6278 34.3038 40.6278 33.8056C40.6278 33.3074 41.0317 32.9034 41.5299 32.9034C42.0282 32.9034 42.4321 33.3074 42.4321 33.8056Z" fill="black"/>
</svg>
