<svg width="112" height="112" viewBox="0 0 112 112" fill="none" xmlns="http://www.w3.org/2000/svg">
<mask id="path-1-outside-1_21_1344" maskUnits="userSpaceOnUse" x="7.83722" y="7.94116" width="96" height="96" fill="black">
<rect fill="white" x="7.83722" y="7.94116" width="96" height="96"/>
<path d="M92.6351 73.3375C90.3052 71.0066 87.2129 69.5942 83.9256 69.3592C80.6383 69.1243 77.3765 70.0827 74.7388 72.0585L70.9903 68.31C73.8593 64.7967 75.4263 60.4001 75.4263 55.8642C75.4263 51.3283 73.8593 46.9318 70.9903 43.4184L74.7388 39.67C77.3765 41.6458 80.6383 42.6041 83.9256 42.3692C87.2129 42.1342 90.3052 40.7218 92.6351 38.391L98.8629 32.1533C101.348 29.5642 102.719 26.1042 102.683 22.5156C102.646 18.927 101.204 15.4958 98.6663 12.9582C96.1287 10.4205 92.6974 8.97864 89.1089 8.94188C85.5203 8.90512 82.0602 10.2764 79.4712 12.7615L73.2335 18.9893C70.9174 21.3276 69.5151 24.4179 69.2805 27.7007C69.0459 30.9835 69.9944 34.2418 71.9545 36.8857L68.206 40.6341C64.6927 37.7652 60.2961 36.1981 55.7603 36.1981C51.2244 36.1981 46.8278 37.7652 43.3145 40.6341L39.566 36.8857C41.5261 34.2418 42.4747 30.9835 42.2401 27.7007C42.0054 24.4179 40.6031 21.3276 38.287 18.9893L32.0494 12.7615C29.4603 10.2764 26.0002 8.90512 22.4117 8.94188C18.8231 8.97864 15.3919 10.4205 12.8542 12.9582C10.3166 15.4958 8.8747 18.927 8.83794 22.5156C8.80118 26.1042 10.1725 29.5642 12.6576 32.1533L18.8854 38.391C21.2185 40.7162 24.31 42.1249 27.5956 42.3597C30.8812 42.5945 34.1417 41.6398 36.7817 39.67L40.5302 43.4184C37.6613 46.9318 36.0942 51.3283 36.0942 55.8642C36.0942 60.4001 37.6613 64.7967 40.5302 68.31L36.7817 72.0585C34.1378 70.0984 30.8795 69.1498 27.5967 69.3844C24.3139 69.619 21.2237 71.0213 18.8854 73.3375L12.6576 79.5751C10.1725 82.1642 8.80118 85.6242 8.83794 89.2128C8.8747 92.8014 10.3166 96.2326 12.8542 98.7702C15.3919 101.308 18.8231 102.75 22.4117 102.787C26.0002 102.823 29.4603 101.452 32.0494 98.9669L38.287 92.7391C40.6031 90.4008 42.0054 87.3105 42.2401 84.0277C42.4747 80.7449 41.5261 77.4866 39.566 74.8428L43.3145 71.0943C46.8278 73.9632 51.2244 75.5303 55.7603 75.5303C60.2961 75.5303 64.6927 73.9632 68.206 71.0943L71.9545 74.8428C69.9944 77.4866 69.0459 80.7449 69.2805 84.0277C69.5151 87.3105 70.9174 90.4008 73.2335 92.7391L79.4712 98.9669C82.0602 101.452 85.5203 102.823 89.1089 102.787C92.6974 102.75 96.1287 101.308 98.6663 98.7702C101.204 96.2326 102.646 92.8014 102.683 89.2128C102.719 85.6242 101.348 82.1642 98.8629 79.5751L92.6351 73.3375ZM76.0178 21.7737L82.2456 15.5262C84.0826 13.6892 86.5741 12.6572 89.172 12.6572C90.4583 12.6572 91.732 12.9106 92.9205 13.4028C94.1089 13.8951 95.1887 14.6166 96.0983 15.5262C97.0079 16.4358 97.7294 17.5156 98.2217 18.704C98.7139 19.8924 98.9673 21.1662 98.9673 22.4525C98.9673 23.7388 98.7139 25.0126 98.2217 26.201C97.7294 27.3894 97.0079 28.4693 96.0983 29.3788L89.8705 35.6066C88.2779 37.1992 86.1845 38.1932 83.9439 38.4209C81.7032 38.6486 79.4526 38.0958 77.5723 36.8561L80.1697 34.2194C80.3869 34.0469 80.5651 33.8305 80.6928 33.5843C80.8204 33.3381 80.8946 33.0677 80.9104 32.7908C80.9263 32.514 80.8834 32.2369 80.7846 31.9777C80.6859 31.7186 80.5334 31.4832 80.3373 31.2871C80.1412 31.091 79.9059 30.9386 79.6467 30.8398C79.3876 30.7411 79.1105 30.6982 78.8336 30.714C78.5568 30.7299 78.2864 30.804 78.0402 30.9317C77.794 31.0594 77.5775 31.2376 77.4051 31.4548L74.7782 34.0718C73.548 32.189 73.0001 29.9415 73.2256 27.7038C73.4512 25.466 74.4366 23.3731 76.0178 21.7737ZM21.6697 35.6066L15.4222 29.3788C13.5853 27.5419 12.5532 25.0504 12.5532 22.4525C12.5532 21.1662 12.8066 19.8924 13.2989 18.704C13.7911 17.5156 14.5127 16.4358 15.4222 15.5262C16.3318 14.6166 17.4116 13.8951 18.6001 13.4028C19.7885 12.9106 21.0622 12.6572 22.3486 12.6572C24.9464 12.6572 27.4379 13.6892 29.2749 15.5262L35.5027 21.754C37.0854 23.3522 38.0727 25.4445 38.3 27.6823C38.5274 29.9201 37.9811 32.1682 36.7522 34.0522L34.1155 31.4548C33.7372 31.1544 33.2617 31.0036 32.7794 31.0312C32.2972 31.0587 31.8419 31.2627 31.5003 31.6043C31.1588 31.9458 30.9548 32.4011 30.9272 32.8834C30.8996 33.3656 31.0504 33.8412 31.3508 34.2194L33.9679 36.8365C32.0861 38.0679 29.8393 38.6175 27.6016 38.3937C25.3639 38.1699 23.2704 37.1863 21.6697 35.6066ZM35.5027 89.9548L29.2749 96.2022C27.4379 98.0392 24.9464 99.0712 22.3486 99.0712C19.7507 99.0712 17.2592 98.0392 15.4222 96.2022C13.5853 94.3653 12.5532 91.8738 12.5532 89.2759C12.5532 86.678 13.5853 84.1865 15.4222 82.3496L21.65 76.1218C23.2483 74.5391 25.3406 73.5518 27.5784 73.3244C29.8162 73.0971 32.0643 73.6434 33.9482 74.8723L31.3508 77.509C31.1337 77.6815 30.9554 77.8979 30.8277 78.1441C30.7001 78.3903 30.6259 78.6607 30.6101 78.9376C30.5943 79.2145 30.6371 79.4916 30.7359 79.7507C30.8347 80.0098 30.9871 80.2452 31.1832 80.4413C31.3793 80.6374 31.6146 80.7898 31.8738 80.8886C32.1329 80.9873 32.41 81.0302 32.6869 81.0144C32.9638 80.9986 33.2342 80.9244 33.4804 80.7967C33.7266 80.6691 33.943 80.4908 34.1155 80.2736L36.7325 77.6566C37.9639 79.5383 38.5135 81.7852 38.2898 84.0229C38.066 86.2606 37.0824 88.3541 35.5027 89.9548ZM55.7603 71.6059C52.2652 71.6049 48.871 70.4343 46.1185 68.2805L48.6667 65.7028C48.9375 65.3237 49.065 64.8609 49.0266 64.3967C48.9882 63.9324 48.7864 63.4969 48.457 63.1675C48.1276 62.8381 47.692 62.6362 47.2278 62.5978C46.7636 62.5594 46.3007 62.687 45.9217 62.9578L43.344 65.506C41.1898 62.7537 40.0194 59.3593 40.0194 55.8642C40.0194 52.3691 41.1898 48.9747 43.344 46.2224L45.9217 48.7706C46.3007 49.0414 46.7636 49.169 47.2278 49.1306C47.692 49.0922 48.1276 48.8903 48.457 48.561C48.7864 48.2316 48.9882 47.796 49.0266 47.3317C49.065 46.8675 48.9375 46.4047 48.6667 46.0257L46.1185 43.448C48.8708 41.2938 52.2652 40.1233 55.7603 40.1233C59.2554 40.1233 62.6498 41.2938 65.402 43.448L62.8539 46.0257C62.6213 46.1918 62.4278 46.4066 62.2867 46.655C62.1456 46.9035 62.0603 47.1798 62.0367 47.4645C62.0132 47.7493 62.0519 48.0358 62.1503 48.3041C62.2487 48.5724 62.4043 48.816 62.6064 49.0181C62.8084 49.2202 63.0521 49.3758 63.3204 49.4742C63.5887 49.5725 63.8752 49.6113 64.1599 49.5877C64.4447 49.5642 64.721 49.4789 64.9694 49.3378C65.2179 49.1967 65.4327 49.0031 65.5988 48.7706L68.1372 46.2224C70.2914 48.9747 71.4618 52.3691 71.4618 55.8642C71.4618 59.3593 70.2914 62.7537 68.1372 65.506L65.5988 62.9578C65.2198 62.687 64.757 62.5594 64.2927 62.5978C63.8285 62.6362 63.3929 62.8381 63.0635 63.1675C62.7341 63.4969 62.5323 63.9324 62.4939 64.3967C62.4555 64.8609 62.5831 65.3237 62.8539 65.7028L65.402 68.2411C62.6546 70.409 59.26 71.5937 55.7603 71.6059ZM96.0983 96.2022C94.2629 98.0347 91.7753 99.0639 89.1818 99.0639C86.5883 99.0639 84.1007 98.0347 82.2653 96.2022L76.0375 89.9744C74.4548 88.3762 73.4675 86.2839 73.2402 84.0461C73.0128 81.8083 73.5591 79.5602 74.788 77.6763L77.4051 80.2736C77.5775 80.4908 77.794 80.6691 78.0402 80.7967C78.2864 80.9244 78.5568 80.9986 78.8336 81.0144C79.1105 81.0302 79.3876 80.9873 79.6467 80.8886C79.9059 80.7898 80.1412 80.6374 80.3373 80.4413C80.5334 80.2452 80.6859 80.0098 80.7846 79.7507C80.8834 79.4916 80.9263 79.2145 80.9104 78.9376C80.8946 78.6607 80.8204 78.3903 80.6928 78.1441C80.5651 77.8979 80.3869 77.6815 80.1697 77.509L77.5526 74.892C79.4329 73.6523 81.6835 73.0995 83.9242 73.3272C86.1649 73.5548 88.2583 74.5489 89.8508 76.1414L96.0983 82.3496C97.9248 84.1921 98.9495 86.6815 98.9495 89.2759C98.9495 91.8703 97.9248 94.3597 96.0983 96.2022Z"/>
</mask>
<path d="M92.6351 73.3375C90.3052 71.0066 87.2129 69.5942 83.9256 69.3592C80.6383 69.1243 77.3765 70.0827 74.7388 72.0585L70.9903 68.31C73.8593 64.7967 75.4263 60.4001 75.4263 55.8642C75.4263 51.3283 73.8593 46.9318 70.9903 43.4184L74.7388 39.67C77.3765 41.6458 80.6383 42.6041 83.9256 42.3692C87.2129 42.1342 90.3052 40.7218 92.6351 38.391L98.8629 32.1533C101.348 29.5642 102.719 26.1042 102.683 22.5156C102.646 18.927 101.204 15.4958 98.6663 12.9582C96.1287 10.4205 92.6974 8.97864 89.1089 8.94188C85.5203 8.90512 82.0602 10.2764 79.4712 12.7615L73.2335 18.9893C70.9174 21.3276 69.5151 24.4179 69.2805 27.7007C69.0459 30.9835 69.9944 34.2418 71.9545 36.8857L68.206 40.6341C64.6927 37.7652 60.2961 36.1981 55.7603 36.1981C51.2244 36.1981 46.8278 37.7652 43.3145 40.6341L39.566 36.8857C41.5261 34.2418 42.4747 30.9835 42.2401 27.7007C42.0054 24.4179 40.6031 21.3276 38.287 18.9893L32.0494 12.7615C29.4603 10.2764 26.0002 8.90512 22.4117 8.94188C18.8231 8.97864 15.3919 10.4205 12.8542 12.9582C10.3166 15.4958 8.8747 18.927 8.83794 22.5156C8.80118 26.1042 10.1725 29.5642 12.6576 32.1533L18.8854 38.391C21.2185 40.7162 24.31 42.1249 27.5956 42.3597C30.8812 42.5945 34.1417 41.6398 36.7817 39.67L40.5302 43.4184C37.6613 46.9318 36.0942 51.3283 36.0942 55.8642C36.0942 60.4001 37.6613 64.7967 40.5302 68.31L36.7817 72.0585C34.1378 70.0984 30.8795 69.1498 27.5967 69.3844C24.3139 69.619 21.2237 71.0213 18.8854 73.3375L12.6576 79.5751C10.1725 82.1642 8.80118 85.6242 8.83794 89.2128C8.8747 92.8014 10.3166 96.2326 12.8542 98.7702C15.3919 101.308 18.8231 102.75 22.4117 102.787C26.0002 102.823 29.4603 101.452 32.0494 98.9669L38.287 92.7391C40.6031 90.4008 42.0054 87.3105 42.2401 84.0277C42.4747 80.7449 41.5261 77.4866 39.566 74.8428L43.3145 71.0943C46.8278 73.9632 51.2244 75.5303 55.7603 75.5303C60.2961 75.5303 64.6927 73.9632 68.206 71.0943L71.9545 74.8428C69.9944 77.4866 69.0459 80.7449 69.2805 84.0277C69.5151 87.3105 70.9174 90.4008 73.2335 92.7391L79.4712 98.9669C82.0602 101.452 85.5203 102.823 89.1089 102.787C92.6974 102.75 96.1287 101.308 98.6663 98.7702C101.204 96.2326 102.646 92.8014 102.683 89.2128C102.719 85.6242 101.348 82.1642 98.8629 79.5751L92.6351 73.3375ZM76.0178 21.7737L82.2456 15.5262C84.0826 13.6892 86.5741 12.6572 89.172 12.6572C90.4583 12.6572 91.732 12.9106 92.9205 13.4028C94.1089 13.8951 95.1887 14.6166 96.0983 15.5262C97.0079 16.4358 97.7294 17.5156 98.2217 18.704C98.7139 19.8924 98.9673 21.1662 98.9673 22.4525C98.9673 23.7388 98.7139 25.0126 98.2217 26.201C97.7294 27.3894 97.0079 28.4693 96.0983 29.3788L89.8705 35.6066C88.2779 37.1992 86.1845 38.1932 83.9439 38.4209C81.7032 38.6486 79.4526 38.0958 77.5723 36.8561L80.1697 34.2194C80.3869 34.0469 80.5651 33.8305 80.6928 33.5843C80.8204 33.3381 80.8946 33.0677 80.9104 32.7908C80.9263 32.514 80.8834 32.2369 80.7846 31.9777C80.6859 31.7186 80.5334 31.4832 80.3373 31.2871C80.1412 31.091 79.9059 30.9386 79.6467 30.8398C79.3876 30.7411 79.1105 30.6982 78.8336 30.714C78.5568 30.7299 78.2864 30.804 78.0402 30.9317C77.794 31.0594 77.5775 31.2376 77.4051 31.4548L74.7782 34.0718C73.548 32.189 73.0001 29.9415 73.2256 27.7038C73.4512 25.466 74.4366 23.3731 76.0178 21.7737ZM21.6697 35.6066L15.4222 29.3788C13.5853 27.5419 12.5532 25.0504 12.5532 22.4525C12.5532 21.1662 12.8066 19.8924 13.2989 18.704C13.7911 17.5156 14.5127 16.4358 15.4222 15.5262C16.3318 14.6166 17.4116 13.8951 18.6001 13.4028C19.7885 12.9106 21.0622 12.6572 22.3486 12.6572C24.9464 12.6572 27.4379 13.6892 29.2749 15.5262L35.5027 21.754C37.0854 23.3522 38.0727 25.4445 38.3 27.6823C38.5274 29.9201 37.9811 32.1682 36.7522 34.0522L34.1155 31.4548C33.7372 31.1544 33.2617 31.0036 32.7794 31.0312C32.2972 31.0587 31.8419 31.2627 31.5003 31.6043C31.1588 31.9458 30.9548 32.4011 30.9272 32.8834C30.8996 33.3656 31.0504 33.8412 31.3508 34.2194L33.9679 36.8365C32.0861 38.0679 29.8393 38.6175 27.6016 38.3937C25.3639 38.1699 23.2704 37.1863 21.6697 35.6066ZM35.5027 89.9548L29.2749 96.2022C27.4379 98.0392 24.9464 99.0712 22.3486 99.0712C19.7507 99.0712 17.2592 98.0392 15.4222 96.2022C13.5853 94.3653 12.5532 91.8738 12.5532 89.2759C12.5532 86.678 13.5853 84.1865 15.4222 82.3496L21.65 76.1218C23.2483 74.5391 25.3406 73.5518 27.5784 73.3244C29.8162 73.0971 32.0643 73.6434 33.9482 74.8723L31.3508 77.509C31.1337 77.6815 30.9554 77.8979 30.8277 78.1441C30.7001 78.3903 30.6259 78.6607 30.6101 78.9376C30.5943 79.2145 30.6371 79.4916 30.7359 79.7507C30.8347 80.0098 30.9871 80.2452 31.1832 80.4413C31.3793 80.6374 31.6146 80.7898 31.8738 80.8886C32.1329 80.9873 32.41 81.0302 32.6869 81.0144C32.9638 80.9986 33.2342 80.9244 33.4804 80.7967C33.7266 80.6691 33.943 80.4908 34.1155 80.2736L36.7325 77.6566C37.9639 79.5383 38.5135 81.7852 38.2898 84.0229C38.066 86.2606 37.0824 88.3541 35.5027 89.9548ZM55.7603 71.6059C52.2652 71.6049 48.871 70.4343 46.1185 68.2805L48.6667 65.7028C48.9375 65.3237 49.065 64.8609 49.0266 64.3967C48.9882 63.9324 48.7864 63.4969 48.457 63.1675C48.1276 62.8381 47.692 62.6362 47.2278 62.5978C46.7636 62.5594 46.3007 62.687 45.9217 62.9578L43.344 65.506C41.1898 62.7537 40.0194 59.3593 40.0194 55.8642C40.0194 52.3691 41.1898 48.9747 43.344 46.2224L45.9217 48.7706C46.3007 49.0414 46.7636 49.169 47.2278 49.1306C47.692 49.0922 48.1276 48.8903 48.457 48.561C48.7864 48.2316 48.9882 47.796 49.0266 47.3317C49.065 46.8675 48.9375 46.4047 48.6667 46.0257L46.1185 43.448C48.8708 41.2938 52.2652 40.1233 55.7603 40.1233C59.2554 40.1233 62.6498 41.2938 65.402 43.448L62.8539 46.0257C62.6213 46.1918 62.4278 46.4066 62.2867 46.655C62.1456 46.9035 62.0603 47.1798 62.0367 47.4645C62.0132 47.7493 62.0519 48.0358 62.1503 48.3041C62.2487 48.5724 62.4043 48.816 62.6064 49.0181C62.8084 49.2202 63.0521 49.3758 63.3204 49.4742C63.5887 49.5725 63.8752 49.6113 64.1599 49.5877C64.4447 49.5642 64.721 49.4789 64.9694 49.3378C65.2179 49.1967 65.4327 49.0031 65.5988 48.7706L68.1372 46.2224C70.2914 48.9747 71.4618 52.3691 71.4618 55.8642C71.4618 59.3593 70.2914 62.7537 68.1372 65.506L65.5988 62.9578C65.2198 62.687 64.757 62.5594 64.2927 62.5978C63.8285 62.6362 63.3929 62.8381 63.0635 63.1675C62.7341 63.4969 62.5323 63.9324 62.4939 64.3967C62.4555 64.8609 62.5831 65.3237 62.8539 65.7028L65.402 68.2411C62.6546 70.409 59.26 71.5937 55.7603 71.6059ZM96.0983 96.2022C94.2629 98.0347 91.7753 99.0639 89.1818 99.0639C86.5883 99.0639 84.1007 98.0347 82.2653 96.2022L76.0375 89.9744C74.4548 88.3762 73.4675 86.2839 73.2402 84.0461C73.0128 81.8083 73.5591 79.5602 74.788 77.6763L77.4051 80.2736C77.5775 80.4908 77.794 80.6691 78.0402 80.7967C78.2864 80.9244 78.5568 80.9986 78.8336 81.0144C79.1105 81.0302 79.3876 80.9873 79.6467 80.8886C79.9059 80.7898 80.1412 80.6374 80.3373 80.4413C80.5334 80.2452 80.6859 80.0098 80.7846 79.7507C80.8834 79.4916 80.9263 79.2145 80.9104 78.9376C80.8946 78.6607 80.8204 78.3903 80.6928 78.1441C80.5651 77.8979 80.3869 77.6815 80.1697 77.509L77.5526 74.892C79.4329 73.6523 81.6835 73.0995 83.9242 73.3272C86.1649 73.5548 88.2583 74.5489 89.8508 76.1414L96.0983 82.3496C97.9248 84.1921 98.9495 86.6815 98.9495 89.2759C98.9495 91.8703 97.9248 94.3597 96.0983 96.2022Z" fill="url(#paint0_linear_21_1344)"/>
<path d="M92.6351 73.3375C90.3052 71.0066 87.2129 69.5942 83.9256 69.3592C80.6383 69.1243 77.3765 70.0827 74.7388 72.0585L70.9903 68.31C73.8593 64.7967 75.4263 60.4001 75.4263 55.8642C75.4263 51.3283 73.8593 46.9318 70.9903 43.4184L74.7388 39.67C77.3765 41.6458 80.6383 42.6041 83.9256 42.3692C87.2129 42.1342 90.3052 40.7218 92.6351 38.391L98.8629 32.1533C101.348 29.5642 102.719 26.1042 102.683 22.5156C102.646 18.927 101.204 15.4958 98.6663 12.9582C96.1287 10.4205 92.6974 8.97864 89.1089 8.94188C85.5203 8.90512 82.0602 10.2764 79.4712 12.7615L73.2335 18.9893C70.9174 21.3276 69.5151 24.4179 69.2805 27.7007C69.0459 30.9835 69.9944 34.2418 71.9545 36.8857L68.206 40.6341C64.6927 37.7652 60.2961 36.1981 55.7603 36.1981C51.2244 36.1981 46.8278 37.7652 43.3145 40.6341L39.566 36.8857C41.5261 34.2418 42.4747 30.9835 42.2401 27.7007C42.0054 24.4179 40.6031 21.3276 38.287 18.9893L32.0494 12.7615C29.4603 10.2764 26.0002 8.90512 22.4117 8.94188C18.8231 8.97864 15.3919 10.4205 12.8542 12.9582C10.3166 15.4958 8.8747 18.927 8.83794 22.5156C8.80118 26.1042 10.1725 29.5642 12.6576 32.1533L18.8854 38.391C21.2185 40.7162 24.31 42.1249 27.5956 42.3597C30.8812 42.5945 34.1417 41.6398 36.7817 39.67L40.5302 43.4184C37.6613 46.9318 36.0942 51.3283 36.0942 55.8642C36.0942 60.4001 37.6613 64.7967 40.5302 68.31L36.7817 72.0585C34.1378 70.0984 30.8795 69.1498 27.5967 69.3844C24.3139 69.619 21.2237 71.0213 18.8854 73.3375L12.6576 79.5751C10.1725 82.1642 8.80118 85.6242 8.83794 89.2128C8.8747 92.8014 10.3166 96.2326 12.8542 98.7702C15.3919 101.308 18.8231 102.75 22.4117 102.787C26.0002 102.823 29.4603 101.452 32.0494 98.9669L38.287 92.7391C40.6031 90.4008 42.0054 87.3105 42.2401 84.0277C42.4747 80.7449 41.5261 77.4866 39.566 74.8428L43.3145 71.0943C46.8278 73.9632 51.2244 75.5303 55.7603 75.5303C60.2961 75.5303 64.6927 73.9632 68.206 71.0943L71.9545 74.8428C69.9944 77.4866 69.0459 80.7449 69.2805 84.0277C69.5151 87.3105 70.9174 90.4008 73.2335 92.7391L79.4712 98.9669C82.0602 101.452 85.5203 102.823 89.1089 102.787C92.6974 102.75 96.1287 101.308 98.6663 98.7702C101.204 96.2326 102.646 92.8014 102.683 89.2128C102.719 85.6242 101.348 82.1642 98.8629 79.5751L92.6351 73.3375ZM76.0178 21.7737L82.2456 15.5262C84.0826 13.6892 86.5741 12.6572 89.172 12.6572C90.4583 12.6572 91.732 12.9106 92.9205 13.4028C94.1089 13.8951 95.1887 14.6166 96.0983 15.5262C97.0079 16.4358 97.7294 17.5156 98.2217 18.704C98.7139 19.8924 98.9673 21.1662 98.9673 22.4525C98.9673 23.7388 98.7139 25.0126 98.2217 26.201C97.7294 27.3894 97.0079 28.4693 96.0983 29.3788L89.8705 35.6066C88.2779 37.1992 86.1845 38.1932 83.9439 38.4209C81.7032 38.6486 79.4526 38.0958 77.5723 36.8561L80.1697 34.2194C80.3869 34.0469 80.5651 33.8305 80.6928 33.5843C80.8204 33.3381 80.8946 33.0677 80.9104 32.7908C80.9263 32.514 80.8834 32.2369 80.7846 31.9777C80.6859 31.7186 80.5334 31.4832 80.3373 31.2871C80.1412 31.091 79.9059 30.9386 79.6467 30.8398C79.3876 30.7411 79.1105 30.6982 78.8336 30.714C78.5568 30.7299 78.2864 30.804 78.0402 30.9317C77.794 31.0594 77.5775 31.2376 77.4051 31.4548L74.7782 34.0718C73.548 32.189 73.0001 29.9415 73.2256 27.7038C73.4512 25.466 74.4366 23.3731 76.0178 21.7737ZM21.6697 35.6066L15.4222 29.3788C13.5853 27.5419 12.5532 25.0504 12.5532 22.4525C12.5532 21.1662 12.8066 19.8924 13.2989 18.704C13.7911 17.5156 14.5127 16.4358 15.4222 15.5262C16.3318 14.6166 17.4116 13.8951 18.6001 13.4028C19.7885 12.9106 21.0622 12.6572 22.3486 12.6572C24.9464 12.6572 27.4379 13.6892 29.2749 15.5262L35.5027 21.754C37.0854 23.3522 38.0727 25.4445 38.3 27.6823C38.5274 29.9201 37.9811 32.1682 36.7522 34.0522L34.1155 31.4548C33.7372 31.1544 33.2617 31.0036 32.7794 31.0312C32.2972 31.0587 31.8419 31.2627 31.5003 31.6043C31.1588 31.9458 30.9548 32.4011 30.9272 32.8834C30.8996 33.3656 31.0504 33.8412 31.3508 34.2194L33.9679 36.8365C32.0861 38.0679 29.8393 38.6175 27.6016 38.3937C25.3639 38.1699 23.2704 37.1863 21.6697 35.6066ZM35.5027 89.9548L29.2749 96.2022C27.4379 98.0392 24.9464 99.0712 22.3486 99.0712C19.7507 99.0712 17.2592 98.0392 15.4222 96.2022C13.5853 94.3653 12.5532 91.8738 12.5532 89.2759C12.5532 86.678 13.5853 84.1865 15.4222 82.3496L21.65 76.1218C23.2483 74.5391 25.3406 73.5518 27.5784 73.3244C29.8162 73.0971 32.0643 73.6434 33.9482 74.8723L31.3508 77.509C31.1337 77.6815 30.9554 77.8979 30.8277 78.1441C30.7001 78.3903 30.6259 78.6607 30.6101 78.9376C30.5943 79.2145 30.6371 79.4916 30.7359 79.7507C30.8347 80.0098 30.9871 80.2452 31.1832 80.4413C31.3793 80.6374 31.6146 80.7898 31.8738 80.8886C32.1329 80.9873 32.41 81.0302 32.6869 81.0144C32.9638 80.9986 33.2342 80.9244 33.4804 80.7967C33.7266 80.6691 33.943 80.4908 34.1155 80.2736L36.7325 77.6566C37.9639 79.5383 38.5135 81.7852 38.2898 84.0229C38.066 86.2606 37.0824 88.3541 35.5027 89.9548ZM55.7603 71.6059C52.2652 71.6049 48.871 70.4343 46.1185 68.2805L48.6667 65.7028C48.9375 65.3237 49.065 64.8609 49.0266 64.3967C48.9882 63.9324 48.7864 63.4969 48.457 63.1675C48.1276 62.8381 47.692 62.6362 47.2278 62.5978C46.7636 62.5594 46.3007 62.687 45.9217 62.9578L43.344 65.506C41.1898 62.7537 40.0194 59.3593 40.0194 55.8642C40.0194 52.3691 41.1898 48.9747 43.344 46.2224L45.9217 48.7706C46.3007 49.0414 46.7636 49.169 47.2278 49.1306C47.692 49.0922 48.1276 48.8903 48.457 48.561C48.7864 48.2316 48.9882 47.796 49.0266 47.3317C49.065 46.8675 48.9375 46.4047 48.6667 46.0257L46.1185 43.448C48.8708 41.2938 52.2652 40.1233 55.7603 40.1233C59.2554 40.1233 62.6498 41.2938 65.402 43.448L62.8539 46.0257C62.6213 46.1918 62.4278 46.4066 62.2867 46.655C62.1456 46.9035 62.0603 47.1798 62.0367 47.4645C62.0132 47.7493 62.0519 48.0358 62.1503 48.3041C62.2487 48.5724 62.4043 48.816 62.6064 49.0181C62.8084 49.2202 63.0521 49.3758 63.3204 49.4742C63.5887 49.5725 63.8752 49.6113 64.1599 49.5877C64.4447 49.5642 64.721 49.4789 64.9694 49.3378C65.2179 49.1967 65.4327 49.0031 65.5988 48.7706L68.1372 46.2224C70.2914 48.9747 71.4618 52.3691 71.4618 55.8642C71.4618 59.3593 70.2914 62.7537 68.1372 65.506L65.5988 62.9578C65.2198 62.687 64.757 62.5594 64.2927 62.5978C63.8285 62.6362 63.3929 62.8381 63.0635 63.1675C62.7341 63.4969 62.5323 63.9324 62.4939 64.3967C62.4555 64.8609 62.5831 65.3237 62.8539 65.7028L65.402 68.2411C62.6546 70.409 59.26 71.5937 55.7603 71.6059ZM96.0983 96.2022C94.2629 98.0347 91.7753 99.0639 89.1818 99.0639C86.5883 99.0639 84.1007 98.0347 82.2653 96.2022L76.0375 89.9744C74.4548 88.3762 73.4675 86.2839 73.2402 84.0461C73.0128 81.8083 73.5591 79.5602 74.788 77.6763L77.4051 80.2736C77.5775 80.4908 77.794 80.6691 78.0402 80.7967C78.2864 80.9244 78.5568 80.9986 78.8336 81.0144C79.1105 81.0302 79.3876 80.9873 79.6467 80.8886C79.9059 80.7898 80.1412 80.6374 80.3373 80.4413C80.5334 80.2452 80.6859 80.0098 80.7846 79.7507C80.8834 79.4916 80.9263 79.2145 80.9104 78.9376C80.8946 78.6607 80.8204 78.3903 80.6928 78.1441C80.5651 77.8979 80.3869 77.6815 80.1697 77.509L77.5526 74.892C79.4329 73.6523 81.6835 73.0995 83.9242 73.3272C86.1649 73.5548 88.2583 74.5489 89.8508 76.1414L96.0983 82.3496C97.9248 84.1921 98.9495 86.6815 98.9495 89.2759C98.9495 91.8703 97.9248 94.3597 96.0983 96.2022Z" stroke="url(#paint1_linear_21_1344)" stroke-width="0.6" mask="url(#path-1-outside-1_21_1344)"/>
<defs>
<linearGradient id="paint0_linear_21_1344" x1="8.83722" y1="8.94116" x2="102.683" y2="104.818" gradientUnits="userSpaceOnUse">
<stop stop-color="#F7138F"/>
<stop offset="1" stop-color="#FBA45A"/>
</linearGradient>
<linearGradient id="paint1_linear_21_1344" x1="8.83722" y1="8.94116" x2="102.683" y2="104.818" gradientUnits="userSpaceOnUse">
<stop stop-color="#F7138F"/>
<stop offset="1" stop-color="#FBA45A"/>
</linearGradient>
</defs>
</svg>
