<svg width="20" height="19" viewBox="0 0 20 19" fill="none" xmlns="http://www.w3.org/2000/svg">
<path d="M6.02653 12.611C9.44054 13.8732 12.3459 14.1191 15.6382 12.1544C15.6141 12.1887 14.9628 13.1027 13.2502 13.5712C13.612 14.0397 14.1065 14.5767 14.1065 14.5767C15.2041 14.5767 16.2775 14.2796 17.2061 13.7083C17.9298 13.2512 18.3398 12.4629 18.2554 11.6402C18.1106 10.2348 17.7609 8.86372 17.2182 7.54977C16.5307 5.8359 14.8784 4.64759 12.9608 4.47619C12.7919 4.46476 12.6713 4.46476 12.5989 4.46476L12.406 4.64756C14.6131 5.24171 15.7106 6.1672 15.7347 6.20149C12.3457 4.579 8.34154 4.55617 4.92835 6.13294C4.92835 6.13294 6.01381 5.11603 8.41387 4.579L8.26914 4.44189C8.01586 4.44189 7.77464 4.46476 7.52139 4.49902C5.74846 4.78466 4.26502 5.93868 3.62579 7.52687C3.07099 8.89798 2.70918 10.3376 2.57653 11.8002C2.50416 12.5771 2.89011 13.3427 3.5655 13.7883C4.45798 14.3481 5.51931 14.6452 6.59271 14.6452C6.59271 14.6452 7.02688 14.1082 7.46109 13.6283C5.83289 13.1713 5.16957 12.2572 5.1575 12.2229L5.46392 12.3711C5.6471 12.4598 5.8349 12.5401 6.02653 12.611ZM7.9194 11.6174C7.13545 11.5945 6.52035 10.9661 6.54448 10.212C6.56861 9.50356 7.17164 8.93227 7.9194 8.90941C8.70335 8.93227 9.31845 9.56069 9.29431 10.3148C9.25811 11.0232 8.66715 11.5945 7.9194 11.6174ZM12.8401 11.6174C12.0562 11.5945 11.4411 10.9661 11.4652 10.212C11.4893 9.50356 12.0924 8.93227 12.8401 8.90941C13.6241 8.93227 14.2392 9.56069 14.215 10.3148C14.1909 11.0232 13.5879 11.5945 12.8401 11.6174Z" fill="white"/>
</svg>
