<svg width="137" height="138" viewBox="0 0 137 138" fill="none" xmlns="http://www.w3.org/2000/svg">
<g filter="url(#filter0_d_9_21)">
<path d="M101.857 56.7919C101.857 38.3696 86.9223 23.4353 68.5 23.4353C50.0777 23.4353 35.1435 38.3696 35.1435 56.7919C35.1435 75.2142 50.0777 90.1484 68.5 90.1484C86.9223 90.1484 101.857 75.2142 101.857 56.7919Z" fill="#627EEA"/>
<path d="M69.5904 31.7418V50.2325L85.2713 57.2119L69.5904 31.7418Z" fill="white" fill-opacity="0.602"/>
<path d="M69.5904 31.7418L53.9095 57.2119L69.5904 50.2325V31.7418Z" fill="white"/>
<path d="M69.5904 69.267V81.8662L85.2713 60.2029L69.5904 69.267Z" fill="white" fill-opacity="0.602"/>
<path d="M69.5904 81.7755V69.267L53.9095 60.2029L69.5904 81.7755Z" fill="white"/>
<path d="M69.5904 66.2759L85.2713 57.2118L69.5904 50.2325V66.2759Z" fill="white" fill-opacity="0.2"/>
<path d="M53.9095 57.2118L69.5904 66.2759V50.2325L53.9095 57.2118Z" fill="white" fill-opacity="0.602"/>
</g>
<defs>
<filter id="filter0_d_9_21" x="0.143494" y="0.435333" width="136.713" height="136.713" filterUnits="userSpaceOnUse" color-interpolation-filters="sRGB">
<feFlood flood-opacity="0" result="BackgroundImageFix"/>
<feColorMatrix in="SourceAlpha" type="matrix" values="0 0 0 0 0 0 0 0 0 0 0 0 0 0 0 0 0 0 127 0" result="hardAlpha"/>
<feOffset dy="12"/>
<feGaussianBlur stdDeviation="17.5"/>
<feComposite in2="hardAlpha" operator="out"/>
<feColorMatrix type="matrix" values="0 0 0 0 0.384314 0 0 0 0 0.494118 0 0 0 0 0.917647 0 0 0 0.78 0"/>
<feBlend mode="normal" in2="BackgroundImageFix" result="effect1_dropShadow_9_21"/>
<feBlend mode="normal" in="SourceGraphic" in2="effect1_dropShadow_9_21" result="shape"/>
</filter>
</defs>
</svg>
