<svg width="112" height="112" viewBox="0 0 112 112" fill="none" xmlns="http://www.w3.org/2000/svg">
<path d="M9.97379 99.2072H102.505C102.919 99.2072 103.316 99.0427 103.609 98.75C103.902 98.4573 104.066 98.0603 104.066 97.6464C104.066 97.2325 103.902 96.8355 103.609 96.5428C103.316 96.2501 102.919 96.0856 102.505 96.0856H9.97379C9.55986 96.0856 9.16287 96.2501 8.87017 96.5428C8.57747 96.8355 8.41304 97.2325 8.41304 97.6464C8.41304 98.0603 8.57747 98.4573 8.87017 98.75C9.16287 99.0427 9.55985 99.2072 9.97379 99.2072Z" fill="url(#paint0_linear_21_1313)" stroke="url(#paint1_linear_21_1313)" stroke-width="0.4"/>
<path d="M19.4991 90.9473H30.8304L30.8342 90.7473C31.0175 90.7546 31.2003 90.7248 31.3717 90.6597C31.5431 90.5946 31.6996 90.4956 31.8318 90.3685C31.964 90.2414 32.0691 90.0889 32.1409 89.9201C32.2127 89.7514 32.2496 89.5699 32.2494 89.3865H32.4494V89.3863V73.8603C32.4494 73.4463 32.285 73.0493 31.9923 72.7566C31.6996 72.4639 31.3026 72.2995 30.8887 72.2995H19.4991C19.0852 72.2995 18.6882 72.4639 18.3955 72.7566C18.1028 73.0493 17.9384 73.4463 17.9384 73.8603V89.3865C17.9384 89.8004 18.1028 90.1974 18.3955 90.4901C18.6882 90.7828 19.0852 90.9473 19.4991 90.9473ZM29.3279 75.421V87.8257H21.0599V75.421H29.3279Z" fill="url(#paint2_linear_21_1313)" stroke="url(#paint3_linear_21_1313)" stroke-width="0.4"/>
<path d="M40.1692 90.9474H51.5723C51.9862 90.9474 52.3832 90.7829 52.6759 90.4902C52.9686 90.1975 53.133 89.8005 53.133 89.3866V53.2177C53.133 52.8038 52.9686 52.4068 52.6759 52.1141C52.3832 51.8214 51.9862 51.6569 51.5723 51.6569H40.1692C39.7552 51.6569 39.3582 51.8214 39.0655 52.1141C38.7728 52.4068 38.6084 52.8038 38.6084 53.2177V89.3866C38.6084 89.8005 38.7728 90.1975 39.0655 90.4902C39.3582 90.7829 39.7552 90.9474 40.1692 90.9474ZM50.0115 54.7784V87.8258H41.7299V54.7784H50.0115Z" fill="url(#paint4_linear_21_1313)" stroke="url(#paint5_linear_21_1313)" stroke-width="0.4"/>
<path d="M60.9071 90.9472H72.3102C72.7242 90.9472 73.1211 90.7828 73.4138 90.4901C73.7065 90.1974 73.871 89.8004 73.871 89.3865V59.2865C73.871 58.8726 73.7065 58.4756 73.4138 58.1829C73.1211 57.8902 72.7242 57.7258 72.3102 57.7258H60.9071C60.4931 57.7258 60.0962 57.8902 59.8035 58.1829C59.5108 58.4756 59.3463 58.8726 59.3463 59.2865V89.3865C59.3463 89.8004 59.5108 90.1974 59.8035 90.4901C60.0962 90.7828 60.4931 90.9472 60.9071 90.9472ZM70.7495 60.8473V87.8257H62.4678V60.8473H70.7495Z" fill="url(#paint6_linear_21_1313)" stroke="url(#paint7_linear_21_1313)" stroke-width="0.4"/>
<path d="M81.645 90.9472H92.9801C93.394 90.9472 93.791 90.7828 94.0837 90.4901C94.3764 90.1974 94.5409 89.8004 94.5409 89.3865V35.1603C94.5409 34.7464 94.3764 34.3494 94.0837 34.0567C93.791 33.764 93.394 33.5996 92.9801 33.5996H81.645C81.2311 33.5996 80.8341 33.764 80.5414 34.0567C80.2487 34.3494 80.0842 34.7464 80.0842 35.1603V89.3865C80.0842 89.8004 80.2487 90.1974 80.5414 90.4901C80.8341 90.7828 81.2311 90.9472 81.645 90.9472ZM91.4193 36.7211V87.8257H83.1515L83.2055 36.7211H91.4193Z" fill="url(#paint8_linear_21_1313)" stroke="url(#paint9_linear_21_1313)" stroke-width="0.4"/>
<path d="M21.3583 53.6255C22.4747 54.3743 23.788 54.7755 25.1322 54.7782C26.0263 54.7801 26.912 54.6056 27.7386 54.2647C28.5652 53.9238 29.3165 53.4232 29.9494 52.7916C30.5823 52.16 31.0844 51.4098 31.427 50.5839C31.7696 49.758 31.9459 48.8727 31.9459 47.9786C31.9459 46.6343 31.5475 45.3202 30.8009 44.2023C30.0544 43.0844 28.9932 42.2129 27.7516 41.6978C26.5099 41.1828 25.1434 41.0473 23.8248 41.3085C22.5062 41.5698 21.2946 42.216 20.3431 43.1655C19.3916 44.1151 18.7429 45.3254 18.4789 46.6434C18.215 47.9615 18.3476 49.3283 18.8601 50.571C19.3726 51.8137 20.242 52.8766 21.3583 53.6255ZM23.092 44.9411C23.6955 44.5348 24.4059 44.3166 25.1333 44.314C25.6163 44.3123 26.095 44.4058 26.5419 44.5891C26.9888 44.7723 27.3952 45.0418 27.738 45.3822C28.0807 45.7225 28.3531 46.1271 28.5395 46.5727C28.7259 47.0183 28.8227 47.4962 28.8244 47.9793C28.8269 48.7067 28.6137 49.4186 28.2117 50.0249C27.8096 50.6312 27.2368 51.1046 26.5657 51.3854C25.8946 51.6661 25.1553 51.7415 24.4413 51.6021C23.7274 51.4627 23.0707 51.1147 22.5545 50.6021C22.0383 50.0895 21.6857 49.4354 21.5413 48.7224C21.3969 48.0094 21.4671 47.2696 21.7432 46.5965C22.0192 45.9235 22.4886 45.3474 23.092 44.9411Z" fill="url(#paint10_linear_21_1313)" stroke="url(#paint11_linear_21_1313)" stroke-width="0.4"/>
<path d="M45.8703 32.6115C44.5221 32.6113 43.2043 32.2103 42.0844 31.4594C40.9645 30.7085 40.0931 29.6415 39.581 28.3941C39.0689 27.1468 38.9393 25.7753 39.2085 24.454C39.4778 23.1328 40.1338 21.9214 41.0932 20.9739C42.0526 20.0264 43.272 19.3855 44.5965 19.1327C45.921 18.8799 47.2907 19.0266 48.5317 19.5542C49.7726 20.0818 50.8286 20.9664 51.5656 22.0956C52.3025 23.2247 52.687 24.5475 52.6704 25.8957M45.8703 32.6115C47.6604 32.6153 49.3796 31.9116 50.6532 30.6537C51.9268 29.3958 52.6519 27.6857 52.6704 25.8957M45.8703 32.6115L45.8707 32.4115M45.8703 32.6115L45.8707 32.4115M45.8703 32.6115C45.8705 32.6115 45.8706 32.6115 45.8707 32.6115L45.8707 32.4115M45.8703 32.6115L45.8707 32.4115M52.6704 25.8957C52.6704 25.8956 52.6704 25.8956 52.6704 25.8955L52.4704 25.8935L52.6704 25.896C52.6704 25.8959 52.6704 25.8958 52.6704 25.8957ZM43.8342 22.763C44.4376 22.3616 45.1461 22.1474 45.8708 22.1473C46.3593 22.1472 46.8429 22.2444 47.2934 22.4333C47.7439 22.6222 48.1523 22.8989 48.4947 23.2473C48.8371 23.5957 49.1067 24.0088 49.2877 24.4626C49.4687 24.9163 49.5575 25.4015 49.5489 25.89C49.5362 26.6146 49.3097 27.3192 48.8979 27.9156C48.4861 28.5119 47.9073 28.9733 47.2342 29.2418C46.5611 29.5103 45.8237 29.574 45.1145 29.4249C44.4053 29.2758 43.7559 28.9205 43.248 28.4036C42.74 27.8867 42.3961 27.2313 42.2593 26.5196C42.1225 25.8079 42.199 25.0717 42.4792 24.4034C42.7594 23.735 43.2308 23.1643 43.8342 22.763Z" fill="url(#paint12_linear_21_1313)" stroke="url(#paint13_linear_21_1313)" stroke-width="0.4"/>
<path d="M66.6078 39.7557L66.8085 39.7564V39.7081C67.2254 39.7338 67.6354 39.8301 68.021 39.9933C68.4684 40.1828 68.8741 40.4587 69.2147 40.8053C69.5552 41.1519 69.8241 41.5623 70.0057 42.013C70.1873 42.4637 70.2782 42.9458 70.2731 43.4317H70.2731V43.4338C70.273 44.1618 70.057 44.8735 69.6523 45.4786C69.2475 46.0838 68.6723 46.5552 67.9995 46.8332C67.3266 47.1112 66.5864 47.1833 65.8726 47.0403C65.1587 46.8974 64.5034 46.5458 63.9895 46.0301C63.4756 45.5144 63.1263 44.8578 62.9859 44.1435C62.8454 43.4291 62.9201 42.6892 63.2004 42.0173C63.4808 41.3454 63.9543 40.7719 64.5608 40.3693C65.1674 39.9667 65.8798 39.7531 66.6078 39.7557ZM62.826 49.0798C63.9463 49.8259 65.2629 50.2227 66.6089 50.2199C68.4074 50.2162 70.1313 49.5001 71.403 48.2283C72.6748 46.9566 73.3909 45.2328 73.3946 43.4342C73.3973 42.0882 73.0006 40.7716 72.2545 39.6513C71.5084 38.5309 70.4465 37.6572 69.2035 37.1408C67.9605 36.6244 66.5921 36.4886 65.2718 36.7505C63.9515 37.0125 62.7386 37.6603 61.7868 38.6121C60.835 39.5639 60.1871 40.7768 59.9252 42.0971C59.6633 43.4174 59.7991 44.7858 60.3155 46.0288C60.8319 47.2719 61.7056 48.3337 62.826 49.0798Z" fill="url(#paint14_linear_21_1313)" stroke="url(#paint15_linear_21_1313)" stroke-width="0.4"/>
<path d="M94.1325 19.2378L94.1325 19.2374C94.1187 17.8983 93.709 16.5933 92.955 15.4866C92.2009 14.3799 91.1363 13.521 89.8952 13.0181C88.654 12.5152 87.2918 12.3908 85.9801 12.6605C84.6684 12.9302 83.4658 13.582 82.5238 14.5338C81.5817 15.4855 80.9423 16.6948 80.6861 18.0092C80.4299 19.3236 80.5683 20.6844 81.084 21.9203C81.5996 23.1563 82.4693 24.212 83.5837 24.9546C84.6981 25.6972 86.0073 26.0935 87.3465 26.0936L87.3469 26.0936C88.2434 26.0917 89.1307 25.9127 89.9577 25.5666C90.7848 25.2206 91.5352 24.7144 92.1658 24.0772C92.7965 23.4401 93.2949 22.6845 93.6325 21.8539C93.97 21.0234 94.1399 20.1343 94.1325 19.2378ZM87.3465 15.643L87.5465 15.6429V15.5811C88.4443 15.6333 89.2946 16.013 89.9338 16.6522C90.6204 17.3388 91.0076 18.2691 91.011 19.2402L91.0111 19.243C91.0239 19.9704 90.8199 20.6851 90.4251 21.2962C90.0303 21.9072 89.4625 22.387 88.7942 22.6742C88.1258 22.9615 87.387 23.0434 86.672 22.9093C85.9569 22.7753 85.2979 22.4315 84.779 21.9216C84.26 21.4118 83.9045 20.759 83.7578 20.0465C83.6111 19.3339 83.6798 18.5938 83.9552 17.9204C84.2305 17.2471 84.7001 16.6709 85.3041 16.2653C85.908 15.8597 86.619 15.6431 87.3465 15.643Z" fill="url(#paint16_linear_21_1313)" stroke="url(#paint17_linear_21_1313)" stroke-width="0.4"/>
<path d="M70.0106 41.0619V41.0619L70.0155 41.0618C70.2447 41.0561 70.4697 41 70.6748 40.8975L70.5875 40.723L70.6748 40.8975C70.8785 40.7956 71.0575 40.6504 71.1991 40.472L85.1116 24.234C85.2632 24.0842 85.3826 23.9048 85.4623 23.707C85.5432 23.5063 85.5814 23.2911 85.5747 23.0748C85.5679 22.8586 85.5162 22.6461 85.423 22.4509C85.3297 22.2557 85.1969 22.082 85.033 21.9409C84.869 21.7997 84.6775 21.6942 84.4706 21.631C84.2637 21.5678 84.046 21.5483 83.8311 21.5738C83.6163 21.5992 83.4091 21.669 83.2227 21.7788C83.0387 21.8871 82.879 22.032 82.7533 22.2045L68.8244 38.4866L68.8244 38.4866C68.6305 38.7134 68.5056 38.9909 68.4646 39.2865C68.4235 39.582 68.4681 39.8831 68.5929 40.1541C68.7177 40.4251 68.9176 40.6546 69.1688 40.8155C69.4201 40.9764 69.7122 41.0619 70.0106 41.0619Z" fill="url(#paint18_linear_21_1313)" stroke="url(#paint19_linear_21_1313)" stroke-width="0.4"/>
<path d="M49.1666 27.7572C48.9768 27.8516 48.8082 27.9836 48.6711 28.1453C48.5381 28.3009 48.4369 28.4813 48.3735 28.6761C48.31 28.871 48.2855 29.0765 48.3015 29.2808C48.3174 29.4852 48.3735 29.6844 48.4664 29.8671C48.5593 30.0498 48.6873 30.2124 48.8431 30.3456L48.8433 30.3458L61.607 41.2316C61.8723 41.4585 62.2054 41.5894 62.5528 41.6047L62.5559 41.607L62.6093 41.647L62.6759 41.647C62.995 41.6471 63.3064 41.5493 63.5682 41.3669C63.83 41.1845 64.0296 40.9263 64.1401 40.627C64.2507 40.3277 64.2668 40.0017 64.1864 39.6929C64.106 39.3842 63.9329 39.1075 63.6904 38.9001L63.6902 38.8999L50.9301 28.0171C50.7768 27.8731 50.596 27.7616 50.3985 27.6892C50.1993 27.6162 49.9873 27.5846 49.7755 27.5963C49.5637 27.608 49.3566 27.6627 49.1666 27.7572Z" fill="url(#paint20_linear_21_1313)" stroke="url(#paint21_linear_21_1313)" stroke-width="0.4"/>
<path d="M28.7108 45.7294L28.7108 45.7295L28.7182 45.7293C28.9243 45.7223 29.1269 45.6746 29.3144 45.5889C29.5018 45.5032 29.6703 45.3814 29.8103 45.2303C29.8104 45.2302 29.8106 45.23 29.8107 45.2298L43.4175 30.7114L43.4179 30.711C43.7012 30.407 43.8522 30.0028 43.8376 29.5874C43.823 29.172 43.6439 28.7795 43.3399 28.4961C43.0358 28.2127 42.6316 28.0617 42.2162 28.0764C41.801 28.091 41.4085 28.2699 41.1251 28.5739C41.1251 28.5739 41.125 28.574 41.1249 28.5741L27.5177 43.0929L27.5177 43.0929L27.5144 43.0966C27.3769 43.2508 27.2714 43.4307 27.204 43.626C27.1366 43.8212 27.1086 44.0279 27.1216 44.2341C27.1347 44.4402 27.1886 44.6418 27.2801 44.8269C27.3711 45.011 27.4975 45.1753 27.6521 45.3105C27.9396 45.5784 28.3177 45.728 28.7108 45.7294Z" fill="url(#paint22_linear_21_1313)" stroke="url(#paint23_linear_21_1313)" stroke-width="0.4"/>
<defs>
<linearGradient id="paint0_linear_21_1313" x1="8.61304" y1="96.2856" x2="8.76518" y2="101.726" gradientUnits="userSpaceOnUse">
<stop stop-color="#F7138F"/>
<stop offset="1" stop-color="#FBA45A"/>
</linearGradient>
<linearGradient id="paint1_linear_21_1313" x1="8.61304" y1="96.2856" x2="8.76518" y2="101.726" gradientUnits="userSpaceOnUse">
<stop stop-color="#F7138F"/>
<stop offset="1" stop-color="#FBA45A"/>
</linearGradient>
<linearGradient id="paint2_linear_21_1313" x1="18.1384" y1="72.4995" x2="35.8957" y2="86.5275" gradientUnits="userSpaceOnUse">
<stop stop-color="#F7138F"/>
<stop offset="1" stop-color="#FBA45A"/>
</linearGradient>
<linearGradient id="paint3_linear_21_1313" x1="18.1384" y1="72.4995" x2="35.8957" y2="86.5275" gradientUnits="userSpaceOnUse">
<stop stop-color="#F7138F"/>
<stop offset="1" stop-color="#FBA45A"/>
</linearGradient>
<linearGradient id="paint4_linear_21_1313" x1="38.8084" y1="51.8569" x2="64.1821" y2="61.2718" gradientUnits="userSpaceOnUse">
<stop stop-color="#F7138F"/>
<stop offset="1" stop-color="#FBA45A"/>
</linearGradient>
<linearGradient id="paint5_linear_21_1313" x1="38.8084" y1="51.8569" x2="64.1821" y2="61.2718" gradientUnits="userSpaceOnUse">
<stop stop-color="#F7138F"/>
<stop offset="1" stop-color="#FBA45A"/>
</linearGradient>
<linearGradient id="paint6_linear_21_1313" x1="59.5463" y1="57.9258" x2="83.7373" y2="68.5615" gradientUnits="userSpaceOnUse">
<stop stop-color="#F7138F"/>
<stop offset="1" stop-color="#FBA45A"/>
</linearGradient>
<linearGradient id="paint7_linear_21_1313" x1="59.5463" y1="57.9258" x2="83.7373" y2="68.5615" gradientUnits="userSpaceOnUse">
<stop stop-color="#F7138F"/>
<stop offset="1" stop-color="#FBA45A"/>
</linearGradient>
<linearGradient id="paint8_linear_21_1313" x1="80.2842" y1="33.7996" x2="107.295" y2="40.6109" gradientUnits="userSpaceOnUse">
<stop stop-color="#F7138F"/>
<stop offset="1" stop-color="#FBA45A"/>
</linearGradient>
<linearGradient id="paint9_linear_21_1313" x1="80.2842" y1="33.7996" x2="107.295" y2="40.6109" gradientUnits="userSpaceOnUse">
<stop stop-color="#F7138F"/>
<stop offset="1" stop-color="#FBA45A"/>
</linearGradient>
<linearGradient id="paint10_linear_21_1313" x1="18.5466" y1="41.3789" x2="31.7459" y2="54.8638" gradientUnits="userSpaceOnUse">
<stop stop-color="#F7138F"/>
<stop offset="1" stop-color="#FBA45A"/>
</linearGradient>
<linearGradient id="paint11_linear_21_1313" x1="18.5466" y1="41.3789" x2="31.7459" y2="54.8638" gradientUnits="userSpaceOnUse">
<stop stop-color="#F7138F"/>
<stop offset="1" stop-color="#FBA45A"/>
</linearGradient>
<linearGradient id="paint12_linear_21_1313" x1="39.2716" y1="19.2122" x2="52.4709" y2="32.6971" gradientUnits="userSpaceOnUse">
<stop stop-color="#F7138F"/>
<stop offset="1" stop-color="#FBA45A"/>
</linearGradient>
<linearGradient id="paint13_linear_21_1313" x1="39.2716" y1="19.2122" x2="52.4709" y2="32.6971" gradientUnits="userSpaceOnUse">
<stop stop-color="#F7138F"/>
<stop offset="1" stop-color="#FBA45A"/>
</linearGradient>
<linearGradient id="paint14_linear_21_1313" x1="59.9952" y1="36.8206" x2="73.1946" y2="50.3055" gradientUnits="userSpaceOnUse">
<stop stop-color="#F7138F"/>
<stop offset="1" stop-color="#FBA45A"/>
</linearGradient>
<linearGradient id="paint15_linear_21_1313" x1="59.9952" y1="36.8206" x2="73.1946" y2="50.3055" gradientUnits="userSpaceOnUse">
<stop stop-color="#F7138F"/>
<stop offset="1" stop-color="#FBA45A"/>
</linearGradient>
<linearGradient id="paint16_linear_21_1313" x1="80.7608" y1="12.7214" x2="93.9329" y2="26.1784" gradientUnits="userSpaceOnUse">
<stop stop-color="#F7138F"/>
<stop offset="1" stop-color="#FBA45A"/>
</linearGradient>
<linearGradient id="paint17_linear_21_1313" x1="80.7608" y1="12.7214" x2="93.9329" y2="26.1784" gradientUnits="userSpaceOnUse">
<stop stop-color="#F7138F"/>
<stop offset="1" stop-color="#FBA45A"/>
</linearGradient>
<linearGradient id="paint18_linear_21_1313" x1="68.6497" y1="21.7629" x2="87.6353" y2="38.7491" gradientUnits="userSpaceOnUse">
<stop stop-color="#F7138F"/>
<stop offset="1" stop-color="#FBA45A"/>
</linearGradient>
<linearGradient id="paint19_linear_21_1313" x1="68.6497" y1="21.7629" x2="87.6353" y2="38.7491" gradientUnits="userSpaceOnUse">
<stop stop-color="#F7138F"/>
<stop offset="1" stop-color="#FBA45A"/>
</linearGradient>
<linearGradient id="paint20_linear_21_1313" x1="48.4967" y1="27.7939" x2="61.999" y2="43.4948" gradientUnits="userSpaceOnUse">
<stop stop-color="#F7138F"/>
<stop offset="1" stop-color="#FBA45A"/>
</linearGradient>
<linearGradient id="paint21_linear_21_1313" x1="48.4967" y1="27.7939" x2="61.999" y2="43.4948" gradientUnits="userSpaceOnUse">
<stop stop-color="#F7138F"/>
<stop offset="1" stop-color="#FBA45A"/>
</linearGradient>
<linearGradient id="paint22_linear_21_1313" x1="27.3185" y1="28.2754" x2="44.5664" y2="44.9425" gradientUnits="userSpaceOnUse">
<stop stop-color="#F7138F"/>
<stop offset="1" stop-color="#FBA45A"/>
</linearGradient>
<linearGradient id="paint23_linear_21_1313" x1="27.3185" y1="28.2754" x2="44.5664" y2="44.9425" gradientUnits="userSpaceOnUse">
<stop stop-color="#F7138F"/>
<stop offset="1" stop-color="#FBA45A"/>
</linearGradient>
</defs>
</svg>
