<svg width="621" height="655" viewBox="0 0 621 655" fill="none" xmlns="http://www.w3.org/2000/svg">
<rect y="0.523438" width="294" height="278.24" rx="20" fill="#333247"/>
<g filter="url(#filter0_d_23_1869)">
<rect x="91.0264" y="56.1479" width="111.947" height="111.947" rx="55.9736" fill="#E6148B"/>
</g>
<path d="M137.432 134.03C137.887 135.853 139.482 137.144 141.305 137.144H152.695C154.594 137.144 156.189 135.853 156.568 134.03L158.315 126.588H135.685L137.432 134.03Z" fill="white"/>
<path d="M164.01 105.629C164.086 105.401 164.01 105.098 163.859 104.946C163.707 104.718 163.479 104.642 163.175 104.642C153.835 105.401 149.582 108.819 147.759 111.704V107.376C147.304 107.452 146.696 107.452 146.241 107.376V111.704C144.342 108.819 140.165 105.401 130.825 104.642C130.597 104.642 130.293 104.718 130.141 104.946C129.99 105.174 129.914 105.401 129.99 105.629C132.268 112.388 138.343 118.159 146.241 116.641V119.374H135.685C134.09 119.374 132.875 120.665 132.875 122.26C132.875 123.779 134.166 125.07 135.685 125.07H158.239C159.834 125.07 161.049 123.779 161.049 122.184C161.049 120.589 159.758 119.374 158.239 119.374H147.759V116.641C155.581 118.159 161.656 112.464 164.01 105.629Z" fill="white"/>
<path d="M147 105.933C152.24 105.933 156.416 101.68 156.416 96.5166C156.416 91.2768 152.164 87.1001 147 87.1001C141.76 87.1001 137.583 91.3527 137.583 96.5166C137.583 101.68 141.76 105.933 147 105.933ZM147 97.2C145.405 97.2 144.114 95.9091 144.114 94.3143C144.114 92.9474 145.026 91.8083 146.241 91.5046V90.5933C146.241 90.2136 146.544 89.8339 147 89.8339C147.38 89.8339 147.759 90.2136 147.759 90.5933V91.5046C148.974 91.8083 149.886 92.9474 149.886 94.3143C149.886 94.77 149.582 95.0737 149.126 95.0737C148.747 95.0737 148.367 94.77 148.367 94.3143C148.367 93.5549 147.759 92.9474 147.076 92.9474H147H146.924C146.165 92.9474 145.633 93.6309 145.633 94.3143C145.633 95.0737 146.241 95.6812 147 95.6812C148.595 95.6812 149.886 96.9722 149.886 98.5669C149.886 99.9339 148.898 101.073 147.607 101.377V102.288C147.607 102.744 147.228 103.047 146.848 103.047C146.468 103.047 146.089 102.744 146.089 102.288V101.377C144.874 100.997 144.038 99.9339 144.038 98.5669C144.038 98.1113 144.418 97.8076 144.798 97.8076C145.177 97.8076 145.557 98.1113 145.557 98.5669C145.557 99.3263 146.165 99.9339 146.924 99.9339C147.683 99.9339 148.291 99.3263 148.291 98.5669C148.367 97.8076 147.759 97.2 147 97.2Z" fill="white"/>
<path d="M41.8976 218.139V204.139H44.4976V218.139H41.8976ZM54.1043 207.339C54.9576 207.339 55.7176 207.506 56.3843 207.839C57.0643 208.172 57.5976 208.686 57.9843 209.379C58.371 210.059 58.5643 210.939 58.5643 212.019V218.139H56.0643V212.339C56.0643 211.392 55.8376 210.686 55.3843 210.219C54.9443 209.752 54.3243 209.519 53.5243 209.519C52.9376 209.519 52.4176 209.639 51.9643 209.879C51.511 210.119 51.1576 210.479 50.9043 210.959C50.6643 211.426 50.5443 212.019 50.5443 212.739V218.139H48.0443V207.459H50.4243V210.339L50.0043 209.459C50.3776 208.779 50.9176 208.259 51.6243 207.899C52.3443 207.526 53.171 207.339 54.1043 207.339ZM64.3804 218.139L59.8004 207.459H62.4004L66.3404 216.879H65.0604L69.1404 207.459H71.5404L66.9604 218.139H64.3804ZM77.8299 218.279C76.6433 218.279 75.6033 218.046 74.7099 217.579C73.8299 217.099 73.1433 216.446 72.6499 215.619C72.1699 214.792 71.9299 213.852 71.9299 212.799C71.9299 211.732 72.1633 210.792 72.6299 209.979C73.1099 209.152 73.7633 208.506 74.5899 208.039C75.4299 207.572 76.3833 207.339 77.4499 207.339C78.4899 207.339 79.4166 207.566 80.2299 208.019C81.0433 208.472 81.6833 209.112 82.1499 209.939C82.6166 210.766 82.8499 211.739 82.8499 212.859C82.8499 212.966 82.8433 213.086 82.8299 213.219C82.8299 213.352 82.8233 213.479 82.8099 213.599H73.9099V211.939H81.4899L80.5099 212.459C80.5233 211.846 80.3966 211.306 80.1299 210.839C79.8633 210.372 79.4966 210.006 79.0299 209.739C78.5766 209.472 78.0499 209.339 77.4499 209.339C76.8366 209.339 76.2966 209.472 75.8299 209.739C75.3766 210.006 75.0166 210.379 74.7499 210.859C74.4966 211.326 74.3699 211.879 74.3699 212.519V212.919C74.3699 213.559 74.5166 214.126 74.8099 214.619C75.1033 215.112 75.5166 215.492 76.0499 215.759C76.5833 216.026 77.1966 216.159 77.8899 216.159C78.4899 216.159 79.0299 216.066 79.5099 215.879C79.9899 215.692 80.4166 215.399 80.7899 214.999L82.1299 216.539C81.6499 217.099 81.0433 217.532 80.3099 217.839C79.5899 218.132 78.7633 218.279 77.8299 218.279ZM88.5513 218.279C87.658 218.279 86.798 218.166 85.9713 217.939C85.158 217.699 84.5113 217.412 84.0313 217.079L84.9913 215.179C85.4713 215.486 86.0447 215.739 86.7113 215.939C87.378 216.139 88.0447 216.239 88.7113 216.239C89.498 216.239 90.0647 216.132 90.4113 215.919C90.7713 215.706 90.9513 215.419 90.9513 215.059C90.9513 214.766 90.8313 214.546 90.5913 214.399C90.3513 214.239 90.038 214.119 89.6513 214.039C89.2647 213.959 88.8313 213.886 88.3513 213.819C87.8847 213.752 87.4113 213.666 86.9313 213.559C86.4647 213.439 86.038 213.272 85.6513 213.059C85.2647 212.832 84.9513 212.532 84.7113 212.159C84.4713 211.786 84.3513 211.292 84.3513 210.679C84.3513 209.999 84.5447 209.412 84.9313 208.919C85.318 208.412 85.858 208.026 86.5513 207.759C87.258 207.479 88.0913 207.339 89.0513 207.339C89.7713 207.339 90.498 207.419 91.2313 207.579C91.9647 207.739 92.5713 207.966 93.0513 208.259L92.0913 210.159C91.5847 209.852 91.0713 209.646 90.5513 209.539C90.0447 209.419 89.538 209.359 89.0313 209.359C88.2713 209.359 87.7047 209.472 87.3313 209.699C86.9713 209.926 86.7913 210.212 86.7913 210.559C86.7913 210.879 86.9113 211.119 87.1513 211.279C87.3913 211.439 87.7047 211.566 88.0913 211.659C88.478 211.752 88.9047 211.832 89.3713 211.899C89.8513 211.952 90.3247 212.039 90.7913 212.159C91.258 212.279 91.6847 212.446 92.0713 212.659C92.4713 212.859 92.7913 213.146 93.0313 213.519C93.2713 213.892 93.3913 214.379 93.3913 214.979C93.3913 215.646 93.1913 216.226 92.7913 216.719C92.4047 217.212 91.8513 217.599 91.1313 217.879C90.4113 218.146 89.5513 218.279 88.5513 218.279ZM99.5643 218.279C98.391 218.279 97.4843 217.979 96.8443 217.379C96.2043 216.766 95.8843 215.866 95.8843 214.679V205.099H98.3843V214.619C98.3843 215.126 98.511 215.519 98.7643 215.799C99.031 216.079 99.3976 216.219 99.8643 216.219C100.424 216.219 100.891 216.072 101.264 215.779L101.964 217.559C101.671 217.799 101.311 217.979 100.884 218.099C100.458 218.219 100.018 218.279 99.5643 218.279ZM94.1243 209.539V207.539H101.244V209.539H94.1243ZM117.501 207.339C118.354 207.339 119.108 207.506 119.761 207.839C120.428 208.172 120.948 208.686 121.321 209.379C121.694 210.059 121.881 210.939 121.881 212.019V218.139H119.381V212.339C119.381 211.392 119.174 210.686 118.761 210.219C118.348 209.752 117.754 209.519 116.981 209.519C116.434 209.519 115.948 209.639 115.521 209.879C115.108 210.119 114.781 210.472 114.541 210.939C114.314 211.406 114.201 211.999 114.201 212.719V218.139H111.701V212.339C111.701 211.392 111.494 210.686 111.081 210.219C110.668 209.752 110.074 209.519 109.301 209.519C108.754 209.519 108.268 209.639 107.841 209.879C107.428 210.119 107.101 210.472 106.861 210.939C106.634 211.406 106.521 211.999 106.521 212.719V218.139H104.021V207.459H106.401V210.299L105.981 209.459C106.341 208.766 106.861 208.239 107.541 207.879C108.234 207.519 109.021 207.339 109.901 207.339C110.901 207.339 111.768 207.586 112.501 208.079C113.248 208.572 113.741 209.319 113.981 210.319L113.001 209.979C113.348 209.179 113.921 208.539 114.721 208.059C115.521 207.579 116.448 207.339 117.501 207.339ZM130.115 218.279C128.928 218.279 127.888 218.046 126.995 217.579C126.115 217.099 125.428 216.446 124.935 215.619C124.455 214.792 124.215 213.852 124.215 212.799C124.215 211.732 124.448 210.792 124.915 209.979C125.395 209.152 126.048 208.506 126.875 208.039C127.715 207.572 128.668 207.339 129.735 207.339C130.775 207.339 131.702 207.566 132.515 208.019C133.328 208.472 133.968 209.112 134.435 209.939C134.902 210.766 135.135 211.739 135.135 212.859C135.135 212.966 135.128 213.086 135.115 213.219C135.115 213.352 135.108 213.479 135.095 213.599H126.195V211.939H133.775L132.795 212.459C132.808 211.846 132.682 211.306 132.415 210.839C132.148 210.372 131.782 210.006 131.315 209.739C130.862 209.472 130.335 209.339 129.735 209.339C129.122 209.339 128.582 209.472 128.115 209.739C127.662 210.006 127.302 210.379 127.035 210.859C126.782 211.326 126.655 211.879 126.655 212.519V212.919C126.655 213.559 126.802 214.126 127.095 214.619C127.388 215.112 127.802 215.492 128.335 215.759C128.868 216.026 129.482 216.159 130.175 216.159C130.775 216.159 131.315 216.066 131.795 215.879C132.275 215.692 132.702 215.399 133.075 214.999L134.415 216.539C133.935 217.099 133.328 217.532 132.595 217.839C131.875 218.132 131.048 218.279 130.115 218.279ZM143.596 207.339C144.45 207.339 145.21 207.506 145.876 207.839C146.556 208.172 147.09 208.686 147.476 209.379C147.863 210.059 148.056 210.939 148.056 212.019V218.139H145.556V212.339C145.556 211.392 145.33 210.686 144.876 210.219C144.436 209.752 143.816 209.519 143.016 209.519C142.43 209.519 141.91 209.639 141.456 209.879C141.003 210.119 140.65 210.479 140.396 210.959C140.156 211.426 140.036 212.019 140.036 212.739V218.139H137.536V207.459H139.916V210.339L139.496 209.459C139.87 208.779 140.41 208.259 141.116 207.899C141.836 207.526 142.663 207.339 143.596 207.339ZM155.248 218.279C154.075 218.279 153.168 217.979 152.528 217.379C151.888 216.766 151.568 215.866 151.568 214.679V205.099H154.068V214.619C154.068 215.126 154.195 215.519 154.448 215.799C154.715 216.079 155.081 216.219 155.548 216.219C156.108 216.219 156.575 216.072 156.948 215.779L157.648 217.559C157.355 217.799 156.995 217.979 156.568 218.099C156.141 218.219 155.701 218.279 155.248 218.279ZM149.808 209.539V207.539H156.928V209.539H149.808ZM165.472 218.139V204.139H171.232C172.472 204.139 173.532 204.339 174.412 204.739C175.305 205.139 175.992 205.712 176.472 206.459C176.952 207.206 177.192 208.092 177.192 209.119C177.192 210.146 176.952 211.032 176.472 211.779C175.992 212.526 175.305 213.099 174.412 213.499C173.532 213.899 172.472 214.099 171.232 214.099H166.912L168.072 212.879V218.139H165.472ZM168.072 213.159L166.912 211.899H171.112C172.258 211.899 173.118 211.659 173.692 211.179C174.278 210.686 174.572 209.999 174.572 209.119C174.572 208.226 174.278 207.539 173.692 207.059C173.118 206.579 172.258 206.339 171.112 206.339H166.912L168.072 205.059V213.159ZM179.744 218.139V203.299H182.244V218.139H179.744ZM192.105 218.139V215.979L191.965 215.519V211.739C191.965 211.006 191.745 210.439 191.305 210.039C190.865 209.626 190.198 209.419 189.305 209.419C188.705 209.419 188.111 209.512 187.525 209.699C186.951 209.886 186.465 210.146 186.065 210.479L185.085 208.659C185.658 208.219 186.338 207.892 187.125 207.679C187.925 207.452 188.751 207.339 189.605 207.339C191.151 207.339 192.345 207.712 193.185 208.459C194.038 209.192 194.465 210.332 194.465 211.879V218.139H192.105ZM188.745 218.279C187.945 218.279 187.245 218.146 186.645 217.879C186.045 217.599 185.578 217.219 185.245 216.739C184.925 216.246 184.765 215.692 184.765 215.079C184.765 214.479 184.905 213.939 185.185 213.459C185.478 212.979 185.951 212.599 186.605 212.319C187.258 212.039 188.125 211.899 189.205 211.899H192.305V213.559H189.385C188.531 213.559 187.958 213.699 187.665 213.979C187.371 214.246 187.225 214.579 187.225 214.979C187.225 215.432 187.405 215.792 187.765 216.059C188.125 216.326 188.625 216.459 189.265 216.459C189.878 216.459 190.425 216.319 190.905 216.039C191.398 215.759 191.751 215.346 191.965 214.799L192.385 216.299C192.145 216.926 191.711 217.412 191.085 217.759C190.471 218.106 189.691 218.279 188.745 218.279ZM201.693 218.279C200.52 218.279 199.613 217.979 198.973 217.379C198.333 216.766 198.013 215.866 198.013 214.679V205.099H200.513V214.619C200.513 215.126 200.64 215.519 200.893 215.799C201.16 216.079 201.527 216.219 201.993 216.219C202.553 216.219 203.02 216.072 203.393 215.779L204.093 217.559C203.8 217.799 203.44 217.979 203.013 218.099C202.587 218.219 202.147 218.279 201.693 218.279ZM196.253 209.539V207.539H203.373V209.539H196.253ZM206.49 218.139V206.859C206.49 205.739 206.816 204.846 207.47 204.179C208.136 203.499 209.083 203.159 210.31 203.159C210.75 203.159 211.163 203.206 211.55 203.299C211.95 203.392 212.283 203.539 212.55 203.739L211.87 205.619C211.683 205.472 211.47 205.366 211.23 205.299C210.99 205.219 210.743 205.179 210.49 205.179C209.97 205.179 209.576 205.326 209.31 205.619C209.043 205.899 208.91 206.326 208.91 206.899V208.099L208.99 209.219V218.139H206.49ZM204.73 209.539V207.539H211.85V209.539H204.73ZM218.176 218.279C217.083 218.279 216.11 218.046 215.256 217.579C214.403 217.099 213.73 216.446 213.236 215.619C212.743 214.792 212.496 213.852 212.496 212.799C212.496 211.732 212.743 210.792 213.236 209.979C213.73 209.152 214.403 208.506 215.256 208.039C216.11 207.572 217.083 207.339 218.176 207.339C219.283 207.339 220.263 207.572 221.116 208.039C221.983 208.506 222.656 209.146 223.136 209.959C223.63 210.772 223.876 211.719 223.876 212.799C223.876 213.852 223.63 214.792 223.136 215.619C222.656 216.446 221.983 217.099 221.116 217.579C220.263 218.046 219.283 218.279 218.176 218.279ZM218.176 216.139C218.79 216.139 219.336 216.006 219.816 215.739C220.296 215.472 220.67 215.086 220.936 214.579C221.216 214.072 221.356 213.479 221.356 212.799C221.356 212.106 221.216 211.512 220.936 211.019C220.67 210.512 220.296 210.126 219.816 209.859C219.336 209.592 218.796 209.459 218.196 209.459C217.583 209.459 217.036 209.592 216.556 209.859C216.09 210.126 215.716 210.512 215.436 211.019C215.156 211.512 215.016 212.106 215.016 212.799C215.016 213.479 215.156 214.072 215.436 214.579C215.716 215.086 216.09 215.472 216.556 215.739C217.036 216.006 217.576 216.139 218.176 216.139ZM226.267 218.139V207.459H228.647V210.399L228.367 209.539C228.687 208.819 229.187 208.272 229.867 207.899C230.56 207.526 231.42 207.339 232.447 207.339V209.719C232.34 209.692 232.24 209.679 232.147 209.679C232.054 209.666 231.96 209.659 231.867 209.659C230.92 209.659 230.167 209.939 229.607 210.499C229.047 211.046 228.767 211.866 228.767 212.959V218.139H226.267ZM248.048 207.339C248.901 207.339 249.654 207.506 250.308 207.839C250.974 208.172 251.494 208.686 251.868 209.379C252.241 210.059 252.428 210.939 252.428 212.019V218.139H249.928V212.339C249.928 211.392 249.721 210.686 249.308 210.219C248.894 209.752 248.301 209.519 247.528 209.519C246.981 209.519 246.494 209.639 246.068 209.879C245.654 210.119 245.328 210.472 245.088 210.939C244.861 211.406 244.748 211.999 244.748 212.719V218.139H242.248V212.339C242.248 211.392 242.041 210.686 241.628 210.219C241.214 209.752 240.621 209.519 239.848 209.519C239.301 209.519 238.814 209.639 238.388 209.879C237.974 210.119 237.648 210.472 237.408 210.939C237.181 211.406 237.068 211.999 237.068 212.719V218.139H234.568V207.459H236.948V210.299L236.528 209.459C236.888 208.766 237.408 208.239 238.088 207.879C238.781 207.519 239.568 207.339 240.448 207.339C241.448 207.339 242.314 207.586 243.048 208.079C243.794 208.572 244.288 209.319 244.528 210.319L243.548 209.979C243.894 209.179 244.468 208.539 245.268 208.059C246.068 207.579 246.994 207.339 248.048 207.339Z" fill="white"/>
<rect y="311.356" width="294" height="278.24" rx="20" fill="#333247"/>
<g filter="url(#filter1_d_23_1869)">
<rect x="91.0264" y="366.981" width="111.947" height="111.947" rx="55.9736" fill="#6AAB21"/>
</g>
<path fill-rule="evenodd" clip-rule="evenodd" d="M147 404.221C150.283 404.221 153.464 405.36 156.002 407.442C158.54 409.525 160.277 412.423 160.917 415.643C161.558 418.863 161.062 422.205 159.515 425.1C157.967 427.995 155.464 430.264 152.431 431.521C149.398 432.777 146.023 432.943 142.881 431.99C139.74 431.037 137.026 429.024 135.202 426.295C133.378 423.565 132.557 420.287 132.879 417.02C133.201 413.753 134.645 410.699 136.967 408.377C138.283 407.058 139.847 406.011 141.569 405.298C143.29 404.585 145.136 404.219 147 404.221ZM140.963 426.389C140.013 426.626 139.085 426.945 138.19 427.344C139.541 428.678 141.178 429.688 142.976 430.298C142.481 429.653 142.055 428.956 141.707 428.22C141.423 427.625 141.174 427.014 140.963 426.389V426.389ZM151.422 426.044C148.495 425.551 145.505 425.551 142.578 426.044C142.753 426.543 142.955 427.031 143.183 427.507C144.21 429.639 145.564 430.957 147 430.957C148.436 430.957 149.79 429.639 150.817 427.507C151.045 427.031 151.247 426.543 151.422 426.044ZM155.809 427.344C154.915 426.946 153.987 426.626 153.037 426.389C152.826 427.014 152.577 427.625 152.293 428.22C151.945 428.956 151.519 429.653 151.023 430.298C152.822 429.688 154.458 428.678 155.809 427.344V427.344ZM139.749 419.233H134.48C134.639 421.716 135.537 424.096 137.058 426.066C138.159 425.533 139.312 425.115 140.499 424.818C140.046 422.989 139.795 421.116 139.749 419.233ZM152.608 419.233H141.392C141.437 420.998 141.674 422.753 142.101 424.466C145.341 423.886 148.659 423.886 151.9 424.466C152.326 422.753 152.564 420.998 152.608 419.233H152.608ZM159.52 419.233H154.251C154.205 421.116 153.954 422.989 153.501 424.818C154.688 425.115 155.841 425.533 156.942 426.066C158.463 424.096 159.361 421.716 159.52 419.233ZM140.499 412.004C139.312 411.707 138.159 411.289 137.058 410.757C135.537 412.726 134.639 415.106 134.48 417.59H139.749C139.795 415.706 140.047 413.833 140.499 412.004ZM151.9 412.356C150.283 412.648 148.643 412.794 147 412.791C145.357 412.794 143.717 412.648 142.1 412.356C141.674 414.069 141.437 415.824 141.392 417.59H152.608C152.563 415.824 152.326 414.069 151.9 412.356H151.9ZM156.942 410.757C155.841 411.289 154.688 411.707 153.502 412.004C153.954 413.833 154.206 415.706 154.252 417.59H159.52C159.361 415.106 158.463 412.726 156.942 410.757ZM153.038 410.433C153.988 410.196 154.916 409.877 155.81 409.478C154.459 408.144 152.823 407.134 151.024 406.524C151.52 407.17 151.945 407.866 152.293 408.602C152.577 409.197 152.826 409.808 153.037 410.433L153.038 410.433ZM142.578 410.778C144.039 411.028 145.518 411.151 147 411.148C148.482 411.152 149.961 411.028 151.422 410.778C151.247 410.28 151.045 409.791 150.817 409.315C149.79 407.183 148.436 405.865 147 405.865C145.564 405.865 144.21 407.183 143.183 409.315C142.955 409.791 142.753 410.28 142.578 410.778ZM138.19 409.478C139.085 409.876 140.013 410.196 140.963 410.433C141.174 409.808 141.423 409.197 141.707 408.602C142.055 407.866 142.481 407.169 142.977 406.523C141.178 407.133 139.542 408.143 138.19 409.478ZM125.902 435.008H168.098C168.531 435.007 168.945 434.834 169.251 434.529C169.556 434.223 169.729 433.809 169.73 433.376V403.446C169.729 403.014 169.556 402.599 169.251 402.294C168.945 401.988 168.531 401.816 168.098 401.814H125.902C125.469 401.816 125.055 401.988 124.749 402.294C124.444 402.599 124.271 403.014 124.27 403.446V433.376C124.271 433.809 124.444 434.223 124.749 434.529C125.055 434.834 125.469 435.007 125.902 435.008V435.008ZM138.302 436.651L140.139 439.832H153.861L155.698 436.651H138.302ZM157.591 436.651H172.469V441.287C172.466 442.031 172.169 442.744 171.643 443.27C171.117 443.796 170.404 444.093 169.66 444.096H124.34C123.596 444.093 122.883 443.796 122.357 443.27C121.831 442.744 121.534 442.031 121.531 441.287V436.651H136.409L138.927 441.012C138.995 441.151 139.1 441.268 139.231 441.35C139.361 441.432 139.512 441.475 139.666 441.475H154.334V441.473C154.477 441.473 154.618 441.435 154.743 441.364C154.867 441.292 154.971 441.188 155.043 441.064L157.591 436.651Z" fill="white"/>
<path d="M31.9055 528.972V517.172H27.2655V514.972H39.1455V517.172H34.5055V528.972H31.9055ZM40.8568 528.972V518.292H43.3568V528.972H40.8568ZM42.1168 516.532C41.6501 516.532 41.2635 516.386 40.9568 516.092C40.6635 515.799 40.5168 515.446 40.5168 515.032C40.5168 514.606 40.6635 514.252 40.9568 513.972C41.2635 513.679 41.6501 513.532 42.1168 513.532C42.5835 513.532 42.9635 513.672 43.2568 513.952C43.5635 514.219 43.7168 514.559 43.7168 514.972C43.7168 515.412 43.5701 515.786 43.2768 516.092C42.9835 516.386 42.5968 516.532 42.1168 516.532ZM51.658 529.112C50.4714 529.112 49.4314 528.879 48.538 528.412C47.658 527.932 46.9714 527.279 46.478 526.452C45.998 525.626 45.758 524.686 45.758 523.632C45.758 522.566 45.9914 521.626 46.458 520.812C46.938 519.986 47.5914 519.339 48.418 518.872C49.258 518.406 50.2114 518.172 51.278 518.172C52.318 518.172 53.2447 518.399 54.058 518.852C54.8714 519.306 55.5114 519.946 55.978 520.772C56.4447 521.599 56.678 522.572 56.678 523.692C56.678 523.799 56.6714 523.919 56.658 524.052C56.658 524.186 56.6514 524.312 56.638 524.432H47.738V522.772H55.318L54.338 523.292C54.3514 522.679 54.2247 522.139 53.958 521.672C53.6914 521.206 53.3247 520.839 52.858 520.572C52.4047 520.306 51.878 520.172 51.278 520.172C50.6647 520.172 50.1247 520.306 49.658 520.572C49.2047 520.839 48.8447 521.212 48.578 521.692C48.3247 522.159 48.198 522.712 48.198 523.352V523.752C48.198 524.392 48.3447 524.959 48.638 525.452C48.9314 525.946 49.3447 526.326 49.878 526.592C50.4114 526.859 51.0247 526.992 51.718 526.992C52.318 526.992 52.858 526.899 53.338 526.712C53.818 526.526 54.2447 526.232 54.618 525.832L55.958 527.372C55.478 527.932 54.8714 528.366 54.138 528.672C53.418 528.966 52.5914 529.112 51.658 529.112ZM59.0795 528.972V518.292H61.4595V521.232L61.1795 520.372C61.4995 519.652 61.9995 519.106 62.6795 518.732C63.3728 518.359 64.2328 518.172 65.2595 518.172V520.552C65.1528 520.526 65.0528 520.512 64.9595 520.512C64.8661 520.499 64.7728 520.492 64.6795 520.492C63.7328 520.492 62.9795 520.772 62.4195 521.332C61.8595 521.879 61.5795 522.699 61.5795 523.792V528.972H59.0795ZM72.3026 529.112C71.1159 529.112 70.0759 528.879 69.1826 528.412C68.3026 527.932 67.6159 527.279 67.1226 526.452C66.6426 525.626 66.4026 524.686 66.4026 523.632C66.4026 522.566 66.6359 521.626 67.1026 520.812C67.5826 519.986 68.2359 519.339 69.0626 518.872C69.9026 518.406 70.8559 518.172 71.9226 518.172C72.9626 518.172 73.8892 518.399 74.7026 518.852C75.5159 519.306 76.1559 519.946 76.6226 520.772C77.0892 521.599 77.3226 522.572 77.3226 523.692C77.3226 523.799 77.3159 523.919 77.3026 524.052C77.3026 524.186 77.2959 524.312 77.2826 524.432H68.3826V522.772H75.9626L74.9826 523.292C74.9959 522.679 74.8692 522.139 74.6026 521.672C74.3359 521.206 73.9692 520.839 73.5026 520.572C73.0492 520.306 72.5226 520.172 71.9226 520.172C71.3092 520.172 70.7692 520.306 70.3026 520.572C69.8492 520.839 69.4892 521.212 69.2226 521.692C68.9692 522.159 68.8426 522.712 68.8426 523.352V523.752C68.8426 524.392 68.9892 524.959 69.2826 525.452C69.5759 525.946 69.9892 526.326 70.5226 526.592C71.0559 526.859 71.6692 526.992 72.3626 526.992C72.9626 526.992 73.5026 526.899 73.9826 526.712C74.4626 526.526 74.8892 526.232 75.2626 525.832L76.6026 527.372C76.1226 527.932 75.5159 528.366 74.7826 528.672C74.0626 528.966 73.2359 529.112 72.3026 529.112ZM84.244 529.112C83.2173 529.112 82.2907 528.886 81.464 528.432C80.6507 527.966 80.0107 527.326 79.544 526.512C79.0773 525.699 78.844 524.739 78.844 523.632C78.844 522.526 79.0773 521.566 79.544 520.752C80.0107 519.939 80.6507 519.306 81.464 518.852C82.2907 518.399 83.2173 518.172 84.244 518.172C85.1373 518.172 85.9373 518.372 86.644 518.772C87.3507 519.159 87.9107 519.752 88.324 520.552C88.7373 521.352 88.944 522.379 88.944 523.632C88.944 524.872 88.744 525.899 88.344 526.712C87.944 527.512 87.3907 528.112 86.684 528.512C85.9773 528.912 85.164 529.112 84.244 529.112ZM84.544 526.972C85.144 526.972 85.6773 526.839 86.144 526.572C86.624 526.306 87.004 525.919 87.284 525.412C87.5773 524.906 87.724 524.312 87.724 523.632C87.724 522.939 87.5773 522.346 87.284 521.852C87.004 521.346 86.624 520.959 86.144 520.692C85.6773 520.426 85.144 520.292 84.544 520.292C83.944 520.292 83.404 520.426 82.924 520.692C82.4573 520.959 82.0773 521.346 81.784 521.852C81.504 522.346 81.364 522.939 81.364 523.632C81.364 524.312 81.504 524.906 81.784 525.412C82.0773 525.919 82.4573 526.306 82.924 526.572C83.404 526.839 83.944 526.972 84.544 526.972ZM87.784 528.972V526.452L87.884 523.612L87.684 520.772V514.132H90.164V528.972H87.784ZM99.2218 528.972V514.972H101.822V526.772H109.142V528.972H99.2218ZM115.657 529.112C114.563 529.112 113.59 528.879 112.737 528.412C111.883 527.932 111.21 527.279 110.717 526.452C110.223 525.626 109.977 524.686 109.977 523.632C109.977 522.566 110.223 521.626 110.717 520.812C111.21 519.986 111.883 519.339 112.737 518.872C113.59 518.406 114.563 518.172 115.657 518.172C116.763 518.172 117.743 518.406 118.597 518.872C119.463 519.339 120.137 519.979 120.617 520.792C121.11 521.606 121.357 522.552 121.357 523.632C121.357 524.686 121.11 525.626 120.617 526.452C120.137 527.279 119.463 527.932 118.597 528.412C117.743 528.879 116.763 529.112 115.657 529.112ZM115.657 526.972C116.27 526.972 116.817 526.839 117.297 526.572C117.777 526.306 118.15 525.919 118.417 525.412C118.697 524.906 118.837 524.312 118.837 523.632C118.837 522.939 118.697 522.346 118.417 521.852C118.15 521.346 117.777 520.959 117.297 520.692C116.817 520.426 116.277 520.292 115.677 520.292C115.063 520.292 114.517 520.426 114.037 520.692C113.57 520.959 113.197 521.346 112.917 521.852C112.637 522.346 112.497 522.939 112.497 523.632C112.497 524.312 112.637 524.906 112.917 525.412C113.197 525.919 113.57 526.306 114.037 526.572C114.517 526.839 115.057 526.972 115.657 526.972ZM124.334 532.992C123.814 532.992 123.294 532.906 122.774 532.732C122.254 532.559 121.821 532.319 121.474 532.012L122.474 530.172C122.728 530.399 123.014 530.579 123.334 530.712C123.654 530.846 123.981 530.912 124.314 530.912C124.768 530.912 125.134 530.799 125.414 530.572C125.694 530.346 125.954 529.966 126.194 529.432L126.814 528.032L127.014 527.732L131.054 518.292H133.454L128.454 529.832C128.121 530.632 127.748 531.266 127.334 531.732C126.934 532.199 126.481 532.526 125.974 532.712C125.481 532.899 124.934 532.992 124.334 532.992ZM126.534 529.352L121.714 518.292H124.314L128.234 527.512L126.534 529.352ZM141.265 528.972V526.812L141.125 526.352V522.572C141.125 521.839 140.905 521.272 140.465 520.872C140.025 520.459 139.358 520.252 138.465 520.252C137.865 520.252 137.272 520.346 136.685 520.532C136.112 520.719 135.625 520.979 135.225 521.312L134.245 519.492C134.818 519.052 135.498 518.726 136.285 518.512C137.085 518.286 137.912 518.172 138.765 518.172C140.312 518.172 141.505 518.546 142.345 519.292C143.198 520.026 143.625 521.166 143.625 522.712V528.972H141.265ZM137.905 529.112C137.105 529.112 136.405 528.979 135.805 528.712C135.205 528.432 134.738 528.052 134.405 527.572C134.085 527.079 133.925 526.526 133.925 525.912C133.925 525.312 134.065 524.772 134.345 524.292C134.638 523.812 135.112 523.432 135.765 523.152C136.418 522.872 137.285 522.732 138.365 522.732H141.465V524.392H138.545C137.692 524.392 137.118 524.532 136.825 524.812C136.532 525.079 136.385 525.412 136.385 525.812C136.385 526.266 136.565 526.626 136.925 526.892C137.285 527.159 137.785 527.292 138.425 527.292C139.038 527.292 139.585 527.152 140.065 526.872C140.558 526.592 140.912 526.179 141.125 525.632L141.545 527.132C141.305 527.759 140.872 528.246 140.245 528.592C139.632 528.939 138.852 529.112 137.905 529.112ZM146.833 528.972V514.132H149.333V528.972H146.833ZM157.162 529.112C155.989 529.112 155.082 528.812 154.442 528.212C153.802 527.599 153.482 526.699 153.482 525.512V515.932H155.982V525.452C155.982 525.959 156.109 526.352 156.362 526.632C156.629 526.912 156.995 527.052 157.462 527.052C158.022 527.052 158.489 526.906 158.862 526.612L159.562 528.392C159.269 528.632 158.909 528.812 158.482 528.932C158.055 529.052 157.615 529.112 157.162 529.112ZM151.722 520.372V518.372H158.842V520.372H151.722ZM162.303 532.992C161.783 532.992 161.263 532.906 160.743 532.732C160.223 532.559 159.79 532.319 159.443 532.012L160.443 530.172C160.697 530.399 160.983 530.579 161.303 530.712C161.623 530.846 161.95 530.912 162.283 530.912C162.737 530.912 163.103 530.799 163.383 530.572C163.663 530.346 163.923 529.966 164.163 529.432L164.783 528.032L164.983 527.732L169.023 518.292H171.423L166.423 529.832C166.09 530.632 165.717 531.266 165.303 531.732C164.903 532.199 164.45 532.526 163.943 532.712C163.45 532.899 162.903 532.992 162.303 532.992ZM164.503 529.352L159.683 518.292H162.283L166.203 527.512L164.503 529.352ZM178.753 528.972V514.972H184.513C185.753 514.972 186.813 515.172 187.693 515.572C188.586 515.972 189.273 516.546 189.753 517.292C190.233 518.039 190.473 518.926 190.473 519.952C190.473 520.979 190.233 521.866 189.753 522.612C189.273 523.359 188.586 523.932 187.693 524.332C186.813 524.732 185.753 524.932 184.513 524.932H180.193L181.353 523.712V528.972H178.753ZM181.353 523.992L180.193 522.732H184.393C185.54 522.732 186.4 522.492 186.973 522.012C187.56 521.519 187.853 520.832 187.853 519.952C187.853 519.059 187.56 518.372 186.973 517.892C186.4 517.412 185.54 517.172 184.393 517.172H180.193L181.353 515.892V523.992ZM192.732 528.972V518.292H195.112V521.232L194.832 520.372C195.152 519.652 195.652 519.106 196.332 518.732C197.025 518.359 197.885 518.172 198.912 518.172V520.552C198.805 520.526 198.705 520.512 198.612 520.512C198.518 520.499 198.425 520.492 198.332 520.492C197.385 520.492 196.632 520.772 196.072 521.332C195.512 521.879 195.232 522.699 195.232 523.792V528.972H192.732ZM205.735 529.112C204.642 529.112 203.668 528.879 202.815 528.412C201.962 527.932 201.288 527.279 200.795 526.452C200.302 525.626 200.055 524.686 200.055 523.632C200.055 522.566 200.302 521.626 200.795 520.812C201.288 519.986 201.962 519.339 202.815 518.872C203.668 518.406 204.642 518.172 205.735 518.172C206.842 518.172 207.822 518.406 208.675 518.872C209.542 519.339 210.215 519.979 210.695 520.792C211.188 521.606 211.435 522.552 211.435 523.632C211.435 524.686 211.188 525.626 210.695 526.452C210.215 527.279 209.542 527.932 208.675 528.412C207.822 528.879 206.842 529.112 205.735 529.112ZM205.735 526.972C206.348 526.972 206.895 526.839 207.375 526.572C207.855 526.306 208.228 525.919 208.495 525.412C208.775 524.906 208.915 524.312 208.915 523.632C208.915 522.939 208.775 522.346 208.495 521.852C208.228 521.346 207.855 520.959 207.375 520.692C206.895 520.426 206.355 520.292 205.755 520.292C205.142 520.292 204.595 520.426 204.115 520.692C203.648 520.959 203.275 521.346 202.995 521.852C202.715 522.346 202.575 522.939 202.575 523.632C202.575 524.312 202.715 524.906 202.995 525.412C203.275 525.919 203.648 526.306 204.115 526.572C204.595 526.839 205.135 526.972 205.735 526.972ZM218.666 532.992C217.679 532.992 216.712 532.859 215.766 532.592C214.832 532.339 214.066 531.966 213.466 531.472L214.586 529.592C215.052 529.979 215.639 530.286 216.346 530.512C217.066 530.752 217.792 530.872 218.526 530.872C219.699 530.872 220.559 530.599 221.106 530.052C221.652 529.519 221.926 528.712 221.926 527.632V525.732L222.126 523.312L222.046 520.892V518.292H224.426V527.352C224.426 529.286 223.932 530.706 222.946 531.612C221.959 532.532 220.532 532.992 218.666 532.992ZM218.346 528.492C217.332 528.492 216.412 528.279 215.586 527.852C214.772 527.412 214.126 526.806 213.646 526.032C213.179 525.259 212.946 524.352 212.946 523.312C212.946 522.286 213.179 521.386 213.646 520.612C214.126 519.839 214.772 519.239 215.586 518.812C216.412 518.386 217.332 518.172 218.346 518.172C219.252 518.172 220.066 518.352 220.786 518.712C221.506 519.072 222.079 519.632 222.506 520.392C222.946 521.152 223.166 522.126 223.166 523.312C223.166 524.499 222.946 525.479 222.506 526.252C222.079 527.012 221.506 527.579 220.786 527.952C220.066 528.312 219.252 528.492 218.346 528.492ZM218.726 526.372C219.352 526.372 219.912 526.246 220.406 525.992C220.899 525.726 221.279 525.366 221.546 524.912C221.826 524.446 221.966 523.912 221.966 523.312C221.966 522.712 221.826 522.186 221.546 521.732C221.279 521.266 220.899 520.912 220.406 520.672C219.912 520.419 219.352 520.292 218.726 520.292C218.099 520.292 217.532 520.419 217.026 520.672C216.532 520.912 216.146 521.266 215.866 521.732C215.599 522.186 215.466 522.712 215.466 523.312C215.466 523.912 215.599 524.446 215.866 524.912C216.146 525.366 216.532 525.726 217.026 525.992C217.532 526.246 218.099 526.372 218.726 526.372ZM227.712 528.972V518.292H230.092V521.232L229.812 520.372C230.132 519.652 230.632 519.106 231.312 518.732C232.006 518.359 232.866 518.172 233.892 518.172V520.552C233.786 520.526 233.686 520.512 233.592 520.512C233.499 520.499 233.406 520.492 233.312 520.492C232.366 520.492 231.612 520.772 231.052 521.332C230.492 521.879 230.212 522.699 230.212 523.792V528.972H227.712ZM241.831 528.972V526.812L241.691 526.352V522.572C241.691 521.839 241.471 521.272 241.031 520.872C240.591 520.459 239.925 520.252 239.031 520.252C238.431 520.252 237.838 520.346 237.251 520.532C236.678 520.719 236.191 520.979 235.791 521.312L234.811 519.492C235.385 519.052 236.065 518.726 236.851 518.512C237.651 518.286 238.478 518.172 239.331 518.172C240.878 518.172 242.071 518.546 242.911 519.292C243.765 520.026 244.191 521.166 244.191 522.712V528.972H241.831ZM238.471 529.112C237.671 529.112 236.971 528.979 236.371 528.712C235.771 528.432 235.305 528.052 234.971 527.572C234.651 527.079 234.491 526.526 234.491 525.912C234.491 525.312 234.631 524.772 234.911 524.292C235.205 523.812 235.678 523.432 236.331 523.152C236.985 522.872 237.851 522.732 238.931 522.732H242.031V524.392H239.111C238.258 524.392 237.685 524.532 237.391 524.812C237.098 525.079 236.951 525.412 236.951 525.812C236.951 526.266 237.131 526.626 237.491 526.892C237.851 527.159 238.351 527.292 238.991 527.292C239.605 527.292 240.151 527.152 240.631 526.872C241.125 526.592 241.478 526.179 241.691 525.632L242.111 527.132C241.871 527.759 241.438 528.246 240.811 528.592C240.198 528.939 239.418 529.112 238.471 529.112ZM260.88 518.172C261.733 518.172 262.486 518.339 263.14 518.672C263.806 519.006 264.326 519.519 264.7 520.212C265.073 520.892 265.26 521.772 265.26 522.852V528.972H262.76V523.172C262.76 522.226 262.553 521.519 262.14 521.052C261.726 520.586 261.133 520.352 260.36 520.352C259.813 520.352 259.326 520.472 258.9 520.712C258.486 520.952 258.16 521.306 257.92 521.772C257.693 522.239 257.58 522.832 257.58 523.552V528.972H255.08V523.172C255.08 522.226 254.873 521.519 254.46 521.052C254.046 520.586 253.453 520.352 252.68 520.352C252.133 520.352 251.646 520.472 251.22 520.712C250.806 520.952 250.48 521.306 250.24 521.772C250.013 522.239 249.9 522.832 249.9 523.552V528.972H247.4V518.292H249.78V521.132L249.36 520.292C249.72 519.599 250.24 519.072 250.92 518.712C251.613 518.352 252.4 518.172 253.28 518.172C254.28 518.172 255.146 518.419 255.88 518.912C256.626 519.406 257.12 520.152 257.36 521.152L256.38 520.812C256.726 520.012 257.3 519.372 258.1 518.892C258.9 518.412 259.826 518.172 260.88 518.172Z" fill="white"/>
<rect x="327" y="65.5234" width="294" height="278.24" rx="20" fill="#333247"/>
<g filter="url(#filter2_d_23_1869)">
<rect x="418.026" y="121.148" width="111.947" height="111.947" rx="55.9736" fill="#FBA45A"/>
</g>
<path fill-rule="evenodd" clip-rule="evenodd" d="M488.753 178.985L489.614 181.057C489.948 181.226 490.273 181.413 490.584 181.618L492.811 181.326C493.393 181.251 493.973 181.471 494.359 181.913C495.404 183.11 496.208 184.502 496.723 186.005C496.912 186.562 496.812 187.175 496.456 187.64C496.456 187.64 495.091 189.424 495.091 189.422C495.112 189.796 495.112 190.173 495.091 190.542L496.456 192.326C496.812 192.792 496.912 193.404 496.723 193.961C496.208 195.465 495.404 196.856 494.359 198.053C493.973 198.495 493.393 198.715 492.811 198.64L490.584 198.348C490.271 198.554 489.946 198.741 489.614 198.909L488.753 200.981C488.529 201.524 488.047 201.916 487.472 202.031C485.91 202.337 484.306 202.337 482.743 202.031C482.168 201.916 481.686 201.524 481.462 200.981L480.601 198.909C480.267 198.741 479.942 198.554 479.631 198.348L477.405 198.64C476.822 198.715 476.242 198.495 475.857 198.053C474.811 196.856 474.007 195.465 473.492 193.961C473.303 193.404 473.404 192.792 473.759 192.326C473.759 192.326 475.125 190.542 475.125 190.544C475.104 190.17 475.104 189.794 475.125 189.424L473.759 187.64C473.404 187.175 473.303 186.562 473.492 186.005C474.007 184.502 474.811 183.11 475.857 181.913C476.242 181.471 476.822 181.251 477.405 181.326L479.631 181.618C479.944 181.413 480.269 181.226 480.601 181.057L481.462 178.985C481.686 178.443 482.168 178.05 482.743 177.935C484.306 177.629 485.91 177.629 487.472 177.935C488.047 178.05 488.529 178.443 488.753 178.985ZM485.108 187.06C483.494 187.06 482.185 188.37 482.185 189.983C482.185 191.597 483.494 192.906 485.108 192.906C486.721 192.906 488.031 191.597 488.031 189.983C488.031 188.37 486.721 187.06 485.108 187.06Z" fill="white"/>
<path fill-rule="evenodd" clip-rule="evenodd" d="M479.484 202.26H457.614C455.907 202.26 454.272 201.582 453.066 200.378C451.859 199.171 451.183 197.534 451.183 195.829V158.414C451.183 156.709 451.859 155.072 453.066 153.865C454.272 152.661 455.907 151.983 457.614 151.983H477.69C478.777 151.983 479.818 152.413 480.585 153.183L490.907 163.505C491.674 164.272 492.107 165.312 492.107 166.397V179.06L491.358 179.158C491.138 178.627 490.914 178.087 490.914 178.087C490.388 176.822 489.265 175.905 487.921 175.641C486.064 175.276 484.151 175.276 482.294 175.641C480.95 175.905 479.827 176.822 479.301 178.087L478.857 179.158C478.289 179.083 477.709 179.009 477.709 179.009C476.35 178.831 474.994 179.343 474.093 180.374C472.849 181.803 471.893 183.456 471.28 185.25C470.836 186.543 471.07 187.977 471.902 189.062L472.608 189.983C472.26 190.439 471.902 190.904 471.902 190.904C471.07 191.99 470.836 193.423 471.28 194.716C471.893 196.51 472.849 198.163 474.093 199.592C474.994 200.623 476.35 201.135 477.709 200.958L478.857 200.808C479.077 201.339 479.301 201.879 479.301 201.879C479.357 202.01 479.418 202.136 479.484 202.26ZM477.491 155.116V164.26C477.491 165.551 478.536 166.598 479.83 166.598H488.973C488.858 166.346 488.697 166.114 488.498 165.913L478.176 155.591C477.975 155.39 477.744 155.231 477.491 155.116ZM459.953 167.139H470.476C471.444 167.139 472.23 166.353 472.23 165.385C472.23 164.417 471.444 163.631 470.476 163.631H459.953C458.984 163.631 458.199 164.417 458.199 165.385C458.199 166.353 458.984 167.139 459.953 167.139ZM459.953 191.737H468.137C469.105 191.737 469.891 190.951 469.891 189.983C469.891 189.015 469.105 188.229 468.137 188.229H459.953C458.984 188.229 458.199 189.015 458.199 189.983C458.199 190.951 458.984 191.737 459.953 191.737ZM459.953 183.552H468.137C469.105 183.552 469.891 182.767 469.891 181.798C469.891 180.83 469.105 180.045 468.137 180.045H459.953C458.984 180.045 458.199 180.83 458.199 181.798C458.199 182.767 458.984 183.552 459.953 183.552ZM459.953 175.368H476.322C477.29 175.368 478.076 174.582 478.076 173.614C478.076 172.646 477.29 171.86 476.322 171.86H459.953C458.984 171.86 458.199 172.646 458.199 173.614C458.199 174.582 458.984 175.368 459.953 175.368Z" fill="white"/>
<path d="M365.314 283.139V269.139H371.074C372.314 269.139 373.374 269.339 374.254 269.739C375.147 270.139 375.834 270.712 376.314 271.459C376.794 272.206 377.034 273.092 377.034 274.119C377.034 275.146 376.794 276.032 376.314 276.779C375.834 277.526 375.147 278.099 374.254 278.499C373.374 278.899 372.314 279.099 371.074 279.099H366.754L367.914 277.879V283.139H365.314ZM367.914 278.159L366.754 276.899H370.954C372.1 276.899 372.96 276.659 373.534 276.179C374.12 275.686 374.414 274.999 374.414 274.119C374.414 273.226 374.12 272.539 373.534 272.059C372.96 271.579 372.1 271.339 370.954 271.339H366.754L367.914 270.059V278.159ZM379.292 283.139V272.459H381.672V275.399L381.392 274.539C381.712 273.819 382.212 273.272 382.892 272.899C383.586 272.526 384.446 272.339 385.472 272.339V274.719C385.366 274.692 385.266 274.679 385.172 274.679C385.079 274.666 384.986 274.659 384.892 274.659C383.946 274.659 383.192 274.939 382.632 275.499C382.072 276.046 381.792 276.866 381.792 277.959V283.139H379.292ZM392.295 283.279C391.202 283.279 390.229 283.046 389.375 282.579C388.522 282.099 387.849 281.446 387.355 280.619C386.862 279.792 386.615 278.852 386.615 277.799C386.615 276.732 386.862 275.792 387.355 274.979C387.849 274.152 388.522 273.506 389.375 273.039C390.229 272.572 391.202 272.339 392.295 272.339C393.402 272.339 394.382 272.572 395.235 273.039C396.102 273.506 396.775 274.146 397.255 274.959C397.749 275.772 397.995 276.719 397.995 277.799C397.995 278.852 397.749 279.792 397.255 280.619C396.775 281.446 396.102 282.099 395.235 282.579C394.382 283.046 393.402 283.279 392.295 283.279ZM392.295 281.139C392.909 281.139 393.455 281.006 393.935 280.739C394.415 280.472 394.789 280.086 395.055 279.579C395.335 279.072 395.475 278.479 395.475 277.799C395.475 277.106 395.335 276.512 395.055 276.019C394.789 275.512 394.415 275.126 393.935 274.859C393.455 274.592 392.915 274.459 392.315 274.459C391.702 274.459 391.155 274.592 390.675 274.859C390.209 275.126 389.835 275.512 389.555 276.019C389.275 276.512 389.135 277.106 389.135 277.799C389.135 278.479 389.275 279.072 389.555 279.579C389.835 280.086 390.209 280.472 390.675 280.739C391.155 281.006 391.695 281.139 392.295 281.139ZM399.286 287.159C398.819 287.159 398.379 287.106 397.966 286.999C397.539 286.906 397.179 286.752 396.886 286.539L397.606 284.679C397.993 284.959 398.479 285.099 399.066 285.099C399.519 285.099 399.873 284.952 400.126 284.659C400.379 284.379 400.506 283.959 400.506 283.399V272.459H403.006V283.339C403.006 284.512 402.679 285.439 402.026 286.119C401.386 286.812 400.473 287.159 399.286 287.159ZM401.746 270.699C401.279 270.699 400.893 270.552 400.586 270.259C400.293 269.966 400.146 269.612 400.146 269.199C400.146 268.772 400.293 268.419 400.586 268.139C400.893 267.846 401.279 267.699 401.746 267.699C402.213 267.699 402.593 267.839 402.886 268.119C403.193 268.386 403.346 268.726 403.346 269.139C403.346 269.579 403.199 269.952 402.906 270.259C402.613 270.552 402.226 270.699 401.746 270.699ZM411.305 283.279C410.118 283.279 409.078 283.046 408.185 282.579C407.305 282.099 406.618 281.446 406.125 280.619C405.645 279.792 405.405 278.852 405.405 277.799C405.405 276.732 405.638 275.792 406.105 274.979C406.585 274.152 407.238 273.506 408.065 273.039C408.905 272.572 409.858 272.339 410.925 272.339C411.965 272.339 412.891 272.566 413.705 273.019C414.518 273.472 415.158 274.112 415.625 274.939C416.091 275.766 416.325 276.739 416.325 277.859C416.325 277.966 416.318 278.086 416.305 278.219C416.305 278.352 416.298 278.479 416.285 278.599H407.385V276.939H414.965L413.985 277.459C413.998 276.846 413.871 276.306 413.605 275.839C413.338 275.372 412.971 275.006 412.505 274.739C412.051 274.472 411.525 274.339 410.925 274.339C410.311 274.339 409.771 274.472 409.305 274.739C408.851 275.006 408.491 275.379 408.225 275.859C407.971 276.326 407.845 276.879 407.845 277.519V277.919C407.845 278.559 407.991 279.126 408.285 279.619C408.578 280.112 408.991 280.492 409.525 280.759C410.058 281.026 410.671 281.159 411.365 281.159C411.965 281.159 412.505 281.066 412.985 280.879C413.465 280.692 413.891 280.399 414.265 279.999L415.605 281.539C415.125 282.099 414.518 282.532 413.785 282.839C413.065 283.132 412.238 283.279 411.305 283.279ZM423.626 283.279C422.506 283.279 421.506 283.046 420.626 282.579C419.759 282.099 419.079 281.446 418.586 280.619C418.093 279.792 417.846 278.852 417.846 277.799C417.846 276.732 418.093 275.792 418.586 274.979C419.079 274.152 419.759 273.506 420.626 273.039C421.506 272.572 422.506 272.339 423.626 272.339C424.666 272.339 425.579 272.552 426.366 272.979C427.166 273.392 427.773 274.006 428.186 274.819L426.266 275.939C425.946 275.432 425.553 275.059 425.086 274.819C424.633 274.579 424.139 274.459 423.606 274.459C422.993 274.459 422.439 274.592 421.946 274.859C421.453 275.126 421.066 275.512 420.786 276.019C420.506 276.512 420.366 277.106 420.366 277.799C420.366 278.492 420.506 279.092 420.786 279.599C421.066 280.092 421.453 280.472 421.946 280.739C422.439 281.006 422.993 281.139 423.606 281.139C424.139 281.139 424.633 281.019 425.086 280.779C425.553 280.539 425.946 280.166 426.266 279.659L428.186 280.779C427.773 281.579 427.166 282.199 426.366 282.639C425.579 283.066 424.666 283.279 423.626 283.279ZM434.504 283.279C433.33 283.279 432.424 282.979 431.784 282.379C431.144 281.766 430.824 280.866 430.824 279.679V270.099H433.324V279.619C433.324 280.126 433.45 280.519 433.704 280.799C433.97 281.079 434.337 281.219 434.804 281.219C435.364 281.219 435.83 281.072 436.204 280.779L436.904 282.559C436.61 282.799 436.25 282.979 435.824 283.099C435.397 283.219 434.957 283.279 434.504 283.279ZM429.064 274.539V272.539H436.184V274.539H429.064ZM442.748 283.139L449.048 269.139H451.608L457.928 283.139H455.208L449.788 270.519H450.828L445.428 283.139H442.748ZM445.648 279.899L446.348 277.859H453.908L454.608 279.899H445.648ZM463.793 283.279C462.886 283.279 462.086 283.112 461.393 282.779C460.699 282.432 460.159 281.912 459.773 281.219C459.386 280.512 459.193 279.626 459.193 278.559V272.459H461.693V278.219C461.693 279.179 461.906 279.899 462.333 280.379C462.773 280.846 463.393 281.079 464.193 281.079C464.779 281.079 465.286 280.959 465.713 280.719C466.153 280.479 466.493 280.119 466.733 279.639C466.986 279.159 467.113 278.566 467.113 277.859V272.459H469.613V283.139H467.233V280.259L467.653 281.139C467.293 281.832 466.766 282.366 466.073 282.739C465.379 283.099 464.619 283.279 463.793 283.279ZM477.406 283.279C476.379 283.279 475.453 283.052 474.626 282.599C473.813 282.132 473.173 281.492 472.706 280.679C472.239 279.866 472.006 278.906 472.006 277.799C472.006 276.692 472.239 275.732 472.706 274.919C473.173 274.106 473.813 273.472 474.626 273.019C475.453 272.566 476.379 272.339 477.406 272.339C478.299 272.339 479.099 272.539 479.806 272.939C480.513 273.326 481.073 273.919 481.486 274.719C481.899 275.519 482.106 276.546 482.106 277.799C482.106 279.039 481.906 280.066 481.506 280.879C481.106 281.679 480.553 282.279 479.846 282.679C479.139 283.079 478.326 283.279 477.406 283.279ZM477.706 281.139C478.306 281.139 478.839 281.006 479.306 280.739C479.786 280.472 480.166 280.086 480.446 279.579C480.739 279.072 480.886 278.479 480.886 277.799C480.886 277.106 480.739 276.512 480.446 276.019C480.166 275.512 479.786 275.126 479.306 274.859C478.839 274.592 478.306 274.459 477.706 274.459C477.106 274.459 476.566 274.592 476.086 274.859C475.619 275.126 475.239 275.512 474.946 276.019C474.666 276.512 474.526 277.106 474.526 277.799C474.526 278.479 474.666 279.072 474.946 279.579C475.239 280.086 475.619 280.472 476.086 280.739C476.566 281.006 477.106 281.139 477.706 281.139ZM480.946 283.139V280.619L481.046 277.779L480.846 274.939V268.299H483.326V283.139H480.946ZM486.617 283.139V272.459H489.117V283.139H486.617ZM487.877 270.699C487.41 270.699 487.023 270.552 486.717 270.259C486.423 269.966 486.277 269.612 486.277 269.199C486.277 268.772 486.423 268.419 486.717 268.139C487.023 267.846 487.41 267.699 487.877 267.699C488.343 267.699 488.723 267.839 489.017 268.119C489.323 268.386 489.477 268.726 489.477 269.139C489.477 269.579 489.33 269.952 489.037 270.259C488.743 270.552 488.357 270.699 487.877 270.699ZM496.418 283.279C495.244 283.279 494.338 282.979 493.698 282.379C493.058 281.766 492.738 280.866 492.738 279.679V270.099H495.238V279.619C495.238 280.126 495.364 280.519 495.618 280.799C495.884 281.079 496.251 281.219 496.718 281.219C497.278 281.219 497.744 281.072 498.118 280.779L498.818 282.559C498.524 282.799 498.164 282.979 497.738 283.099C497.311 283.219 496.871 283.279 496.418 283.279ZM490.978 274.539V272.539H498.098V274.539H490.978ZM506.642 283.139V269.139H512.402C513.642 269.139 514.702 269.339 515.582 269.739C516.475 270.139 517.162 270.712 517.642 271.459C518.122 272.206 518.362 273.092 518.362 274.119C518.362 275.146 518.122 276.032 517.642 276.779C517.162 277.526 516.475 278.099 515.582 278.499C514.702 278.899 513.642 279.099 512.402 279.099H508.082L509.242 277.879V283.139H506.642ZM509.242 278.159L508.082 276.899H512.282C513.428 276.899 514.288 276.659 514.862 276.179C515.448 275.686 515.742 274.999 515.742 274.119C515.742 273.226 515.448 272.539 514.862 272.059C514.288 271.579 513.428 271.339 512.282 271.339H508.082L509.242 270.059V278.159ZM520.62 283.139V272.459H523V275.399L522.72 274.539C523.04 273.819 523.54 273.272 524.22 272.899C524.914 272.526 525.774 272.339 526.8 272.339V274.719C526.694 274.692 526.594 274.679 526.5 274.679C526.407 274.666 526.314 274.659 526.22 274.659C525.274 274.659 524.52 274.939 523.96 275.499C523.4 276.046 523.12 276.866 523.12 277.959V283.139H520.62ZM533.624 283.279C532.53 283.279 531.557 283.046 530.704 282.579C529.85 282.099 529.177 281.446 528.684 280.619C528.19 279.792 527.944 278.852 527.944 277.799C527.944 276.732 528.19 275.792 528.684 274.979C529.177 274.152 529.85 273.506 530.704 273.039C531.557 272.572 532.53 272.339 533.624 272.339C534.73 272.339 535.71 272.572 536.564 273.039C537.43 273.506 538.104 274.146 538.584 274.959C539.077 275.772 539.324 276.719 539.324 277.799C539.324 278.852 539.077 279.792 538.584 280.619C538.104 281.446 537.43 282.099 536.564 282.579C535.71 283.046 534.73 283.279 533.624 283.279ZM533.624 281.139C534.237 281.139 534.784 281.006 535.264 280.739C535.744 280.472 536.117 280.086 536.384 279.579C536.664 279.072 536.804 278.479 536.804 277.799C536.804 277.106 536.664 276.512 536.384 276.019C536.117 275.512 535.744 275.126 535.264 274.859C534.784 274.592 534.244 274.459 533.644 274.459C533.03 274.459 532.484 274.592 532.004 274.859C531.537 275.126 531.164 275.512 530.884 276.019C530.604 276.512 530.464 277.106 530.464 277.799C530.464 278.479 530.604 279.072 530.884 279.579C531.164 280.086 531.537 280.472 532.004 280.739C532.484 281.006 533.024 281.139 533.624 281.139ZM546.614 283.279C545.494 283.279 544.494 283.046 543.614 282.579C542.748 282.099 542.068 281.446 541.574 280.619C541.081 279.792 540.834 278.852 540.834 277.799C540.834 276.732 541.081 275.792 541.574 274.979C542.068 274.152 542.748 273.506 543.614 273.039C544.494 272.572 545.494 272.339 546.614 272.339C547.654 272.339 548.568 272.552 549.354 272.979C550.154 273.392 550.761 274.006 551.174 274.819L549.254 275.939C548.934 275.432 548.541 275.059 548.074 274.819C547.621 274.579 547.128 274.459 546.594 274.459C545.981 274.459 545.428 274.592 544.934 274.859C544.441 275.126 544.054 275.512 543.774 276.019C543.494 276.512 543.354 277.106 543.354 277.799C543.354 278.492 543.494 279.092 543.774 279.599C544.054 280.092 544.441 280.472 544.934 280.739C545.428 281.006 545.981 281.139 546.594 281.139C547.128 281.139 547.621 281.019 548.074 280.779C548.541 280.539 548.934 280.166 549.254 279.659L551.174 280.779C550.761 281.579 550.154 282.199 549.354 282.639C548.568 283.066 547.654 283.279 546.614 283.279ZM558.199 283.279C557.012 283.279 555.972 283.046 555.079 282.579C554.199 282.099 553.512 281.446 553.019 280.619C552.539 279.792 552.299 278.852 552.299 277.799C552.299 276.732 552.532 275.792 552.999 274.979C553.479 274.152 554.132 273.506 554.959 273.039C555.799 272.572 556.752 272.339 557.819 272.339C558.859 272.339 559.786 272.566 560.599 273.019C561.412 273.472 562.052 274.112 562.519 274.939C562.986 275.766 563.219 276.739 563.219 277.859C563.219 277.966 563.212 278.086 563.199 278.219C563.199 278.352 563.192 278.479 563.179 278.599H554.279V276.939H561.859L560.879 277.459C560.892 276.846 560.766 276.306 560.499 275.839C560.232 275.372 559.866 275.006 559.399 274.739C558.946 274.472 558.419 274.339 557.819 274.339C557.206 274.339 556.666 274.472 556.199 274.739C555.746 275.006 555.386 275.379 555.119 275.859C554.866 276.326 554.739 276.879 554.739 277.519V277.919C554.739 278.559 554.886 279.126 555.179 279.619C555.472 280.112 555.886 280.492 556.419 280.759C556.952 281.026 557.566 281.159 558.259 281.159C558.859 281.159 559.399 281.066 559.879 280.879C560.359 280.692 560.786 280.399 561.159 279.999L562.499 281.539C562.019 282.099 561.412 282.532 560.679 282.839C559.959 283.132 559.132 283.279 558.199 283.279ZM568.92 283.279C568.027 283.279 567.167 283.166 566.34 282.939C565.527 282.699 564.88 282.412 564.4 282.079L565.36 280.179C565.84 280.486 566.414 280.739 567.08 280.939C567.747 281.139 568.414 281.239 569.08 281.239C569.867 281.239 570.434 281.132 570.78 280.919C571.14 280.706 571.32 280.419 571.32 280.059C571.32 279.766 571.2 279.546 570.96 279.399C570.72 279.239 570.407 279.119 570.02 279.039C569.634 278.959 569.2 278.886 568.72 278.819C568.254 278.752 567.78 278.666 567.3 278.559C566.834 278.439 566.407 278.272 566.02 278.059C565.634 277.832 565.32 277.532 565.08 277.159C564.84 276.786 564.72 276.292 564.72 275.679C564.72 274.999 564.914 274.412 565.3 273.919C565.687 273.412 566.227 273.026 566.92 272.759C567.627 272.479 568.46 272.339 569.42 272.339C570.14 272.339 570.867 272.419 571.6 272.579C572.334 272.739 572.94 272.966 573.42 273.259L572.46 275.159C571.954 274.852 571.44 274.646 570.92 274.539C570.414 274.419 569.907 274.359 569.4 274.359C568.64 274.359 568.074 274.472 567.7 274.699C567.34 274.926 567.16 275.212 567.16 275.559C567.16 275.879 567.28 276.119 567.52 276.279C567.76 276.439 568.074 276.566 568.46 276.659C568.847 276.752 569.274 276.832 569.74 276.899C570.22 276.952 570.694 277.039 571.16 277.159C571.627 277.279 572.054 277.446 572.44 277.659C572.84 277.859 573.16 278.146 573.4 278.519C573.64 278.892 573.76 279.379 573.76 279.979C573.76 280.646 573.56 281.226 573.16 281.719C572.774 282.212 572.22 282.599 571.5 282.879C570.78 283.146 569.92 283.279 568.92 283.279ZM579.213 283.279C578.32 283.279 577.46 283.166 576.633 282.939C575.82 282.699 575.173 282.412 574.693 282.079L575.653 280.179C576.133 280.486 576.707 280.739 577.373 280.939C578.04 281.139 578.707 281.239 579.373 281.239C580.16 281.239 580.727 281.132 581.073 280.919C581.433 280.706 581.613 280.419 581.613 280.059C581.613 279.766 581.493 279.546 581.253 279.399C581.013 279.239 580.7 279.119 580.313 279.039C579.927 278.959 579.493 278.886 579.013 278.819C578.547 278.752 578.073 278.666 577.593 278.559C577.127 278.439 576.7 278.272 576.313 278.059C575.927 277.832 575.613 277.532 575.373 277.159C575.133 276.786 575.013 276.292 575.013 275.679C575.013 274.999 575.207 274.412 575.593 273.919C575.98 273.412 576.52 273.026 577.213 272.759C577.92 272.479 578.753 272.339 579.713 272.339C580.433 272.339 581.16 272.419 581.893 272.579C582.627 272.739 583.233 272.966 583.713 273.259L582.753 275.159C582.247 274.852 581.733 274.646 581.213 274.539C580.707 274.419 580.2 274.359 579.693 274.359C578.933 274.359 578.367 274.472 577.993 274.699C577.633 274.926 577.453 275.212 577.453 275.559C577.453 275.879 577.573 276.119 577.813 276.279C578.053 276.439 578.367 276.566 578.753 276.659C579.14 276.752 579.567 276.832 580.033 276.899C580.513 276.952 580.987 277.039 581.453 277.159C581.92 277.279 582.347 277.446 582.733 277.659C583.133 277.859 583.453 278.146 583.693 278.519C583.933 278.892 584.053 279.379 584.053 279.979C584.053 280.646 583.853 281.226 583.453 281.719C583.067 282.212 582.513 282.599 581.793 282.879C581.073 283.146 580.213 283.279 579.213 283.279Z" fill="white"/>
<rect x="327" y="376.356" width="294" height="278.24" rx="20" fill="#333247"/>
<g filter="url(#filter3_d_23_1869)">
<rect x="418.026" y="431.981" width="111.947" height="111.947" rx="55.9736" fill="#6271FF"/>
</g>
<path d="M491.969 483.436C491.526 483.436 491.169 483.792 491.169 484.235V492.301C491.169 492.744 491.536 493.101 491.989 493.101C492.48 493.101 492.817 492.725 492.817 492.301V484.235C492.817 483.792 492.461 483.436 492.017 483.436C491.998 483.436 491.979 483.436 491.969 483.436Z" fill="white"/>
<path d="M479.086 471.381L486.072 475.419C486.457 475.64 486.949 475.505 487.161 475.12C487.431 474.638 487.238 474.185 486.891 473.992L479.905 469.955C479.519 469.733 479.037 469.868 478.816 470.244C478.546 470.735 478.739 471.188 479.086 471.381Z" fill="white"/>
<path d="M473.178 500.473V502.679C473.178 503.123 473.535 503.479 473.978 503.479C473.998 503.479 474.007 503.479 474.026 503.479C474.47 503.479 474.826 503.123 474.826 502.679V500.473C474.826 500.068 474.518 499.673 473.978 499.673C473.535 499.673 473.178 500.029 473.178 500.473Z" fill="white"/>
<path d="M485.812 496.03L486.072 496.185C486.457 496.406 486.939 496.271 487.161 495.896C487.17 495.886 487.18 495.867 487.18 495.857C487.402 495.472 487.276 494.99 486.891 494.768L486.602 494.604C486.101 494.315 485.407 494.624 485.407 495.346C485.407 495.626 485.561 495.886 485.812 496.03Z" fill="white"/>
<path d="M474.826 476.054V473.848C474.826 473.424 474.489 473.048 473.998 473.048C473.554 473.048 473.188 473.395 473.188 473.848V476.054C473.188 476.459 473.496 476.854 474.036 476.854C474.46 476.854 474.826 476.498 474.826 476.054Z" fill="white"/>
<path d="M486.611 481.933L486.901 481.769C487.267 481.557 487.421 481.075 487.18 480.651C486.958 480.266 486.467 480.121 486.081 480.343L485.821 480.497C485.571 480.641 485.426 480.902 485.426 481.191C485.407 481.913 486.11 482.222 486.611 481.933Z" fill="white"/>
<path d="M486.072 501.109L479.086 505.146C478.7 505.368 478.575 505.859 478.796 506.235C479.076 506.707 479.567 506.765 479.914 506.563L486.901 502.525C487.286 502.304 487.411 501.812 487.19 501.436C486.91 500.964 486.419 500.906 486.072 501.109Z" fill="white"/>
<path d="M461.923 475.418L468.91 471.381C469.295 471.159 469.42 470.668 469.199 470.292C468.919 469.82 468.428 469.762 468.081 469.964L461.095 474.002C460.709 474.224 460.584 474.715 460.806 475.091C461.085 475.563 461.576 475.621 461.923 475.418Z" fill="white"/>
<path d="M455.987 483.436C455.544 483.436 455.188 483.792 455.188 484.235V492.301C455.188 492.744 455.554 493.101 455.997 493.101C456.488 493.101 456.826 492.725 456.826 492.301V484.235C456.826 483.792 456.469 483.436 456.026 483.436C456.016 483.436 455.997 483.436 455.987 483.436Z" fill="white"/>
<path d="M468.919 505.146L461.933 501.109C461.547 500.887 461.056 501.022 460.844 501.407C460.574 501.889 460.767 502.342 461.114 502.535L468.1 506.572C468.486 506.794 468.967 506.659 469.189 506.283C469.459 505.792 469.257 505.339 468.919 505.146Z" fill="white"/>
<path d="M461.923 480.342C461.557 480.13 461.066 480.236 460.815 480.66C460.594 481.046 460.709 481.537 461.095 481.768L461.384 481.932C461.885 482.221 462.579 481.903 462.579 481.19C462.579 480.901 462.424 480.641 462.183 480.497L461.923 480.342Z" fill="white"/>
<path d="M460.834 495.886C461.056 496.271 461.538 496.397 461.923 496.175L462.183 496.021C462.434 495.876 462.579 495.616 462.579 495.327C462.579 494.595 461.885 494.296 461.384 494.585L461.095 494.749C460.709 494.971 460.584 495.462 460.806 495.838C460.825 495.857 460.825 495.876 460.834 495.886Z" fill="white"/>
<path d="M493.935 495.26C492.066 494.18 489.676 494.826 488.597 496.686C487.517 498.546 488.163 500.945 490.023 502.024C491.902 503.104 494.292 502.448 495.361 500.598C496.44 498.729 495.795 496.339 493.935 495.26Z" fill="white"/>
<path d="M454.07 481.268C455.949 482.347 458.339 481.692 459.408 479.841C460.488 477.972 459.842 475.582 457.982 474.503C456.122 473.424 453.713 474.06 452.634 475.929C451.555 477.799 452.2 480.188 454.07 481.268Z" fill="white"/>
<path d="M454.07 495.259C452.2 496.339 451.564 498.728 452.644 500.598C453.366 501.851 454.686 502.554 456.036 502.554C459.023 502.554 460.911 499.297 459.408 496.695C458.329 494.826 455.93 494.19 454.07 495.259Z" fill="white"/>
<path d="M491.989 481.788C494.976 481.788 496.864 478.531 495.361 475.929C494.282 474.06 491.892 473.424 490.023 474.503C488.153 475.582 487.517 477.972 488.597 479.841C489.319 481.085 490.639 481.788 491.989 481.788Z" fill="white"/>
<path d="M474.624 512.883C476.752 512.537 478.197 510.533 477.852 508.405C477.506 506.278 475.502 504.833 473.374 505.178C471.246 505.523 469.802 507.528 470.147 509.656C470.492 511.783 472.497 513.228 474.624 512.883Z" fill="white"/>
<path d="M477.602 468.995C478.427 467.003 477.481 464.72 475.49 463.895C473.499 463.071 471.216 464.016 470.391 466.008C469.566 467.999 470.512 470.282 472.503 471.107C474.494 471.932 476.777 470.986 477.602 468.995Z" fill="white"/>
<path d="M473.207 488.803H474.528L473.863 487.406L473.207 488.803Z" fill="white"/>
<path d="M468.187 486.683H467.657V489.853H468.187C469.064 489.853 469.777 489.14 469.777 488.263C469.767 487.396 469.064 486.683 468.187 486.683Z" fill="white"/>
<path d="M479.288 486.683C478.7 486.683 478.228 487.155 478.228 487.743V488.803C478.228 489.391 478.7 489.863 479.288 489.863C479.876 489.863 480.348 489.391 480.348 488.803V487.743C480.348 487.155 479.876 486.683 479.288 486.683Z" fill="white"/>
<path d="M483.769 495.558V480.969C483.769 479.61 482.661 478.502 481.302 478.502H466.703C465.344 478.502 464.236 479.61 464.236 480.969V495.568C464.236 496.927 465.344 498.035 466.703 498.035H481.302C482.661 498.025 483.769 496.917 483.769 495.558ZM468.187 490.913H467.127C466.838 490.913 466.597 490.673 466.597 490.383V486.153C466.597 485.864 466.838 485.623 467.127 485.623H468.187C469.652 485.623 470.827 486.808 470.827 488.264C470.827 489.738 469.642 490.913 468.187 490.913ZM475.857 490.913C475.655 490.913 475.462 490.798 475.376 490.615L475.019 489.863H472.716L472.359 490.615C472.234 490.865 471.926 490.981 471.666 490.865C471.396 490.75 471.28 490.432 471.396 490.162L473.381 485.932C473.429 485.816 473.525 485.729 473.631 485.681C473.892 485.556 474.21 485.671 474.335 485.932L476.32 490.162C476.349 490.229 476.368 490.306 476.368 490.383C476.378 490.682 476.146 490.913 475.857 490.913ZM479.288 490.913C478.122 490.913 477.168 489.969 477.168 488.794V487.734C477.168 486.568 478.112 485.614 479.288 485.614C480.454 485.614 481.408 486.558 481.408 487.734V488.794C481.408 489.969 480.464 490.913 479.288 490.913Z" fill="white"/>
<path d="M387.884 593.972V579.972H394.004C395.524 579.972 396.857 580.266 398.004 580.852C399.151 581.439 400.044 582.252 400.684 583.292C401.324 584.332 401.644 585.559 401.644 586.972C401.644 588.372 401.324 589.599 400.684 590.652C400.044 591.692 399.151 592.506 398.004 593.092C396.857 593.679 395.524 593.972 394.004 593.972H387.884ZM390.484 591.772H393.884C394.937 591.772 395.844 591.572 396.604 591.172C397.377 590.772 397.971 590.212 398.384 589.492C398.811 588.772 399.024 587.932 399.024 586.972C399.024 585.999 398.811 585.159 398.384 584.452C397.971 583.732 397.377 583.172 396.604 582.772C395.844 582.372 394.937 582.172 393.884 582.172H390.484V591.772ZM402.232 593.972L408.532 579.972H411.092L417.412 593.972H414.692L409.272 581.352H410.312L404.912 593.972H402.232ZM405.132 590.732L405.832 588.692H413.392L414.092 590.732H405.132ZM425.557 594.172C424.464 594.172 423.457 593.992 422.537 593.632C421.617 593.272 420.817 592.772 420.137 592.132C419.457 591.479 418.931 590.719 418.557 589.852C418.184 588.972 417.997 588.012 417.997 586.972C417.997 585.932 418.184 584.979 418.557 584.112C418.931 583.232 419.457 582.472 420.137 581.832C420.817 581.179 421.617 580.672 422.537 580.312C423.457 579.952 424.457 579.772 425.537 579.772C426.631 579.772 427.631 579.952 428.537 580.312C429.457 580.672 430.257 581.179 430.937 581.832C431.617 582.472 432.144 583.232 432.517 584.112C432.891 584.979 433.077 585.932 433.077 586.972C433.077 588.012 432.891 588.972 432.517 589.852C432.144 590.732 431.617 591.492 430.937 592.132C430.257 592.772 429.457 593.272 428.537 593.632C427.631 593.992 426.637 594.172 425.557 594.172ZM425.537 591.892C426.244 591.892 426.897 591.772 427.497 591.532C428.097 591.292 428.617 590.952 429.057 590.512C429.497 590.059 429.837 589.539 430.077 588.952C430.331 588.352 430.457 587.692 430.457 586.972C430.457 586.252 430.331 585.599 430.077 585.012C429.837 584.412 429.497 583.892 429.057 583.452C428.617 582.999 428.097 582.652 427.497 582.412C426.897 582.172 426.244 582.052 425.537 582.052C424.831 582.052 424.177 582.172 423.577 582.412C422.991 582.652 422.471 582.999 422.017 583.452C421.577 583.892 421.231 584.412 420.977 585.012C420.737 585.599 420.617 586.252 420.617 586.972C420.617 587.679 420.737 588.332 420.977 588.932C421.231 589.532 421.577 590.059 422.017 590.512C422.457 590.952 422.977 591.292 423.577 591.532C424.177 591.772 424.831 591.892 425.537 591.892ZM447.9 594.172C446.807 594.172 445.8 593.999 444.88 593.652C443.974 593.292 443.18 592.792 442.5 592.152C441.82 591.499 441.294 590.732 440.92 589.852C440.547 588.972 440.36 588.012 440.36 586.972C440.36 585.932 440.547 584.972 440.92 584.092C441.294 583.212 441.82 582.452 442.5 581.812C443.194 581.159 444 580.659 444.92 580.312C445.84 579.952 446.847 579.772 447.94 579.772C449.127 579.772 450.194 579.966 451.14 580.352C452.1 580.739 452.907 581.306 453.56 582.052L451.92 583.652C451.374 583.106 450.78 582.706 450.14 582.452C449.514 582.186 448.82 582.052 448.06 582.052C447.327 582.052 446.647 582.172 446.02 582.412C445.394 582.652 444.854 582.992 444.4 583.432C443.947 583.872 443.594 584.392 443.34 584.992C443.1 585.592 442.98 586.252 442.98 586.972C442.98 587.679 443.1 588.332 443.34 588.932C443.594 589.532 443.947 590.059 444.4 590.512C444.854 590.952 445.387 591.292 446 591.532C446.614 591.772 447.294 591.892 448.04 591.892C448.734 591.892 449.4 591.786 450.04 591.572C450.694 591.346 451.314 590.972 451.9 590.452L453.38 592.392C452.647 592.979 451.794 593.426 450.82 593.732C449.86 594.026 448.887 594.172 447.9 594.172ZM450.92 592.052V586.812H453.38V592.392L450.92 592.052ZM461.37 594.112C460.276 594.112 459.303 593.879 458.45 593.412C457.596 592.932 456.923 592.279 456.43 591.452C455.936 590.626 455.69 589.686 455.69 588.632C455.69 587.566 455.936 586.626 456.43 585.812C456.923 584.986 457.596 584.339 458.45 583.872C459.303 583.406 460.276 583.172 461.37 583.172C462.476 583.172 463.456 583.406 464.31 583.872C465.176 584.339 465.85 584.979 466.33 585.792C466.823 586.606 467.07 587.552 467.07 588.632C467.07 589.686 466.823 590.626 466.33 591.452C465.85 592.279 465.176 592.932 464.31 593.412C463.456 593.879 462.476 594.112 461.37 594.112ZM461.37 591.972C461.983 591.972 462.53 591.839 463.01 591.572C463.49 591.306 463.863 590.919 464.13 590.412C464.41 589.906 464.55 589.312 464.55 588.632C464.55 587.939 464.41 587.346 464.13 586.852C463.863 586.346 463.49 585.959 463.01 585.692C462.53 585.426 461.99 585.292 461.39 585.292C460.776 585.292 460.23 585.426 459.75 585.692C459.283 585.959 458.91 586.346 458.63 586.852C458.35 587.346 458.21 587.939 458.21 588.632C458.21 589.312 458.35 589.906 458.63 590.412C458.91 590.919 459.283 591.306 459.75 591.572C460.23 591.839 460.77 591.972 461.37 591.972ZM472.007 593.972L467.427 583.292H470.027L473.967 592.712H472.687L476.767 583.292H479.167L474.587 593.972H472.007ZM485.457 594.112C484.27 594.112 483.23 593.879 482.337 593.412C481.457 592.932 480.77 592.279 480.277 591.452C479.797 590.626 479.557 589.686 479.557 588.632C479.557 587.566 479.79 586.626 480.257 585.812C480.737 584.986 481.39 584.339 482.217 583.872C483.057 583.406 484.01 583.172 485.077 583.172C486.117 583.172 487.044 583.399 487.857 583.852C488.67 584.306 489.31 584.946 489.777 585.772C490.244 586.599 490.477 587.572 490.477 588.692C490.477 588.799 490.47 588.919 490.457 589.052C490.457 589.186 490.45 589.312 490.437 589.432H481.537V587.772H489.117L488.137 588.292C488.15 587.679 488.024 587.139 487.757 586.672C487.49 586.206 487.124 585.839 486.657 585.572C486.204 585.306 485.677 585.172 485.077 585.172C484.464 585.172 483.924 585.306 483.457 585.572C483.004 585.839 482.644 586.212 482.377 586.692C482.124 587.159 481.997 587.712 481.997 588.352V588.752C481.997 589.392 482.144 589.959 482.437 590.452C482.73 590.946 483.144 591.326 483.677 591.592C484.21 591.859 484.824 591.992 485.517 591.992C486.117 591.992 486.657 591.899 487.137 591.712C487.617 591.526 488.044 591.232 488.417 590.832L489.757 592.372C489.277 592.932 488.67 593.366 487.937 593.672C487.217 593.966 486.39 594.112 485.457 594.112ZM492.878 593.972V583.292H495.258V586.232L494.978 585.372C495.298 584.652 495.798 584.106 496.478 583.732C497.172 583.359 498.032 583.172 499.058 583.172V585.552C498.952 585.526 498.852 585.512 498.758 585.512C498.665 585.499 498.572 585.492 498.478 585.492C497.532 585.492 496.778 585.772 496.218 586.332C495.658 586.879 495.378 587.699 495.378 588.792V593.972H492.878ZM507.239 583.172C508.092 583.172 508.852 583.339 509.519 583.672C510.199 584.006 510.732 584.519 511.119 585.212C511.506 585.892 511.699 586.772 511.699 587.852V593.972H509.199V588.172C509.199 587.226 508.972 586.519 508.519 586.052C508.079 585.586 507.459 585.352 506.659 585.352C506.072 585.352 505.552 585.472 505.099 585.712C504.646 585.952 504.292 586.312 504.039 586.792C503.799 587.259 503.679 587.852 503.679 588.572V593.972H501.179V583.292H503.559V586.172L503.139 585.292C503.512 584.612 504.052 584.092 504.759 583.732C505.479 583.359 506.306 583.172 507.239 583.172ZM521.45 593.972V591.812L521.31 591.352V587.572C521.31 586.839 521.09 586.272 520.65 585.872C520.21 585.459 519.544 585.252 518.65 585.252C518.05 585.252 517.457 585.346 516.87 585.532C516.297 585.719 515.81 585.979 515.41 586.312L514.43 584.492C515.004 584.052 515.684 583.726 516.47 583.512C517.27 583.286 518.097 583.172 518.95 583.172C520.497 583.172 521.69 583.546 522.53 584.292C523.384 585.026 523.81 586.166 523.81 587.712V593.972H521.45ZM518.09 594.112C517.29 594.112 516.59 593.979 515.99 593.712C515.39 593.432 514.924 593.052 514.59 592.572C514.27 592.079 514.11 591.526 514.11 590.912C514.11 590.312 514.25 589.772 514.53 589.292C514.824 588.812 515.297 588.432 515.95 588.152C516.604 587.872 517.47 587.732 518.55 587.732H521.65V589.392H518.73C517.877 589.392 517.304 589.532 517.01 589.812C516.717 590.079 516.57 590.412 516.57 590.812C516.57 591.266 516.75 591.626 517.11 591.892C517.47 592.159 517.97 592.292 518.61 592.292C519.224 592.292 519.77 592.152 520.25 591.872C520.744 591.592 521.097 591.179 521.31 590.632L521.73 592.132C521.49 592.759 521.057 593.246 520.43 593.592C519.817 593.939 519.037 594.112 518.09 594.112ZM533.079 583.172C533.932 583.172 534.692 583.339 535.359 583.672C536.039 584.006 536.572 584.519 536.959 585.212C537.346 585.892 537.539 586.772 537.539 587.852V593.972H535.039V588.172C535.039 587.226 534.812 586.519 534.359 586.052C533.919 585.586 533.299 585.352 532.499 585.352C531.912 585.352 531.392 585.472 530.939 585.712C530.486 585.952 530.132 586.312 529.879 586.792C529.639 587.259 529.519 587.852 529.519 588.572V593.972H527.019V583.292H529.399V586.172L528.979 585.292C529.352 584.612 529.892 584.092 530.599 583.732C531.319 583.359 532.146 583.172 533.079 583.172ZM545.63 594.112C544.51 594.112 543.51 593.879 542.63 593.412C541.763 592.932 541.083 592.279 540.59 591.452C540.097 590.626 539.85 589.686 539.85 588.632C539.85 587.566 540.097 586.626 540.59 585.812C541.083 584.986 541.763 584.339 542.63 583.872C543.51 583.406 544.51 583.172 545.63 583.172C546.67 583.172 547.583 583.386 548.37 583.812C549.17 584.226 549.777 584.839 550.19 585.652L548.27 586.772C547.95 586.266 547.557 585.892 547.09 585.652C546.637 585.412 546.143 585.292 545.61 585.292C544.997 585.292 544.443 585.426 543.95 585.692C543.457 585.959 543.07 586.346 542.79 586.852C542.51 587.346 542.37 587.939 542.37 588.632C542.37 589.326 542.51 589.926 542.79 590.432C543.07 590.926 543.457 591.306 543.95 591.572C544.443 591.839 544.997 591.972 545.61 591.972C546.143 591.972 546.637 591.852 547.09 591.612C547.557 591.372 547.95 590.999 548.27 590.492L550.19 591.612C549.777 592.412 549.17 593.032 548.37 593.472C547.583 593.899 546.67 594.112 545.63 594.112ZM557.215 594.112C556.028 594.112 554.988 593.879 554.095 593.412C553.215 592.932 552.528 592.279 552.035 591.452C551.555 590.626 551.315 589.686 551.315 588.632C551.315 587.566 551.548 586.626 552.015 585.812C552.495 584.986 553.148 584.339 553.975 583.872C554.815 583.406 555.768 583.172 556.835 583.172C557.875 583.172 558.801 583.399 559.615 583.852C560.428 584.306 561.068 584.946 561.535 585.772C562.001 586.599 562.235 587.572 562.235 588.692C562.235 588.799 562.228 588.919 562.215 589.052C562.215 589.186 562.208 589.312 562.195 589.432H553.295V587.772H560.875L559.895 588.292C559.908 587.679 559.781 587.139 559.515 586.672C559.248 586.206 558.881 585.839 558.415 585.572C557.961 585.306 557.435 585.172 556.835 585.172C556.221 585.172 555.681 585.306 555.215 585.572C554.761 585.839 554.401 586.212 554.135 586.692C553.881 587.159 553.755 587.712 553.755 588.352V588.752C553.755 589.392 553.901 589.959 554.195 590.452C554.488 590.946 554.901 591.326 555.435 591.592C555.968 591.859 556.581 591.992 557.275 591.992C557.875 591.992 558.415 591.899 558.895 591.712C559.375 591.526 559.801 591.232 560.175 590.832L561.515 592.372C561.035 592.932 560.428 593.366 559.695 593.672C558.975 593.966 558.148 594.112 557.215 594.112Z" fill="white"/>
<defs>
<filter id="filter0_d_23_1869" x="60.0264" y="44.1479" width="173.947" height="173.947" filterUnits="userSpaceOnUse" color-interpolation-filters="sRGB">
<feFlood flood-opacity="0" result="BackgroundImageFix"/>
<feColorMatrix in="SourceAlpha" type="matrix" values="0 0 0 0 0 0 0 0 0 0 0 0 0 0 0 0 0 0 127 0" result="hardAlpha"/>
<feOffset dy="19"/>
<feGaussianBlur stdDeviation="15.5"/>
<feComposite in2="hardAlpha" operator="out"/>
<feColorMatrix type="matrix" values="0 0 0 0 0.901961 0 0 0 0 0.0784314 0 0 0 0 0.545098 0 0 0 0.5 0"/>
<feBlend mode="normal" in2="BackgroundImageFix" result="effect1_dropShadow_23_1869"/>
<feBlend mode="normal" in="SourceGraphic" in2="effect1_dropShadow_23_1869" result="shape"/>
</filter>
<filter id="filter1_d_23_1869" x="60.0264" y="354.981" width="173.947" height="173.947" filterUnits="userSpaceOnUse" color-interpolation-filters="sRGB">
<feFlood flood-opacity="0" result="BackgroundImageFix"/>
<feColorMatrix in="SourceAlpha" type="matrix" values="0 0 0 0 0 0 0 0 0 0 0 0 0 0 0 0 0 0 127 0" result="hardAlpha"/>
<feOffset dy="19"/>
<feGaussianBlur stdDeviation="15.5"/>
<feComposite in2="hardAlpha" operator="out"/>
<feColorMatrix type="matrix" values="0 0 0 0 0.415686 0 0 0 0 0.670588 0 0 0 0 0.129412 0 0 0 0.5 0"/>
<feBlend mode="normal" in2="BackgroundImageFix" result="effect1_dropShadow_23_1869"/>
<feBlend mode="normal" in="SourceGraphic" in2="effect1_dropShadow_23_1869" result="shape"/>
</filter>
<filter id="filter2_d_23_1869" x="387.026" y="109.148" width="173.947" height="173.947" filterUnits="userSpaceOnUse" color-interpolation-filters="sRGB">
<feFlood flood-opacity="0" result="BackgroundImageFix"/>
<feColorMatrix in="SourceAlpha" type="matrix" values="0 0 0 0 0 0 0 0 0 0 0 0 0 0 0 0 0 0 127 0" result="hardAlpha"/>
<feOffset dy="19"/>
<feGaussianBlur stdDeviation="15.5"/>
<feComposite in2="hardAlpha" operator="out"/>
<feColorMatrix type="matrix" values="0 0 0 0 0.984314 0 0 0 0 0.643137 0 0 0 0 0.352941 0 0 0 0.5 0"/>
<feBlend mode="normal" in2="BackgroundImageFix" result="effect1_dropShadow_23_1869"/>
<feBlend mode="normal" in="SourceGraphic" in2="effect1_dropShadow_23_1869" result="shape"/>
</filter>
<filter id="filter3_d_23_1869" x="387.026" y="419.981" width="173.947" height="173.947" filterUnits="userSpaceOnUse" color-interpolation-filters="sRGB">
<feFlood flood-opacity="0" result="BackgroundImageFix"/>
<feColorMatrix in="SourceAlpha" type="matrix" values="0 0 0 0 0 0 0 0 0 0 0 0 0 0 0 0 0 0 127 0" result="hardAlpha"/>
<feOffset dy="19"/>
<feGaussianBlur stdDeviation="15.5"/>
<feComposite in2="hardAlpha" operator="out"/>
<feColorMatrix type="matrix" values="0 0 0 0 0.384314 0 0 0 0 0.443137 0 0 0 0 1 0 0 0 0.5 0"/>
<feBlend mode="normal" in2="BackgroundImageFix" result="effect1_dropShadow_23_1869"/>
<feBlend mode="normal" in="SourceGraphic" in2="effect1_dropShadow_23_1869" result="shape"/>
</filter>
</defs>
</svg>
