<svg width="112" height="112" viewBox="0 0 112 112" fill="none" xmlns="http://www.w3.org/2000/svg">
<path d="M36.2452 44.8913L36.2452 44.8914L55.075 33.5935C55.075 33.5935 55.075 33.5934 55.0751 33.5934C55.3539 33.4244 55.6738 33.3351 55.9999 33.3351C56.326 33.3351 56.6458 33.4244 56.9247 33.5934C56.9247 33.5934 56.9247 33.5935 56.9247 33.5935L75.7546 44.8914L75.7598 44.8945L75.7597 44.8947C75.8844 44.9802 76.0027 45.0748 76.1135 45.1777L76.1186 45.1825L76.1185 45.1826C76.4404 45.5263 76.6264 45.9753 76.6419 46.446L76.642 46.4493L76.6419 65.2789V65.2795H76.5419C76.5436 65.5769 76.4669 65.8695 76.3197 66.1279C76.1725 66.3863 75.9598 66.6015 75.7031 66.7517L36.2452 44.8913ZM36.2452 44.8913L36.2434 44.8924C35.9792 45.0585 35.7601 45.2873 35.6056 45.5584C35.4511 45.8296 35.366 46.1347 35.3579 46.4467L35.3578 46.4467V46.4493V65.2792M36.2452 44.8913L35.3578 65.2792M35.3578 65.2792V65.2795H35.4578L35.3578 65.2792ZM75.7536 66.838C75.7538 66.8379 75.754 66.8378 75.7542 66.8377L55.1268 78.0498C55.3901 78.2094 55.692 78.2937 55.9999 78.2937C56.3077 78.2937 56.6097 78.2094 56.8729 78.0498L56.9244 78.1355L56.9245 78.1355C56.9246 78.1354 56.9247 78.1354 56.9247 78.1353L75.7536 66.838ZM54.188 58.7798V73.3711L38.9815 64.2471V49.6559L54.188 58.7798ZM55.9999 37.2706L71.3146 46.4493L55.9999 55.628L40.6852 46.4493L55.9999 37.2706ZM73.0183 49.6559V64.2471L57.8117 73.3711V58.7798L73.0183 49.6559Z" fill="url(#paint0_linear_21_1329)" stroke="url(#paint1_linear_21_1329)" stroke-width="0.2"/>
<path d="M50.1164 19.0001C51.0858 20.414 52.5315 21.4308 54.188 21.8658V28.4749C54.188 28.9554 54.3789 29.4163 54.7187 29.7561C55.0585 30.0959 55.5193 30.2867 55.9998 30.2867C56.4804 30.2867 56.9412 30.0959 57.281 29.7561C57.6208 29.4163 57.8117 28.9554 57.8117 28.4749V21.8658C59.4681 21.4308 60.9138 20.414 61.8833 19.0001C62.8674 17.5646 63.2928 15.8189 63.0794 14.0916C62.866 12.3643 62.0285 10.7746 60.7246 9.62189C59.4206 8.46914 57.7403 7.83286 55.9998 7.83286C54.2594 7.83286 52.579 8.46914 51.2751 9.62189C49.9711 10.7746 49.1336 12.3643 48.9202 14.0916C48.7068 15.8189 49.1322 17.5646 50.1164 19.0001ZM53.5356 12.5008C54.1875 11.8419 55.073 11.4667 55.9998 11.4565C56.9266 11.4667 57.8121 11.8419 58.464 12.5009C59.1162 13.16 59.482 14.0499 59.4819 14.9771C59.4819 15.9044 59.1161 16.7942 58.4639 17.4533C57.812 18.1122 56.9266 18.4875 55.9997 18.4976C55.0729 18.4874 54.1875 18.1122 53.5355 17.4533C52.8834 16.7941 52.5176 15.9043 52.5176 14.977C52.5176 14.0498 52.8834 13.1599 53.5356 12.5008Z" fill="url(#paint2_linear_21_1329)" stroke="url(#paint3_linear_21_1329)" stroke-width="0.2"/>
<path d="M27.088 35.8721H27.0893C28.8285 35.8716 30.529 35.3624 31.9817 34.4081L35.3587 37.7846L35.3587 37.7846L35.3601 37.7859C35.7021 38.1148 36.1594 38.2965 36.6339 38.2918C37.1083 38.2872 37.562 38.0967 37.8975 37.7612C38.233 37.4256 38.4235 36.9719 38.4281 36.4975C38.4327 36.023 38.251 35.5657 37.922 35.2238L37.922 35.2238L37.9207 35.2224L34.5473 31.8497C40.2713 22.9271 28.4456 13.1994 20.7806 20.6435L20.7805 20.6435L20.7787 20.6454C19.5532 21.9013 18.7232 23.4892 18.3915 25.2123C18.0598 26.9354 18.2411 28.718 18.9128 30.3391C19.5845 31.9602 20.7171 33.3485 22.1703 34.332C23.6235 35.3156 25.3334 35.851 27.088 35.8721ZM23.3418 23.2063C24.3389 22.2295 25.6811 21.6856 27.077 21.6927C28.4732 21.6998 29.8101 22.2576 30.7973 23.2449C31.7845 24.2323 32.3422 25.5693 32.3491 26.9655C32.356 28.3614 31.8119 29.7036 30.835 30.7005C29.8378 31.6773 28.4956 32.2213 27.0997 32.2142C25.7035 32.2071 24.3665 31.6493 23.3793 30.6619C22.3921 29.6746 21.8345 28.3375 21.8276 26.9413C21.8207 25.5455 22.3648 24.2033 23.3418 23.2063Z" fill="url(#paint4_linear_21_1329)" stroke="url(#paint5_linear_21_1329)" stroke-width="0.2"/>
<path d="M19.135 61.7474C20.5488 60.778 21.5656 59.3325 22.0006 57.6761H28.6106C29.0911 57.6761 29.552 57.4852 29.8918 57.1455C30.2315 56.8057 30.4224 56.3448 30.4224 55.8643C30.4224 55.3838 30.2315 54.9229 29.8918 54.5831C29.552 54.2433 29.0911 54.0525 28.6106 54.0525H22.0006C21.5656 52.3961 20.5488 50.9505 19.135 49.9812C17.6996 48.9971 15.954 48.5717 14.2268 48.7851C12.4997 48.9986 10.9101 49.836 9.75743 51.1399C8.60477 52.4437 7.96854 54.124 7.96854 55.8643C7.96854 57.6046 8.60477 59.2849 9.75743 60.5887C10.9101 61.8926 12.4997 62.73 14.2268 62.9434C15.954 63.1568 17.6996 62.7315 19.135 61.7474ZM17.5766 58.3403C16.9249 58.9992 16.0398 59.3747 15.1131 59.3852C14.1865 59.3746 13.3014 58.9992 12.6497 58.3402C11.9978 57.681 11.6322 56.7913 11.6322 55.8642C11.6322 54.9371 11.9979 54.0474 12.6498 53.3883C13.3015 52.7294 14.1866 52.3539 15.1133 52.3434C16.0399 52.354 16.925 52.7294 17.5767 53.3883C18.2286 54.0475 18.5942 54.9372 18.5942 55.8644C18.5942 56.7915 18.2285 57.6812 17.5766 58.3403Z" fill="url(#paint6_linear_21_1329)" stroke="url(#paint7_linear_21_1329)" stroke-width="0.2"/>
<path d="M57.8117 89.8629V83.2538C57.8117 82.7733 57.6208 82.3125 57.281 81.9727C56.9412 81.6329 56.4804 81.442 55.9998 81.442C55.5193 81.442 55.0585 81.6329 54.7187 81.9727C54.3789 82.3125 54.188 82.7733 54.188 83.2538V89.8629C52.5315 90.2979 51.0858 91.3147 50.1164 92.7287C49.1322 94.1641 48.7068 95.9098 48.9202 97.6371C49.1336 99.3644 49.9711 100.954 51.2751 102.107C52.579 103.26 54.2594 103.896 55.9998 103.896C57.7403 103.896 59.4206 103.26 60.7246 102.107C62.0285 100.954 62.866 99.3644 63.0794 97.6371C63.2928 95.9098 62.8674 94.1641 61.8833 92.7287C60.9138 91.3147 59.4681 90.2979 57.8117 89.8629ZM55.9998 100.272C55.073 100.262 54.1876 99.8868 53.5356 99.2279C52.8835 98.5687 52.5177 97.6789 52.5177 96.7516C52.5177 95.8244 52.8835 94.9345 53.5357 94.2754C54.1877 93.6165 55.0731 93.2413 55.9999 93.2311C56.9268 93.2413 57.8122 93.6165 58.4641 94.2755C59.1163 94.9346 59.4821 95.8245 59.4821 96.7517C59.482 97.679 59.1162 98.5688 58.464 99.2279C57.8121 99.8868 56.9267 100.262 55.9998 100.272Z" fill="url(#paint8_linear_21_1329)" stroke="url(#paint9_linear_21_1329)" stroke-width="0.2"/>
<path d="M76.6411 73.9442L76.6411 73.9442L76.6397 73.9428C76.2977 73.6139 75.8404 73.4323 75.366 73.437C74.8916 73.4416 74.4379 73.6321 74.1024 73.9676C73.767 74.3031 73.5765 74.7568 73.5718 75.2312C73.5672 75.7056 73.7489 76.1629 74.0778 76.5049L74.0778 76.5049L74.0791 76.5063L77.4517 79.8782C76.2454 81.7069 75.7521 83.9159 76.0674 86.0857C76.3867 88.2827 77.5121 90.2823 79.2247 91.6951C80.9372 93.108 83.1142 93.833 85.3318 93.729C87.5495 93.6249 89.6491 92.6994 91.2218 91.1324C92.7946 89.5655 93.7279 87.4694 93.8401 85.2521C93.9524 83.0348 93.2355 80.8552 91.829 79.1374C90.4225 77.4197 88.4271 76.2869 86.2313 75.9594C84.0626 75.6361 81.8516 76.1213 80.0184 77.3209L76.6411 73.9442ZM88.6581 88.5224C87.6609 89.4992 86.3187 90.0432 84.9228 90.0361C83.5266 90.029 82.1897 89.4711 81.2025 88.4838C80.2153 87.4965 79.6576 86.1594 79.6507 84.7632C79.6438 83.3674 80.1879 82.0252 81.1649 81.0282C82.162 80.0514 83.5042 79.5075 84.9001 79.5145C86.2963 79.5216 87.6333 80.0795 88.6205 81.0668C89.6077 82.0542 90.1653 83.3912 90.1722 84.7874C90.1791 86.1832 89.635 87.5254 88.6581 88.5224Z" fill="url(#paint10_linear_21_1329)" stroke="url(#paint11_linear_21_1329)" stroke-width="0.2"/>
<path d="M96.8866 48.7198L96.8864 48.7198C95.2975 48.7243 93.7555 49.2586 92.5045 50.2383C91.2741 51.2018 90.3943 52.542 89.9992 54.0526H83.3893C82.9087 54.0526 82.4479 54.2435 82.1081 54.5833C81.7683 54.9231 81.5774 55.3839 81.5774 55.8644C81.5774 56.345 81.7683 56.8058 82.1081 57.1456C82.4479 57.4854 82.9087 57.6763 83.3893 57.6763H89.9994C90.3339 58.9422 91.0104 60.0923 91.9556 60.9999C92.9195 61.9256 94.1241 62.5619 95.432 62.8363C96.7399 63.1107 98.0987 63.0123 99.3534 62.5522C100.608 62.092 101.708 61.2888 102.529 60.2338C103.349 59.1789 103.857 57.9147 103.994 56.5853C104.131 55.256 103.892 53.9148 103.303 52.7148C102.715 51.5147 101.802 50.5039 100.668 49.7976C99.5331 49.0913 98.223 48.7179 96.8866 48.7198ZM99.3502 58.3405C98.6985 58.9994 97.8134 59.3748 96.8867 59.3854C95.9601 59.3748 95.0749 58.9993 94.4233 58.3404C93.7714 57.6812 93.4057 56.7915 93.4058 55.8644C93.4058 54.9373 93.7714 54.0476 94.4233 53.3884C95.075 52.7295 95.9602 52.3541 96.8868 52.3435C97.8135 52.3541 98.6986 52.7295 99.3502 53.3885C100.002 54.0477 100.368 54.9374 100.368 55.8645C100.368 56.7916 100.002 57.6813 99.3502 58.3405Z" fill="url(#paint12_linear_21_1329)" stroke="url(#paint13_linear_21_1329)" stroke-width="0.2"/>
<path d="M35.3602 73.9428L35.3602 73.9428L35.3588 73.9442L31.9815 77.3208C30.1534 76.1257 27.9492 75.6429 25.7872 75.9659C23.5982 76.293 21.6092 77.4228 20.2073 79.1355C18.8054 80.8482 18.0908 83.0212 18.2028 85.2317C18.3147 87.4422 19.245 89.5319 20.8128 91.0943C22.3805 92.6566 24.4735 93.5798 26.6843 93.6841C28.8952 93.7884 31.0658 93.0663 32.7736 91.6585C34.4815 90.2507 35.6044 88.2578 35.9239 86.0677C36.2395 83.9047 35.7491 81.7022 34.5478 79.8784L37.9209 76.5063L37.9209 76.5063L37.9223 76.5048C38.2509 76.1628 38.4323 75.7056 38.4276 75.2313C38.4229 74.757 38.2324 74.3035 37.897 73.9681C37.5616 73.6327 37.1081 73.4422 36.6338 73.4374C36.1595 73.4327 35.7022 73.6142 35.3602 73.9428ZM30.8352 88.5224C29.838 89.4992 28.4958 90.0431 27.0999 90.036C25.7037 90.0289 24.3667 89.4711 23.3795 88.4838C22.3923 87.4964 21.8347 86.1594 21.8278 84.7632C21.8209 83.3673 22.365 82.0251 23.342 81.0281C24.339 80.0508 25.6814 79.5064 27.0776 79.5132C28.4741 79.5201 29.8114 80.0779 30.7989 81.0655C31.7863 82.0531 32.3439 83.3905 32.3506 84.787C32.3573 86.1832 31.8127 87.5255 30.8352 88.5224Z" fill="url(#paint14_linear_21_1329)" stroke="url(#paint15_linear_21_1329)" stroke-width="0.2"/>
<path d="M75.3584 38.3152L75.3599 38.3152C75.5979 38.3155 75.8336 38.2687 76.0534 38.1776C76.2733 38.0865 76.473 37.9528 76.6411 37.7843L80.019 34.4071C88.9344 40.1285 98.6659 28.3159 91.2208 20.645L91.2208 20.6449L91.2187 20.6429C83.5552 13.2064 71.7245 22.9193 77.4527 31.8494L74.0789 35.2223L74.0789 35.2223L74.0778 35.2235C73.8303 35.4789 73.6629 35.8012 73.5963 36.1506C73.5297 36.5 73.5667 36.8612 73.7029 37.1898C73.839 37.5184 74.0682 37.8001 74.3624 38C74.6565 38.2 75.0027 38.3095 75.3584 38.3152ZM79.6505 26.9413C79.6436 25.5454 80.1877 24.2032 81.1647 23.2062C82.1618 22.2294 83.504 21.6855 84.8999 21.6926C86.2961 21.6997 87.6331 22.2575 88.6203 23.2448C89.6075 24.2322 90.1651 25.5692 90.172 26.9654C90.1789 28.3613 89.6348 29.7035 88.6579 30.7004C87.6607 31.6772 86.3185 32.2212 84.9226 32.2141C83.5264 32.207 82.1895 31.6492 81.2023 30.6618C80.2151 29.6745 79.6574 28.3374 79.6505 26.9413Z" fill="url(#paint16_linear_21_1329)" stroke="url(#paint17_linear_21_1329)" stroke-width="0.2"/>
<defs>
<linearGradient id="paint0_linear_21_1329" x1="35.4578" y1="33.4351" x2="80.2277" y2="75.325" gradientUnits="userSpaceOnUse">
<stop stop-color="#F7138F"/>
<stop offset="1" stop-color="#FBA45A"/>
</linearGradient>
<linearGradient id="paint1_linear_21_1329" x1="35.4578" y1="33.4351" x2="80.2277" y2="75.325" gradientUnits="userSpaceOnUse">
<stop stop-color="#F7138F"/>
<stop offset="1" stop-color="#FBA45A"/>
</linearGradient>
<linearGradient id="paint2_linear_21_1329" x1="48.9664" y1="7.93286" x2="69.2545" y2="21.0346" gradientUnits="userSpaceOnUse">
<stop stop-color="#F7138F"/>
<stop offset="1" stop-color="#FBA45A"/>
</linearGradient>
<linearGradient id="paint3_linear_21_1329" x1="48.9664" y1="7.93286" x2="69.2545" y2="21.0346" gradientUnits="userSpaceOnUse">
<stop stop-color="#F7138F"/>
<stop offset="1" stop-color="#FBA45A"/>
</linearGradient>
<linearGradient id="paint4_linear_21_1329" x1="18.3299" y1="18.1003" x2="38.4232" y2="38.5331" gradientUnits="userSpaceOnUse">
<stop stop-color="#F7138F"/>
<stop offset="1" stop-color="#FBA45A"/>
</linearGradient>
<linearGradient id="paint5_linear_21_1329" x1="18.3299" y1="18.1003" x2="38.4232" y2="38.5331" gradientUnits="userSpaceOnUse">
<stop stop-color="#F7138F"/>
<stop offset="1" stop-color="#FBA45A"/>
</linearGradient>
<linearGradient id="paint6_linear_21_1329" x1="8.06854" y1="48.8313" x2="20.6583" y2="69.1806" gradientUnits="userSpaceOnUse">
<stop stop-color="#F7138F"/>
<stop offset="1" stop-color="#FBA45A"/>
</linearGradient>
<linearGradient id="paint7_linear_21_1329" x1="8.06854" y1="48.8313" x2="20.6583" y2="69.1806" gradientUnits="userSpaceOnUse">
<stop stop-color="#F7138F"/>
<stop offset="1" stop-color="#FBA45A"/>
</linearGradient>
<linearGradient id="paint8_linear_21_1329" x1="48.9664" y1="81.542" x2="69.2545" y2="94.6438" gradientUnits="userSpaceOnUse">
<stop stop-color="#F7138F"/>
<stop offset="1" stop-color="#FBA45A"/>
</linearGradient>
<linearGradient id="paint9_linear_21_1329" x1="48.9664" y1="81.542" x2="69.2545" y2="94.6438" gradientUnits="userSpaceOnUse">
<stop stop-color="#F7138F"/>
<stop offset="1" stop-color="#FBA45A"/>
</linearGradient>
<linearGradient id="paint10_linear_21_1329" x1="73.6718" y1="73.5369" x2="93.7741" y2="94.0516" gradientUnits="userSpaceOnUse">
<stop stop-color="#F7138F"/>
<stop offset="1" stop-color="#FBA45A"/>
</linearGradient>
<linearGradient id="paint11_linear_21_1329" x1="73.6718" y1="73.5369" x2="93.7741" y2="94.0516" gradientUnits="userSpaceOnUse">
<stop stop-color="#F7138F"/>
<stop offset="1" stop-color="#FBA45A"/>
</linearGradient>
<linearGradient id="paint12_linear_21_1329" x1="81.6774" y1="48.8198" x2="94.2705" y2="69.1708" gradientUnits="userSpaceOnUse">
<stop stop-color="#F7138F"/>
<stop offset="1" stop-color="#FBA45A"/>
</linearGradient>
<linearGradient id="paint13_linear_21_1329" x1="81.6774" y1="48.8198" x2="94.2705" y2="69.1708" gradientUnits="userSpaceOnUse">
<stop stop-color="#F7138F"/>
<stop offset="1" stop-color="#FBA45A"/>
</linearGradient>
<linearGradient id="paint14_linear_21_1329" x1="18.2914" y1="73.5374" x2="38.3484" y2="94.0076" gradientUnits="userSpaceOnUse">
<stop stop-color="#F7138F"/>
<stop offset="1" stop-color="#FBA45A"/>
</linearGradient>
<linearGradient id="paint15_linear_21_1329" x1="18.2914" y1="73.5374" x2="38.3484" y2="94.0076" gradientUnits="userSpaceOnUse">
<stop stop-color="#F7138F"/>
<stop offset="1" stop-color="#FBA45A"/>
</linearGradient>
<linearGradient id="paint16_linear_21_1329" x1="73.6641" y1="18.1018" x2="93.7778" y2="38.6369" gradientUnits="userSpaceOnUse">
<stop stop-color="#F7138F"/>
<stop offset="1" stop-color="#FBA45A"/>
</linearGradient>
<linearGradient id="paint17_linear_21_1329" x1="73.6641" y1="18.1018" x2="93.7778" y2="38.6369" gradientUnits="userSpaceOnUse">
<stop stop-color="#F7138F"/>
<stop offset="1" stop-color="#FBA45A"/>
</linearGradient>
</defs>
</svg>
