<svg width="112" height="112" viewBox="0 0 112 112" fill="none" xmlns="http://www.w3.org/2000/svg">
<path d="M84.2882 20.7955H75.6228V16.9189C75.6228 15.6647 74.2546 15.0946 73.0004 15.0946H66.2734C64.6772 10.5339 60.6865 8.25348 56.1257 8.25348C51.6151 8.0839 47.5125 10.8496 45.978 15.0946H39.3649C38.1107 15.0946 36.8565 15.6647 36.8565 16.9189V20.7955H28.1909C23.0557 20.8502 18.8546 24.9012 18.6132 30.0309V95.3636C18.6132 100.381 23.174 104.029 28.1909 104.029H84.2882C89.305 104.029 93.8658 100.381 93.8658 95.3636V30.0311C93.6244 24.9012 89.4233 20.8502 84.2882 20.7955ZM41.417 19.6554H47.6881C48.7828 19.5218 49.6621 18.689 49.8546 17.6031C50.5298 14.6625 53.1096 12.5517 56.1257 12.4723C59.1138 12.5628 61.6548 14.6802 62.2827 17.6031C62.4872 18.7266 63.4245 19.5701 64.563 19.6554H71.0622V28.7769H41.417V19.6554ZM89.3051 95.3639C89.3051 97.8723 86.7966 99.4685 84.2882 99.4685H28.1909C25.6824 99.4685 23.174 97.8723 23.174 95.3639V30.0311C23.4066 27.4201 25.5698 25.4042 28.1909 25.3564H36.8563V31.1714C36.9767 32.449 38.0832 33.4047 39.3647 33.3379H73.0002C74.3052 33.4093 75.4464 32.4667 75.6225 31.1714V25.3562H84.288C86.9088 25.4042 89.0722 27.4199 89.3048 30.0309V95.3639H89.3051Z" fill="url(#paint0_linear_21_1359)"/>
<path d="M47.46 59.22C46.6047 58.3184 45.1849 58.2676 44.2674 59.106L36.9701 66.0611L33.8916 62.8685C33.0364 61.9669 31.6165 61.9163 30.699 62.7546C29.8158 63.6799 29.8158 65.1358 30.699 66.0611L35.3737 70.8499C35.7783 71.303 36.3628 71.5535 36.9699 71.5341C37.5714 71.5256 38.1451 71.2797 38.5661 70.8499L47.4596 62.4126C48.3413 61.6038 48.4002 60.2333 47.5912 59.3518C47.5497 59.3057 47.5058 59.2619 47.46 59.22Z" fill="url(#paint1_linear_21_1359)"/>
<path d="M80.1834 64.1228H53.9591C52.6996 64.1228 51.6787 65.1437 51.6787 66.4032C51.6787 67.6626 52.6996 68.6836 53.9591 68.6836H80.1834C81.4428 68.6836 82.4638 67.6626 82.4638 66.4032C82.4638 65.1437 81.4428 64.1228 80.1834 64.1228Z" fill="url(#paint2_linear_21_1359)"/>
<path d="M47.46 40.9768C46.6047 40.0753 45.1849 40.0244 44.2674 40.8629L36.9701 47.8179L33.8916 44.6253C33.0364 43.7238 31.6165 43.6729 30.699 44.5114C29.8158 45.4367 29.8158 46.8926 30.699 47.8179L35.3737 52.6068C35.7783 53.0598 36.3628 53.3104 36.9699 53.2909C37.5714 53.2824 38.1451 53.0365 38.5661 52.6068L47.4596 44.1694C48.3413 43.3606 48.4002 41.9901 47.5912 41.1086C47.5497 41.0626 47.5058 41.0187 47.46 40.9768Z" fill="url(#paint3_linear_21_1359)"/>
<path d="M80.1834 45.8796H53.9591C52.6996 45.8796 51.6787 46.9006 51.6787 48.16C51.6787 49.4195 52.6996 50.4404 53.9591 50.4404H80.1834C81.4428 50.4404 82.4638 49.4195 82.4638 48.16C82.4638 46.9006 81.4428 45.8796 80.1834 45.8796Z" fill="url(#paint4_linear_21_1359)"/>
<path d="M47.46 77.4628C46.6047 76.5613 45.1849 76.5106 44.2674 77.3489L36.9701 84.3039L33.8916 81.1113C33.0364 80.2098 31.6165 80.1591 30.699 80.9974C29.8158 81.9227 29.8158 83.3786 30.699 84.3039L35.3737 89.0928C35.7783 89.5458 36.3628 89.7964 36.9699 89.7769C37.5714 89.7684 38.1451 89.5225 38.5661 89.0928L47.4596 80.6554C48.3413 79.8466 48.4002 78.4761 47.5912 77.5946C47.5497 77.5488 47.5058 77.5049 47.46 77.4628Z" fill="url(#paint5_linear_21_1359)"/>
<path d="M80.1834 82.3657H53.9591C52.6996 82.3657 51.6787 83.3866 51.6787 84.6461C51.6787 85.9056 52.6996 86.9265 53.9591 86.9265H80.1834C81.4428 86.9265 82.4638 85.9056 82.4638 84.6461C82.4638 83.3866 81.4428 82.3657 80.1834 82.3657Z" fill="url(#paint6_linear_21_1359)"/>
<defs>
<linearGradient id="paint0_linear_21_1359" x1="18.6132" y1="8.24609" x2="112.149" y2="83.3229" gradientUnits="userSpaceOnUse">
<stop stop-color="#F7138F"/>
<stop offset="1" stop-color="#FBA45A"/>
</linearGradient>
<linearGradient id="paint1_linear_21_1359" x1="30.0366" y1="58.509" x2="42.2993" y2="75.9408" gradientUnits="userSpaceOnUse">
<stop stop-color="#F7138F"/>
<stop offset="1" stop-color="#FBA45A"/>
</linearGradient>
<linearGradient id="paint2_linear_21_1359" x1="51.6787" y1="64.1228" x2="52.9745" y2="73.0585" gradientUnits="userSpaceOnUse">
<stop stop-color="#F7138F"/>
<stop offset="1" stop-color="#FBA45A"/>
</linearGradient>
<linearGradient id="paint3_linear_21_1359" x1="30.0366" y1="40.2659" x2="42.2993" y2="57.6976" gradientUnits="userSpaceOnUse">
<stop stop-color="#F7138F"/>
<stop offset="1" stop-color="#FBA45A"/>
</linearGradient>
<linearGradient id="paint4_linear_21_1359" x1="51.6787" y1="45.8796" x2="52.9745" y2="54.8153" gradientUnits="userSpaceOnUse">
<stop stop-color="#F7138F"/>
<stop offset="1" stop-color="#FBA45A"/>
</linearGradient>
<linearGradient id="paint5_linear_21_1359" x1="30.0366" y1="76.752" x2="42.2992" y2="94.1836" gradientUnits="userSpaceOnUse">
<stop stop-color="#F7138F"/>
<stop offset="1" stop-color="#FBA45A"/>
</linearGradient>
<linearGradient id="paint6_linear_21_1359" x1="51.6787" y1="82.3657" x2="52.9745" y2="91.3014" gradientUnits="userSpaceOnUse">
<stop stop-color="#F7138F"/>
<stop offset="1" stop-color="#FBA45A"/>
</linearGradient>
</defs>
</svg>
