<svg width="20" height="19" viewBox="0 0 20 19" fill="none" xmlns="http://www.w3.org/2000/svg">
<path d="M16.8874 5.02357L18.1446 3.88417V3.63477H13.7894L10.6854 10.9538L7.15414 3.63477H2.58753V3.88417L4.05612 5.55907C4.19924 5.68284 4.27408 5.86382 4.25504 6.04605V12.6281C4.30034 12.8651 4.21893 13.1089 4.04299 13.2812L2.38861 15.1806V15.4269H7.0793V15.1775L5.42492 13.2812C5.2457 13.1083 5.16101 12.8688 5.19711 12.6281V6.93482L9.31468 15.43H9.79327L13.3338 6.93482V13.7022C13.3338 13.8807 13.3338 13.9174 13.2103 14.0343L11.9367 15.2017V15.4518H18.1157V15.2024L16.8881 14.0636C16.7804 13.9864 16.7246 13.8571 16.7476 13.7314V5.35569C16.7246 5.22944 16.7797 5.10007 16.8874 5.02357Z" fill="#A09FB0"/>
</svg>
