<svg width="138" height="138" viewBox="0 0 138 138" fill="none" xmlns="http://www.w3.org/2000/svg">
<g filter="url(#filter0_d_9_26)">
<path d="M102.693 56.7919C102.693 38.3696 87.7589 23.4353 69.3367 23.4353C50.9144 23.4353 35.9801 38.3696 35.9801 56.7919C35.9801 75.2142 50.9144 90.1484 69.3367 90.1484C87.759 90.1484 102.693 75.2142 102.693 56.7919Z" fill="#8345E6"/>
<path d="M79.2146 50.2234C78.5126 49.8222 77.61 49.8222 76.8078 50.2234L71.1919 53.5327L67.3811 55.6386L61.8655 58.9479C61.1635 59.349 60.2609 59.349 59.4587 58.9479L55.1465 56.3406C54.4445 55.9395 53.9432 55.1372 53.9432 54.2346V49.2205C53.9432 48.4183 54.3443 47.6159 55.1465 47.1146L59.4587 44.6075C60.1607 44.2064 61.0633 44.2064 61.8655 44.6075L66.1777 47.2148C66.8796 47.6159 67.381 48.4182 67.381 49.3208V52.6301L71.1918 50.4239V47.0143C71.1918 46.2121 70.7907 45.4097 69.9885 44.9083L61.9659 40.195C61.2639 39.7938 60.3613 39.7938 59.5591 40.195L51.3359 45.0086C50.5335 45.4097 50.1324 46.212 50.1324 47.0143V56.441C50.1324 57.2432 50.5335 58.0456 51.3357 58.5469L59.4587 63.2602C60.1607 63.6613 61.0633 63.6613 61.8655 63.2602L67.3811 60.0511L71.1919 57.8449L76.7075 54.6359C77.4095 54.2348 78.3121 54.2348 79.1144 54.6359L83.4265 57.143C84.1285 57.5441 84.6299 58.3463 84.6299 59.2489V64.263C84.6299 65.0653 84.2288 65.8676 83.4265 66.369L79.2146 68.8761C78.5126 69.2772 77.61 69.2772 76.8078 68.8761L72.4956 66.369C71.7937 65.9679 71.2923 65.1656 71.2923 64.263V61.054L67.4815 63.2602V66.5695C67.4815 67.3717 67.8826 68.1741 68.6848 68.6755L76.8078 73.3887C77.5098 73.7899 78.4124 73.7899 79.2146 73.3887L87.3376 68.6755C88.0395 68.2743 88.5409 67.4721 88.5409 66.5695V57.0426C88.5409 56.2404 88.1398 55.438 87.3376 54.9366L79.2146 50.2234Z" fill="white"/>
</g>
<defs>
<filter id="filter0_d_9_26" x="0.980133" y="0.435333" width="136.713" height="136.713" filterUnits="userSpaceOnUse" color-interpolation-filters="sRGB">
<feFlood flood-opacity="0" result="BackgroundImageFix"/>
<feColorMatrix in="SourceAlpha" type="matrix" values="0 0 0 0 0 0 0 0 0 0 0 0 0 0 0 0 0 0 127 0" result="hardAlpha"/>
<feOffset dy="12"/>
<feGaussianBlur stdDeviation="17.5"/>
<feComposite in2="hardAlpha" operator="out"/>
<feColorMatrix type="matrix" values="0 0 0 0 0.513726 0 0 0 0 0.270588 0 0 0 0 0.901961 0 0 0 0.78 0"/>
<feBlend mode="normal" in2="BackgroundImageFix" result="effect1_dropShadow_9_26"/>
<feBlend mode="normal" in="SourceGraphic" in2="effect1_dropShadow_9_26" result="shape"/>
</filter>
</defs>
</svg>
