<svg width="342" height="144" viewBox="0 0 342 144" fill="none" xmlns="http://www.w3.org/2000/svg">
<mask id="mask0_8_428" style="mask-type:alpha" maskUnits="userSpaceOnUse" x="131" y="12" width="81" height="132">
<path d="M212 101.191C212 124.313 193.868 143.056 171.5 143.056C149.132 143.056 131 124.313 131 101.191C131 78.0695 148.906 12 171.274 12C193.641 12 212 78.0695 212 101.191Z" fill="#D9D9D9"/>
</mask>
<g mask="url(#mask0_8_428)">
<path d="M734.481 17.7712C727.395 18.5713 722.024 24.0571 721.452 31.1431C720.995 37.0861 724.081 42.4577 728.881 45.0864C731.967 46.8007 733.91 50.1151 733.91 53.5438V53.7724C733.91 58.2296 730.938 62.1155 726.595 63.1441C711.395 66.8013 699.623 79.0303 696.537 94.345C695.852 97.6594 692.88 100.06 689.566 100.06H688.766C685.337 100.06 682.48 97.6594 681.794 94.345C678.137 76.5159 662.479 62.6869 643.736 62.0012C623.392 61.2012 606.249 75.373 602.477 94.4593C601.792 97.7737 598.82 100.06 595.506 100.06H594.706C591.277 100.06 588.42 97.6594 587.734 94.345V94.4593C584.648 79.1446 572.991 67.0299 558.019 63.2584C553.676 62.2298 550.476 58.5725 550.361 54.1152C550.247 50.458 552.076 46.915 555.276 45.2007C559.733 42.6863 562.819 37.8861 562.819 32.4003C562.819 23.7143 555.39 16.8569 546.476 17.7712C539.39 18.5713 534.018 24.0571 533.447 31.1431C532.989 37.0861 536.075 42.4577 540.875 45.0864C543.961 46.8007 545.904 50.1151 545.904 53.5438V53.7724C545.904 58.2296 542.933 62.1155 538.59 63.1441C523.389 66.8013 511.617 79.0303 508.532 94.345C507.846 97.6594 504.874 100.06 501.56 100.06H500.76C497.331 100.06 494.474 97.6594 493.788 94.345C490.131 76.5159 474.473 62.6869 455.73 62.0012C435.386 61.2012 418.243 75.373 414.471 94.4593C413.786 97.7737 410.814 100.06 407.5 100.06H406.7C403.271 100.06 400.414 97.6594 399.728 94.345C396.642 79.0303 384.871 66.8013 369.784 63.1441C364.641 61.8869 361.327 56.7439 362.698 51.258C363.384 48.6293 365.098 46.3436 367.499 44.9721C371.842 42.4577 374.813 37.6576 374.813 32.286C374.813 23.6 367.384 16.7426 358.47 17.6569C351.384 18.457 346.012 23.9428 345.441 31.0288C344.984 36.9718 348.069 42.3434 352.87 44.9721C355.955 46.6864 357.898 50.0008 357.898 53.4295V53.6581C357.898 58.1153 354.927 62.0012 350.584 63.0298C335.383 66.687 323.611 78.916 320.526 94.2308C319.84 97.5451 316.868 99.9452 313.554 99.9452H312.754C309.325 99.9452 306.468 97.5451 305.782 94.2308C302.125 76.4016 286.467 62.5726 267.724 61.8869C247.381 61.0869 230.237 75.2587 226.466 94.345C225.78 97.6594 222.808 99.9452 219.494 99.9452H218.58C215.265 99.9452 212.408 97.6594 211.722 94.345C208.636 79.0303 196.979 66.8013 182.007 63.0298C177.664 61.8869 174.464 58.3439 174.35 53.8866C174.235 50.2294 176.064 46.6864 179.264 44.9721C183.721 42.4577 186.807 37.6576 186.807 32.1717C186.807 23.4857 179.378 16.6283 170.464 17.5426C163.378 18.3427 158.006 23.8286 157.435 30.9145C156.978 36.8575 160.064 42.2291 164.864 44.8578C167.95 46.5721 169.892 49.8865 169.892 53.3152V53.5438C169.892 58.0011 166.807 61.8869 162.464 62.9155C143.606 67.7156 130.234 84.5162 131.034 104.402C131.948 125.203 148.863 142.118 169.664 143.032C190.007 143.947 207.265 129.775 211.151 110.688C211.837 107.374 214.694 104.974 218.122 104.974H219.037C222.351 104.974 225.208 107.26 225.894 110.574C228.98 125.889 240.637 138.118 255.609 141.889C259.952 143.032 263.152 146.575 263.267 151.033C263.381 154.69 261.552 158.233 258.352 159.947C253.895 162.461 250.809 167.262 250.809 172.747C250.809 181.433 258.238 188.291 267.153 187.377C274.239 186.576 279.61 181.091 280.182 174.005C280.639 168.062 277.553 162.69 272.753 160.061C269.667 158.347 267.724 155.033 267.724 151.604V151.375C267.724 146.918 270.696 143.032 275.039 142.004C290.239 138.346 302.011 126.117 305.097 110.803C305.782 107.488 308.754 105.088 312.068 105.088H312.868C316.297 105.088 319.154 107.488 319.84 110.803C323.497 128.632 339.155 142.461 357.898 143.147C378.242 143.947 395.385 129.775 399.157 110.688C399.842 107.374 402.814 105.088 406.128 105.088H407.043C410.357 105.088 413.214 107.374 413.9 110.688C416.986 126.003 428.643 138.232 443.615 142.004C447.958 143.147 451.158 146.69 451.273 151.147C451.387 154.804 449.558 158.347 446.358 160.061C441.901 162.576 438.815 167.376 438.815 172.862C438.815 181.548 446.244 188.405 455.158 187.491C462.244 186.691 467.616 181.205 468.187 174.119C468.645 168.176 465.559 162.804 460.759 160.176C457.673 158.461 455.73 155.147 455.73 151.718V151.49C455.73 147.032 458.701 143.147 463.044 142.118C478.245 138.461 490.017 126.232 493.102 110.917C493.788 107.603 496.76 105.203 500.074 105.203H500.874C504.303 105.203 507.16 107.603 507.846 110.917C511.503 128.746 527.161 142.575 545.904 143.261C566.248 144.061 583.391 129.775 587.163 110.803C587.848 107.488 590.82 105.203 594.134 105.203H595.049C598.363 105.203 601.22 107.488 601.906 110.803C604.992 126.117 616.649 138.346 631.621 142.118C635.964 143.261 639.164 146.804 639.278 151.261C639.393 154.918 637.564 158.461 634.364 160.176C629.907 162.69 626.821 167.49 626.821 172.976C626.821 181.662 634.25 188.519 643.164 187.605C650.25 186.805 655.622 181.319 656.193 174.233C656.65 168.29 653.565 162.919 648.764 160.29C645.679 158.576 643.736 155.261 643.736 151.833V151.604C643.736 147.147 646.707 143.261 651.05 142.232C666.251 138.575 678.023 126.346 681.108 111.031C681.794 107.717 684.766 105.317 688.08 105.317H688.88C692.309 105.317 695.166 107.717 695.852 111.031C699.509 128.86 715.167 142.689 733.91 143.375C756.996 144.289 775.968 125.775 775.968 102.917C775.968 83.9447 762.939 68.0585 745.453 63.7155C741.11 62.6869 737.91 58.9154 737.796 54.5724C737.682 50.9151 739.51 47.3721 742.71 45.6578C747.168 43.1434 750.253 38.3433 750.253 32.8574C750.825 23.7143 743.282 16.8569 734.481 17.7712Z" fill="white"/>
</g>
<path d="M168.709 36.2365C167.992 36.2365 167.333 36.1186 166.73 35.8827C166.127 35.6468 165.603 35.3191 165.157 34.8998C164.711 34.4716 164.366 33.9736 164.122 33.4057C163.877 32.8291 163.755 32.2 163.755 31.5185C163.755 30.837 163.877 30.2123 164.122 29.6444C164.366 29.0678 164.711 28.5697 165.157 28.1504C165.603 27.7222 166.127 27.3902 166.73 27.1543C167.333 26.9184 167.988 26.8005 168.696 26.8005C169.412 26.8005 170.067 26.9184 170.661 27.1543C171.264 27.3902 171.789 27.7179 172.234 28.1373C172.68 28.5566 173.025 29.0546 173.269 29.6313C173.514 30.2079 173.636 30.837 173.636 31.5185C173.636 32.2 173.514 32.8291 173.269 33.4057C173.025 33.9824 172.68 34.4804 172.234 34.8998C171.789 35.3191 171.264 35.6468 170.661 35.8827C170.067 36.1186 169.416 36.2365 168.709 36.2365ZM171.697 38.1106C171.374 38.1106 171.059 38.0713 170.753 37.9927C170.456 37.9228 170.159 37.8005 169.862 37.6257C169.574 37.4597 169.272 37.2369 168.958 36.9573C168.643 36.6865 168.298 36.3501 167.922 35.9482L169.731 35.4764C169.976 35.7997 170.207 36.0574 170.426 36.2496C170.653 36.4506 170.871 36.5947 171.081 36.6821C171.291 36.7695 171.509 36.8132 171.736 36.8132C172.339 36.8132 172.863 36.5685 173.309 36.0793L174.095 37.0229C173.484 37.748 172.684 38.1106 171.697 38.1106ZM168.696 34.7425C169.159 34.7425 169.587 34.6639 169.98 34.5066C170.373 34.3493 170.714 34.1265 171.002 33.8382C171.291 33.5411 171.513 33.196 171.671 32.8029C171.837 32.4097 171.92 31.9816 171.92 31.5185C171.92 31.0467 171.837 30.6186 171.671 30.2342C171.513 29.841 171.291 29.5002 171.002 29.2119C170.714 28.9149 170.373 28.6877 169.98 28.5304C169.587 28.3732 169.159 28.2945 168.696 28.2945C168.233 28.2945 167.804 28.3732 167.411 28.5304C167.018 28.6877 166.677 28.9149 166.389 29.2119C166.101 29.5002 165.874 29.841 165.708 30.2342C165.55 30.6186 165.472 31.0467 165.472 31.5185C165.472 31.9816 165.55 32.4097 165.708 32.8029C165.874 33.196 166.101 33.5411 166.389 33.8382C166.677 34.1265 167.018 34.3493 167.411 34.5066C167.804 34.6639 168.233 34.7425 168.696 34.7425ZM176.127 36.1055V27.5868L176.874 28.36H174.187V26.9315H177.831V36.1055H176.127Z" fill="#6271FF"/>
<path d="M204.719 102.921C204.719 84.8254 190.05 70.1565 171.954 70.1565C153.859 70.1565 139.19 84.8254 139.19 102.921C139.19 121.016 153.859 135.685 171.954 135.685C190.05 135.685 204.719 121.016 204.719 102.921Z" fill="#6271FF"/>
<g filter="url(#filter0_d_8_428)">
<path d="M172.016 126.489C184.999 126.489 195.524 115.965 195.524 102.982C195.524 89.9985 184.999 79.4736 172.016 79.4736C159.033 79.4736 148.508 89.9985 148.508 102.982C148.508 115.965 159.033 126.489 172.016 126.489Z" fill="url(#paint0_linear_8_428)"/>
</g>
<path d="M155.568 107.145V105.768L159.107 102.427C159.386 102.173 159.592 101.946 159.723 101.745C159.854 101.544 159.941 101.361 159.985 101.195C160.037 101.029 160.063 100.876 160.063 100.736C160.063 100.369 159.937 100.089 159.683 99.8971C159.439 99.6962 159.076 99.5957 158.596 99.5957C158.211 99.5957 157.853 99.67 157.521 99.8185C157.198 99.967 156.922 100.199 156.695 100.513L155.149 99.5171C155.498 98.9928 155.988 98.5778 156.617 98.272C157.246 97.9662 157.971 97.8133 158.792 97.8133C159.474 97.8133 160.068 97.9269 160.575 98.1541C161.09 98.3725 161.488 98.6827 161.767 99.0846C162.056 99.4865 162.2 99.967 162.2 100.526C162.2 100.823 162.16 101.12 162.082 101.417C162.012 101.706 161.863 102.011 161.636 102.335C161.418 102.658 161.094 103.021 160.666 103.423L157.731 106.188L157.324 105.415H162.501V107.145H155.568ZM167.309 107.302C166.557 107.302 165.885 107.118 165.291 106.751C164.696 106.376 164.229 105.834 163.888 105.126C163.548 104.419 163.377 103.562 163.377 102.558C163.377 101.553 163.548 100.697 163.888 99.9889C164.229 99.2812 164.696 98.7438 165.291 98.3769C165.885 98.0012 166.557 97.8133 167.309 97.8133C168.069 97.8133 168.742 98.0012 169.327 98.3769C169.921 98.7438 170.389 99.2812 170.729 99.9889C171.07 100.697 171.241 101.553 171.241 102.558C171.241 103.562 171.07 104.419 170.729 105.126C170.389 105.834 169.921 106.376 169.327 106.751C168.742 107.118 168.069 107.302 167.309 107.302ZM167.309 105.506C167.667 105.506 167.977 105.406 168.239 105.205C168.51 105.004 168.72 104.685 168.868 104.248C169.026 103.811 169.104 103.248 169.104 102.558C169.104 101.867 169.026 101.304 168.868 100.867C168.72 100.43 168.51 100.111 168.239 99.9102C167.977 99.7093 167.667 99.6088 167.309 99.6088C166.959 99.6088 166.649 99.7093 166.378 99.9102C166.116 100.111 165.907 100.43 165.749 100.867C165.601 101.304 165.526 101.867 165.526 102.558C165.526 103.248 165.601 103.811 165.749 104.248C165.907 104.685 166.116 105.004 166.378 105.205C166.649 105.406 166.959 105.506 167.309 105.506ZM172.142 107.145V105.768L175.681 102.427C175.96 102.173 176.166 101.946 176.297 101.745C176.428 101.544 176.515 101.361 176.559 101.195C176.611 101.029 176.637 100.876 176.637 100.736C176.637 100.369 176.511 100.089 176.257 99.8971C176.013 99.6962 175.65 99.5957 175.17 99.5957C174.785 99.5957 174.427 99.67 174.095 99.8185C173.772 99.967 173.496 100.199 173.269 100.513L171.723 99.5171C172.072 98.9928 172.562 98.5778 173.191 98.272C173.82 97.9662 174.545 97.8133 175.366 97.8133C176.048 97.8133 176.642 97.9269 177.149 98.1541C177.664 98.3725 178.062 98.6827 178.341 99.0846C178.63 99.4865 178.774 99.967 178.774 100.526C178.774 100.823 178.734 101.12 178.656 101.417C178.586 101.706 178.437 102.011 178.21 102.335C177.992 102.658 177.668 103.021 177.24 103.423L174.305 106.188L173.898 105.415H179.075V107.145H172.142ZM179.706 105.218V103.789L184.03 97.9706H186.258L182.025 103.789L180.99 103.488H188.211V105.218H179.706ZM184.646 107.145V105.218L184.712 103.488V101.771H186.717V107.145H184.646Z" fill="#6271FF"/>
<rect y="6" width="342" height="1" fill="url(#paint1_linear_8_428)"/>
<circle cx="171" cy="6" r="5" fill="url(#paint2_linear_8_428)" stroke="#1E1A33" stroke-width="2"/>
<circle cx="102" cy="6" r="5" fill="white" stroke="#1E1A33" stroke-width="2"/>
<circle cx="240" cy="6" r="5" fill="white" stroke="#1E1A33" stroke-width="2"/>
<circle cx="309" cy="6" r="5" fill="white" stroke="#1E1A33" stroke-width="2"/>
<circle cx="33" cy="6" r="5" fill="white" stroke="#1E1A33" stroke-width="2"/>
<defs>
<filter id="filter0_d_8_428" x="139.725" y="74.4548" width="64.5814" height="64.5814" filterUnits="userSpaceOnUse" color-interpolation-filters="sRGB">
<feFlood flood-opacity="0" result="BackgroundImageFix"/>
<feColorMatrix in="SourceAlpha" type="matrix" values="0 0 0 0 0 0 0 0 0 0 0 0 0 0 0 0 0 0 127 0" result="hardAlpha"/>
<feOffset dy="3.7641"/>
<feGaussianBlur stdDeviation="4.39145"/>
<feComposite in2="hardAlpha" operator="out"/>
<feColorMatrix type="matrix" values="0 0 0 0 0 0 0 0 0 0 0 0 0 0 0 0 0 0 0.25 0"/>
<feBlend mode="normal" in2="BackgroundImageFix" result="effect1_dropShadow_8_428"/>
<feBlend mode="normal" in="SourceGraphic" in2="effect1_dropShadow_8_428" result="shape"/>
</filter>
<linearGradient id="paint0_linear_8_428" x1="155.449" y1="86.4012" x2="188.631" y2="119.583" gradientUnits="userSpaceOnUse">
<stop stop-color="#ECEFF1"/>
<stop offset="1" stop-color="white"/>
</linearGradient>
<linearGradient id="paint1_linear_8_428" x1="0" y1="6" x2="0.00572538" y2="8.00044" gradientUnits="userSpaceOnUse">
<stop stop-color="#F7138F"/>
<stop offset="1" stop-color="#FBA45A"/>
</linearGradient>
<linearGradient id="paint2_linear_8_428" x1="165" y1="0" x2="177" y2="12.2596" gradientUnits="userSpaceOnUse">
<stop stop-color="#F7138F"/>
<stop offset="1" stop-color="#FBA45A"/>
</linearGradient>
</defs>
</svg>
