<svg width="342" height="144" viewBox="0 0 342 144" fill="none" xmlns="http://www.w3.org/2000/svg">
<mask id="mask0_8_427" style="mask-type:alpha" maskUnits="userSpaceOnUse" x="131" y="12" width="81" height="132">
<path d="M212 101.191C212 124.313 193.868 143.056 171.5 143.056C149.132 143.056 131 124.313 131 101.191C131 78.0695 148.906 12 171.274 12C193.641 12 212 78.0695 212 101.191Z" fill="#D9D9D9"/>
</mask>
<g mask="url(#mask0_8_427)">
<path d="M734.481 17.7712C727.395 18.5713 722.024 24.0571 721.452 31.1431C720.995 37.0861 724.081 42.4577 728.881 45.0864C731.967 46.8007 733.91 50.1151 733.91 53.5438V53.7724C733.91 58.2296 730.938 62.1155 726.595 63.1441C711.395 66.8013 699.623 79.0303 696.537 94.345C695.852 97.6594 692.88 100.06 689.566 100.06H688.766C685.337 100.06 682.48 97.6594 681.794 94.345C678.137 76.5159 662.479 62.6869 643.736 62.0012C623.392 61.2012 606.249 75.373 602.477 94.4593C601.792 97.7737 598.82 100.06 595.506 100.06H594.706C591.277 100.06 588.42 97.6594 587.734 94.345V94.4593C584.648 79.1446 572.991 67.0299 558.019 63.2584C553.676 62.2298 550.476 58.5725 550.361 54.1152C550.247 50.458 552.076 46.915 555.276 45.2007C559.733 42.6863 562.819 37.8861 562.819 32.4003C562.819 23.7143 555.39 16.8569 546.476 17.7712C539.39 18.5713 534.018 24.0571 533.447 31.1431C532.989 37.0861 536.075 42.4577 540.875 45.0864C543.961 46.8007 545.904 50.1151 545.904 53.5438V53.7724C545.904 58.2296 542.933 62.1155 538.59 63.1441C523.389 66.8013 511.617 79.0303 508.532 94.345C507.846 97.6594 504.874 100.06 501.56 100.06H500.76C497.331 100.06 494.474 97.6594 493.788 94.345C490.131 76.5159 474.473 62.6869 455.73 62.0012C435.386 61.2012 418.243 75.373 414.471 94.4593C413.786 97.7737 410.814 100.06 407.5 100.06H406.7C403.271 100.06 400.414 97.6594 399.728 94.345C396.642 79.0303 384.871 66.8013 369.784 63.1441C364.641 61.8869 361.327 56.7439 362.698 51.258C363.384 48.6293 365.098 46.3436 367.499 44.9721C371.842 42.4577 374.813 37.6576 374.813 32.286C374.813 23.6 367.384 16.7426 358.47 17.6569C351.384 18.457 346.012 23.9428 345.441 31.0288C344.984 36.9718 348.069 42.3434 352.87 44.9721C355.955 46.6864 357.898 50.0008 357.898 53.4295V53.6581C357.898 58.1153 354.927 62.0012 350.584 63.0298C335.383 66.687 323.611 78.916 320.526 94.2308C319.84 97.5451 316.868 99.9452 313.554 99.9452H312.754C309.325 99.9452 306.468 97.5451 305.782 94.2308C302.125 76.4016 286.467 62.5726 267.724 61.8869C247.381 61.0869 230.237 75.2587 226.466 94.345C225.78 97.6594 222.808 99.9452 219.494 99.9452H218.58C215.265 99.9452 212.408 97.6594 211.722 94.345C208.636 79.0303 196.979 66.8013 182.007 63.0298C177.664 61.8869 174.464 58.3439 174.35 53.8866C174.235 50.2294 176.064 46.6864 179.264 44.9721C183.721 42.4577 186.807 37.6576 186.807 32.1717C186.807 23.4857 179.378 16.6283 170.464 17.5426C163.378 18.3427 158.006 23.8286 157.435 30.9145C156.978 36.8575 160.064 42.2291 164.864 44.8578C167.95 46.5721 169.892 49.8865 169.892 53.3152V53.5438C169.892 58.0011 166.807 61.8869 162.464 62.9155C143.606 67.7156 130.234 84.5162 131.034 104.402C131.948 125.203 148.863 142.118 169.664 143.032C190.007 143.947 207.265 129.775 211.151 110.688C211.837 107.374 214.694 104.974 218.122 104.974H219.037C222.351 104.974 225.208 107.26 225.894 110.574C228.98 125.889 240.637 138.118 255.609 141.889C259.952 143.032 263.152 146.575 263.267 151.033C263.381 154.69 261.552 158.233 258.352 159.947C253.895 162.461 250.809 167.262 250.809 172.747C250.809 181.433 258.238 188.291 267.153 187.377C274.239 186.576 279.61 181.091 280.182 174.005C280.639 168.062 277.553 162.69 272.753 160.061C269.667 158.347 267.724 155.033 267.724 151.604V151.375C267.724 146.918 270.696 143.032 275.039 142.004C290.239 138.346 302.011 126.117 305.097 110.803C305.782 107.488 308.754 105.088 312.068 105.088H312.868C316.297 105.088 319.154 107.488 319.84 110.803C323.497 128.632 339.155 142.461 357.898 143.147C378.242 143.947 395.385 129.775 399.157 110.688C399.842 107.374 402.814 105.088 406.128 105.088H407.043C410.357 105.088 413.214 107.374 413.9 110.688C416.986 126.003 428.643 138.232 443.615 142.004C447.958 143.147 451.158 146.69 451.273 151.147C451.387 154.804 449.558 158.347 446.358 160.061C441.901 162.576 438.815 167.376 438.815 172.862C438.815 181.548 446.244 188.405 455.158 187.491C462.244 186.691 467.616 181.205 468.187 174.119C468.645 168.176 465.559 162.804 460.759 160.176C457.673 158.461 455.73 155.147 455.73 151.718V151.49C455.73 147.032 458.701 143.147 463.044 142.118C478.245 138.461 490.017 126.232 493.102 110.917C493.788 107.603 496.76 105.203 500.074 105.203H500.874C504.303 105.203 507.16 107.603 507.846 110.917C511.503 128.746 527.161 142.575 545.904 143.261C566.248 144.061 583.391 129.775 587.163 110.803C587.848 107.488 590.82 105.203 594.134 105.203H595.049C598.363 105.203 601.22 107.488 601.906 110.803C604.992 126.117 616.649 138.346 631.621 142.118C635.964 143.261 639.164 146.804 639.278 151.261C639.393 154.918 637.564 158.461 634.364 160.176C629.907 162.69 626.821 167.49 626.821 172.976C626.821 181.662 634.25 188.519 643.164 187.605C650.25 186.805 655.622 181.319 656.193 174.233C656.65 168.29 653.565 162.919 648.764 160.29C645.679 158.576 643.736 155.261 643.736 151.833V151.604C643.736 147.147 646.707 143.261 651.05 142.232C666.251 138.575 678.023 126.346 681.108 111.031C681.794 107.717 684.766 105.317 688.08 105.317H688.88C692.309 105.317 695.166 107.717 695.852 111.031C699.509 128.86 715.167 142.689 733.91 143.375C756.996 144.289 775.968 125.775 775.968 102.917C775.968 83.9447 762.939 68.0585 745.453 63.7155C741.11 62.6869 737.91 58.9154 737.796 54.5724C737.682 50.9151 739.51 47.3721 742.71 45.6578C747.168 43.1434 750.253 38.3433 750.253 32.8574C750.825 23.7143 743.282 16.8569 734.481 17.7712Z" fill="white"/>
</g>
<path d="M166.693 36.2365C165.977 36.2365 165.317 36.1186 164.714 35.8827C164.111 35.6468 163.587 35.3191 163.141 34.8998C162.696 34.4716 162.351 33.9736 162.106 33.4057C161.861 32.8291 161.739 32.2 161.739 31.5185C161.739 30.837 161.861 30.2123 162.106 29.6444C162.351 29.0678 162.696 28.5697 163.141 28.1504C163.587 27.7222 164.111 27.3902 164.714 27.1543C165.317 26.9184 165.972 26.8005 166.68 26.8005C167.396 26.8005 168.052 26.9184 168.646 27.1543C169.249 27.3902 169.773 27.7179 170.218 28.1373C170.664 28.5566 171.009 29.0546 171.254 29.6313C171.498 30.2079 171.621 30.837 171.621 31.5185C171.621 32.2 171.498 32.8291 171.254 33.4057C171.009 33.9824 170.664 34.4804 170.218 34.8998C169.773 35.3191 169.249 35.6468 168.646 35.8827C168.052 36.1186 167.401 36.2365 166.693 36.2365ZM169.681 38.1106C169.358 38.1106 169.043 38.0713 168.737 37.9927C168.44 37.9228 168.143 37.8005 167.846 37.6257C167.558 37.4597 167.256 37.2369 166.942 36.9573C166.627 36.6865 166.282 36.3501 165.907 35.9482L167.715 35.4764C167.96 35.7997 168.191 36.0574 168.41 36.2496C168.637 36.4506 168.855 36.5947 169.065 36.6821C169.275 36.7695 169.493 36.8132 169.72 36.8132C170.323 36.8132 170.847 36.5685 171.293 36.0793L172.079 37.0229C171.468 37.748 170.668 38.1106 169.681 38.1106ZM166.68 34.7425C167.143 34.7425 167.571 34.6639 167.964 34.5066C168.357 34.3493 168.698 34.1265 168.986 33.8382C169.275 33.5411 169.498 33.196 169.655 32.8029C169.821 32.4097 169.904 31.9816 169.904 31.5185C169.904 31.0467 169.821 30.6186 169.655 30.2342C169.498 29.841 169.275 29.5002 168.986 29.2119C168.698 28.9149 168.357 28.6877 167.964 28.5304C167.571 28.3732 167.143 28.2945 166.68 28.2945C166.217 28.2945 165.789 28.3732 165.395 28.5304C165.002 28.6877 164.662 28.9149 164.373 29.2119C164.085 29.5002 163.858 29.841 163.692 30.2342C163.534 30.6186 163.456 31.0467 163.456 31.5185C163.456 31.9816 163.534 32.4097 163.692 32.8029C163.858 33.196 164.085 33.5411 164.373 33.8382C164.662 34.1265 165.002 34.3493 165.395 34.5066C165.789 34.6639 166.217 34.7425 166.68 34.7425ZM172.64 34.0217V32.8422L177.162 26.9315H178.983L174.527 32.8422L173.676 32.5801H180.949V34.0217H172.64ZM177.673 36.1055V34.0217L177.725 32.5801V30.7322H179.324V36.1055H177.673Z" fill="#6AAB21"/>
<path d="M204.719 102.921C204.719 84.8254 190.05 70.1565 171.954 70.1565C153.859 70.1565 139.19 84.8254 139.19 102.921C139.19 121.016 153.859 135.685 171.954 135.685C190.05 135.685 204.719 121.016 204.719 102.921Z" fill="#6AAB21"/>
<g filter="url(#filter0_d_8_427)">
<path d="M172.016 126.489C184.999 126.489 195.524 115.965 195.524 102.982C195.524 89.9985 184.999 79.4736 172.016 79.4736C159.033 79.4736 148.508 89.9985 148.508 102.982C148.508 115.965 159.033 126.489 172.016 126.489Z" fill="url(#paint0_linear_8_427)"/>
</g>
<path d="M163.596 105.415V107.145H156.663V105.768L160.202 102.427C160.578 102.068 160.831 101.762 160.962 101.509C161.093 101.247 161.159 100.989 161.159 100.736C161.159 100.369 161.032 100.089 160.779 99.8971C160.534 99.6962 160.171 99.5957 159.691 99.5957C159.289 99.5957 158.926 99.6743 158.603 99.8316C158.28 99.9801 158.009 100.207 157.79 100.513L156.244 99.5171C156.602 98.9841 157.096 98.5691 157.725 98.272C158.354 97.9662 159.075 97.8133 159.887 97.8133C160.569 97.8133 161.163 97.9269 161.67 98.1541C162.185 98.3725 162.583 98.687 162.862 99.0977C163.151 99.4996 163.295 99.9758 163.295 100.526C163.295 101.024 163.19 101.492 162.98 101.928C162.771 102.365 162.364 102.863 161.761 103.423L159.651 105.415H163.596ZM168.378 107.302C167.618 107.302 166.941 107.114 166.347 106.738C165.753 106.363 165.285 105.821 164.945 105.113C164.613 104.397 164.447 103.545 164.447 102.558C164.447 101.57 164.613 100.723 164.945 100.015C165.285 99.2986 165.753 98.7526 166.347 98.3769C166.941 98.0012 167.618 97.8133 168.378 97.8133C169.138 97.8133 169.816 98.0012 170.41 98.3769C171.004 98.7526 171.467 99.2986 171.799 100.015C172.14 100.723 172.31 101.57 172.31 102.558C172.31 103.545 172.14 104.397 171.799 105.113C171.467 105.821 171.004 106.363 170.41 106.738C169.816 107.114 169.138 107.302 168.378 107.302ZM168.378 105.506C168.938 105.506 169.374 105.266 169.689 104.786C170.012 104.305 170.174 103.562 170.174 102.558C170.174 101.553 170.012 100.81 169.689 100.33C169.374 99.8491 168.938 99.6088 168.378 99.6088C167.828 99.6088 167.391 99.8491 167.068 100.33C166.753 100.81 166.596 101.553 166.596 102.558C166.596 103.562 166.753 104.305 167.068 104.786C167.391 105.266 167.828 105.506 168.378 105.506ZM180.119 105.415V107.145H173.186V105.768L176.725 102.427C177.1 102.068 177.354 101.762 177.485 101.509C177.616 101.247 177.681 100.989 177.681 100.736C177.681 100.369 177.555 100.089 177.301 99.8971C177.057 99.6962 176.694 99.5957 176.214 99.5957C175.812 99.5957 175.449 99.6743 175.126 99.8316C174.803 99.9801 174.532 100.207 174.313 100.513L172.767 99.5171C173.125 98.9841 173.619 98.5691 174.248 98.272C174.877 97.9662 175.598 97.8133 176.41 97.8133C177.092 97.8133 177.686 97.9269 178.193 98.1541C178.708 98.3725 179.106 98.687 179.385 99.0977C179.673 99.4996 179.818 99.9758 179.818 100.526C179.818 101.024 179.713 101.492 179.503 101.928C179.293 102.365 178.887 102.863 178.284 103.423L176.174 105.415H180.119ZM185.281 101.706C186.084 101.837 186.7 102.138 187.129 102.61C187.557 103.073 187.771 103.65 187.771 104.34C187.771 104.873 187.631 105.367 187.351 105.821C187.072 106.266 186.644 106.625 186.067 106.896C185.499 107.166 184.8 107.302 183.97 107.302C183.324 107.302 182.686 107.219 182.057 107.053C181.436 106.878 180.908 106.633 180.471 106.319L181.297 104.694C181.646 104.956 182.048 105.161 182.502 105.31C182.965 105.45 183.437 105.519 183.918 105.519C184.451 105.519 184.87 105.419 185.176 105.218C185.482 105.008 185.634 104.716 185.634 104.34C185.634 103.589 185.062 103.213 183.918 103.213H182.948V101.811L184.835 99.6743H180.93V97.9706H187.351V99.3467L185.281 101.706Z" fill="#6AAB21"/>
<rect y="6" width="342" height="1" fill="url(#paint1_linear_8_427)"/>
<circle cx="171" cy="6" r="5" fill="url(#paint2_linear_8_427)" stroke="#1E1A33" stroke-width="2"/>
<circle cx="102" cy="6" r="5" fill="white" stroke="#1E1A33" stroke-width="2"/>
<circle cx="240" cy="6" r="5" fill="white" stroke="#1E1A33" stroke-width="2"/>
<circle cx="309" cy="6" r="5" fill="white" stroke="#1E1A33" stroke-width="2"/>
<circle cx="33" cy="6" r="5" fill="white" stroke="#1E1A33" stroke-width="2"/>
<defs>
<filter id="filter0_d_8_427" x="139.725" y="74.4548" width="64.5814" height="64.5814" filterUnits="userSpaceOnUse" color-interpolation-filters="sRGB">
<feFlood flood-opacity="0" result="BackgroundImageFix"/>
<feColorMatrix in="SourceAlpha" type="matrix" values="0 0 0 0 0 0 0 0 0 0 0 0 0 0 0 0 0 0 127 0" result="hardAlpha"/>
<feOffset dy="3.7641"/>
<feGaussianBlur stdDeviation="4.39145"/>
<feComposite in2="hardAlpha" operator="out"/>
<feColorMatrix type="matrix" values="0 0 0 0 0 0 0 0 0 0 0 0 0 0 0 0 0 0 0.25 0"/>
<feBlend mode="normal" in2="BackgroundImageFix" result="effect1_dropShadow_8_427"/>
<feBlend mode="normal" in="SourceGraphic" in2="effect1_dropShadow_8_427" result="shape"/>
</filter>
<linearGradient id="paint0_linear_8_427" x1="155.449" y1="86.4012" x2="188.631" y2="119.583" gradientUnits="userSpaceOnUse">
<stop stop-color="#ECEFF1"/>
<stop offset="1" stop-color="white"/>
</linearGradient>
<linearGradient id="paint1_linear_8_427" x1="0" y1="6" x2="0.00572538" y2="8.00044" gradientUnits="userSpaceOnUse">
<stop stop-color="#F7138F"/>
<stop offset="1" stop-color="#FBA45A"/>
</linearGradient>
<linearGradient id="paint2_linear_8_427" x1="165" y1="0" x2="177" y2="12.2596" gradientUnits="userSpaceOnUse">
<stop stop-color="#F7138F"/>
<stop offset="1" stop-color="#FBA45A"/>
</linearGradient>
</defs>
</svg>
