<svg width="296" height="1010" viewBox="0 0 296 1010" fill="none" xmlns="http://www.w3.org/2000/svg">
<path d="M126.987 1003.78C161.087 997.078 188.387 969.878 195.987 935.978C198.887 927.678 206.387 921.778 215.387 921.478C223.387 921.178 231.187 925.278 234.987 932.278C240.487 942.078 251.087 948.878 263.087 948.878C282.187 948.878 297.287 932.578 295.187 912.978C293.387 897.378 281.387 885.578 265.787 884.378C252.687 883.378 240.887 890.178 235.187 900.678C231.387 907.478 224.087 911.778 216.587 911.778H216.087C206.887 911.778 198.787 906.078 195.987 897.478C188.487 863.278 161.287 836.478 126.687 829.578C125.787 829.378 124.987 829.178 124.187 828.878C119.787 827.078 116.387 823.278 114.987 818.778C114.987 818.578 114.887 818.478 114.887 818.278C114.887 818.178 114.887 818.078 114.787 817.978C114.487 816.778 114.287 815.478 114.287 814.178V812.478C114.287 804.978 119.587 798.678 126.887 797.178C133.087 795.878 139.087 793.978 144.787 791.378C168.287 781.078 186.487 760.978 194.087 736.178C194.187 735.878 194.287 735.578 194.387 735.278C194.587 734.678 194.687 734.178 194.887 733.578C195.087 732.778 195.287 731.978 195.487 731.178C198.287 719.978 209.587 712.678 221.587 715.678C227.387 717.178 232.387 720.978 235.387 726.178C240.887 735.678 251.487 742.278 263.287 742.278C282.387 742.278 297.487 725.978 295.387 706.378C293.587 690.778 281.587 678.978 265.987 677.778C252.887 676.778 241.087 683.578 235.387 694.078C231.587 700.878 224.287 705.178 216.787 705.178H216.387C206.587 705.178 198.087 698.678 195.787 689.078C190.187 665.978 175.687 646.478 156.087 634.378C155.687 634.178 155.387 633.978 154.987 633.678C154.387 633.378 153.787 632.978 153.187 632.678C152.587 632.378 152.087 632.078 151.487 631.778C151.087 631.578 150.787 631.378 150.387 631.178C142.987 627.378 135.087 624.478 126.687 622.878C126.287 622.778 125.887 622.678 125.487 622.578C119.087 620.478 114.587 614.378 114.587 607.678V605.978C114.587 598.478 119.887 592.178 127.187 590.678C161.587 583.578 189.187 556.178 196.487 521.778C200.387 512.178 210.687 506.378 221.687 509.178C227.487 510.678 232.487 514.478 235.487 519.678C240.987 529.178 251.587 535.778 263.387 535.778C282.487 535.778 297.587 519.478 295.487 499.878C293.688 484.278 281.687 472.478 266.087 471.278C252.987 470.278 241.187 477.078 235.487 487.578C231.687 494.378 224.387 498.678 216.887 498.678H216.387C207.187 498.678 199.087 492.878 196.287 484.378C188.787 450.178 161.587 423.378 126.987 416.478C126.087 416.278 125.287 416.078 124.487 415.778C120.087 413.978 116.687 410.178 115.287 405.678C115.287 405.478 115.187 405.378 115.187 405.178C115.187 405.078 115.187 404.978 115.087 404.878C114.787 403.678 114.587 402.378 114.587 401.078V399.378C114.587 391.878 119.887 385.578 127.187 384.078C137.487 381.978 147.187 377.978 155.987 372.578C156.187 372.478 156.387 372.378 156.487 372.278C157.087 371.878 157.587 371.578 158.187 371.178C176.587 359.178 190.287 340.578 195.787 318.678C198.287 309.178 206.087 302.078 215.887 301.878C223.887 301.578 231.687 305.678 235.487 312.678C240.987 322.478 251.587 329.278 263.587 329.278C282.687 329.278 297.787 312.978 295.687 293.378C293.887 277.778 281.887 265.978 266.287 264.778C253.187 263.778 241.387 270.578 235.687 281.078C231.887 287.878 224.587 292.178 217.087 292.178H216.587C206.787 292.178 198.287 285.378 195.987 275.878C186.787 239.878 157.787 212.978 121.587 207.678C117.287 204.878 114.587 199.878 114.587 194.578V192.578C114.587 185.278 119.587 178.978 126.887 177.478C160.587 170.678 187.387 145.078 195.687 112.178C198.187 102.678 205.987 95.5783 215.787 95.3783C223.787 95.0783 231.587 99.1783 235.387 106.178C240.887 115.978 251.487 122.778 263.487 122.778C282.587 122.778 297.688 106.478 295.587 86.8783C293.788 71.2784 281.787 59.4783 266.187 58.2783C253.087 57.2783 241.287 64.0783 235.587 74.5783C231.787 81.3783 224.487 85.6783 216.987 85.6783H216.487C206.687 85.6783 198.187 78.8783 195.887 69.3783C185.487 27.6783 148.587 -1.72166 104.887 0.0783443C59.1875 2.07834 21.9875 39.2783 19.9875 84.9783C17.9875 129.678 49.0875 167.578 91.0875 176.178C98.3875 177.678 103.687 183.978 103.687 191.478V193.478C103.687 200.078 99.4875 205.878 93.2875 207.978C77.4875 210.778 62.9875 217.878 51.1875 227.978C50.4875 228.578 49.8875 229.178 49.1875 229.678C49.0875 229.778 48.9875 229.878 48.8875 229.978C39.4875 238.478 31.9875 248.978 26.8875 260.678L26.9875 260.778C22.8875 270.278 20.3875 280.678 19.9875 291.578C18.9875 313.678 26.0875 334.078 38.5875 350.178C38.5875 350.178 38.5875 350.278 38.4875 350.278C46.4875 360.578 56.7875 368.978 68.4875 374.878C75.4875 378.478 83.0875 381.078 90.9875 382.778C92.3875 383.078 93.5875 383.478 94.7875 384.078C99.8875 386.778 103.287 392.078 103.287 397.878V399.678C103.287 407.178 97.9875 413.478 90.6875 414.978C51.4875 422.978 21.0875 457.378 19.5875 498.578C17.7875 543.278 48.9875 580.978 90.8875 589.278C91.7875 589.478 92.5875 589.678 93.3875 589.978C97.7875 591.778 101.187 595.578 102.587 600.078C102.587 600.278 102.687 600.378 102.687 600.578C102.687 600.678 102.687 600.778 102.787 600.878C103.087 602.078 103.287 603.378 103.287 604.678V606.378C103.287 613.878 97.9875 620.178 90.6875 621.678C79.4875 623.978 68.9875 628.478 59.6875 634.578C44.7875 644.378 32.8875 658.478 26.0875 675.178L26.1875 675.278C22.3875 684.578 20.0875 694.678 19.6875 705.278C19.0875 721.778 22.8875 737.278 30.0875 750.678V750.778C36.8875 763.478 46.7875 774.378 58.6875 782.378C58.6875 782.378 58.7875 782.378 58.7875 782.478C59.6875 783.078 60.6875 783.678 61.6875 784.278C61.9875 784.478 62.2875 784.678 62.5875 784.778C63.2875 785.178 63.9875 785.578 64.5875 785.978C65.2875 786.378 65.8875 786.678 66.5875 787.078C66.9875 787.278 67.3875 787.478 67.7875 787.778C74.9875 791.478 82.8875 794.278 91.0875 795.878C91.4875 795.978 91.8875 796.078 92.2875 796.178C98.6875 798.278 103.187 804.378 103.187 811.078V812.878C103.187 820.378 97.8875 826.678 90.5875 828.178C51.3875 836.178 20.9875 870.578 19.4875 911.778C17.6875 956.478 49.0875 994.178 90.7875 1002.48C90.7875 1002.38 111.887 1006.78 126.987 1003.78Z" fill="white"/>
<path d="M186.806 89.3007C186.806 46.576 152.17 11.9408 109.446 11.9408C66.7209 11.9408 32.0857 46.576 32.0857 89.3007C32.0857 132.025 66.7209 166.661 109.446 166.661C152.17 166.661 186.806 132.025 186.806 89.3007Z" fill="#E6148B"/>
<g filter="url(#filter0_d_6_424)">
<path d="M109.414 144.734C140.068 144.734 164.919 119.884 164.919 89.2292C164.919 58.5746 140.068 33.7241 109.414 33.7241C78.7592 33.7241 53.9087 58.5746 53.9087 89.2292C53.9087 119.884 78.7592 144.734 109.414 144.734Z" fill="url(#paint0_linear_6_424)"/>
</g>
<path d="M109.414 373.285C152.136 373.285 186.769 338.651 186.769 295.929C186.769 253.207 152.136 218.574 109.414 218.574C66.6916 218.574 32.0583 253.207 32.0583 295.929C32.0583 338.651 66.6916 373.285 109.414 373.285Z" fill="#FBA45A"/>
<g filter="url(#filter1_d_6_424)">
<path d="M109.414 351.435C140.068 351.435 164.919 326.584 164.919 295.93C164.919 265.275 140.068 240.425 109.414 240.425C78.7592 240.425 53.9087 265.275 53.9087 295.93C53.9087 326.584 78.7592 351.435 109.414 351.435Z" fill="url(#paint1_linear_6_424)"/>
</g>
<path d="M109.414 580.236C152.136 580.236 186.769 545.603 186.769 502.88C186.769 460.158 152.136 425.525 109.414 425.525C66.6916 425.525 32.0583 460.158 32.0583 502.88C32.0583 545.603 66.6916 580.236 109.414 580.236Z" fill="#6AAB21"/>
<g filter="url(#filter2_d_6_424)">
<path d="M109.414 558.386C140.068 558.386 164.919 533.535 164.919 502.881C164.919 472.226 140.068 447.375 109.414 447.375C78.7592 447.375 53.9087 472.226 53.9087 502.881C53.9087 533.535 78.7592 558.386 109.414 558.386Z" fill="url(#paint2_linear_6_424)"/>
</g>
<path d="M164.094 764.327C194.303 734.119 194.303 685.14 164.094 654.931C133.885 624.722 84.907 624.722 54.6981 654.931C24.4892 685.14 24.4891 734.119 54.698 764.327C84.9069 794.536 133.885 794.536 164.094 764.327Z" fill="#6271FF"/>
<g filter="url(#filter3_d_6_424)">
<path d="M109.414 765.085C140.068 765.085 164.919 740.235 164.919 709.58C164.919 678.926 140.068 654.075 109.414 654.075C78.7592 654.075 53.9087 678.926 53.9087 709.58C53.9087 740.235 78.7592 765.085 109.414 765.085Z" fill="url(#paint3_linear_6_424)"/>
</g>
<path d="M184.974 934.068C194.664 892.456 168.786 850.869 127.174 841.179C85.5626 831.49 43.9751 857.368 34.2857 898.979C24.5963 940.591 50.4742 982.179 92.0857 991.868C133.697 1001.56 175.285 975.679 184.974 934.068Z" fill="#E6148B"/>
<g filter="url(#filter4_d_6_424)">
<path d="M109.414 972.037C140.068 972.037 164.919 947.187 164.919 916.532C164.919 885.878 140.068 861.027 109.414 861.027C78.7592 861.027 53.9087 885.878 53.9087 916.532C53.9087 947.187 78.7592 972.037 109.414 972.037Z" fill="url(#paint4_linear_6_424)"/>
</g>
<path d="M73.7412 99.8008V96.6508L81.8412 89.0008C82.4812 88.4208 82.9512 87.9008 83.2512 87.4408C83.5512 86.9808 83.7512 86.5608 83.8512 86.1808C83.9712 85.8008 84.0312 85.4508 84.0312 85.1308C84.0312 84.2908 83.7412 83.6508 83.1612 83.2108C82.6012 82.7508 81.7712 82.5208 80.6712 82.5208C79.7912 82.5208 78.9712 82.6908 78.2112 83.0308C77.4712 83.3708 76.8412 83.9008 76.3212 84.6208L72.7812 82.3408C73.5812 81.1408 74.7012 80.1908 76.1412 79.4908C77.5812 78.7908 79.2412 78.4408 81.1212 78.4408C82.6812 78.4408 84.0412 78.7008 85.2012 79.2208C86.3812 79.7208 87.2912 80.4308 87.9312 81.3508C88.5912 82.2708 88.9212 83.3708 88.9212 84.6508C88.9212 85.3308 88.8312 86.0108 88.6512 86.6908C88.4912 87.3508 88.1512 88.0508 87.6312 88.7908C87.1312 89.5308 86.3912 90.3608 85.4112 91.2808L78.6912 97.6108L77.7612 95.8408H89.6112V99.8008H73.7412ZM100.617 100.161C98.8965 100.161 97.3565 99.7408 95.9965 98.9008C94.6365 98.0408 93.5665 96.8008 92.7865 95.1808C92.0065 93.5608 91.6165 91.6008 91.6165 89.3008C91.6165 87.0008 92.0065 85.0408 92.7865 83.4208C93.5665 81.8008 94.6365 80.5708 95.9965 79.7308C97.3565 78.8708 98.8965 78.4408 100.617 78.4408C102.357 78.4408 103.897 78.8708 105.237 79.7308C106.597 80.5708 107.667 81.8008 108.447 83.4208C109.227 85.0408 109.617 87.0008 109.617 89.3008C109.617 91.6008 109.227 93.5608 108.447 95.1808C107.667 96.8008 106.597 98.0408 105.237 98.9008C103.897 99.7408 102.357 100.161 100.617 100.161ZM100.617 96.0508C101.437 96.0508 102.147 95.8208 102.747 95.3608C103.367 94.9008 103.847 94.1708 104.187 93.1708C104.547 92.1708 104.727 90.8808 104.727 89.3008C104.727 87.7208 104.547 86.4308 104.187 85.4308C103.847 84.4308 103.367 83.7008 102.747 83.2408C102.147 82.7808 101.437 82.5508 100.617 82.5508C99.8165 82.5508 99.1065 82.7808 98.4865 83.2408C97.8865 83.7008 97.4065 84.4308 97.0465 85.4308C96.7065 86.4308 96.5365 87.7208 96.5365 89.3008C96.5365 90.8808 96.7065 92.1708 97.0465 93.1708C97.4065 94.1708 97.8865 94.9008 98.4865 95.3608C99.1065 95.8208 99.8165 96.0508 100.617 96.0508ZM111.681 99.8008V96.6508L119.781 89.0008C120.421 88.4208 120.891 87.9008 121.191 87.4408C121.491 86.9808 121.691 86.5608 121.791 86.1808C121.911 85.8008 121.971 85.4508 121.971 85.1308C121.971 84.2908 121.681 83.6508 121.101 83.2108C120.541 82.7508 119.711 82.5208 118.611 82.5208C117.731 82.5208 116.911 82.6908 116.151 83.0308C115.411 83.3708 114.781 83.9008 114.261 84.6208L110.721 82.3408C111.521 81.1408 112.641 80.1908 114.081 79.4908C115.521 78.7908 117.181 78.4408 119.061 78.4408C120.621 78.4408 121.981 78.7008 123.141 79.2208C124.321 79.7208 125.231 80.4308 125.871 81.3508C126.531 82.2708 126.861 83.3708 126.861 84.6508C126.861 85.3308 126.771 86.0108 126.591 86.6908C126.431 87.3508 126.091 88.0508 125.571 88.7908C125.071 89.5308 124.331 90.3608 123.351 91.2808L116.631 97.6108L115.701 95.8408H127.551V99.8008H111.681ZM136.366 100.161C134.906 100.161 133.456 99.9708 132.016 99.5908C130.576 99.1908 129.356 98.6308 128.356 97.9108L130.246 94.1908C131.046 94.7708 131.976 95.2308 133.036 95.5708C134.096 95.9108 135.166 96.0808 136.246 96.0808C137.466 96.0808 138.426 95.8408 139.126 95.3608C139.826 94.8808 140.176 94.2208 140.176 93.3808C140.176 92.5808 139.866 91.9508 139.246 91.4908C138.626 91.0308 137.626 90.8008 136.246 90.8008H134.026V87.5908L139.876 80.9608L140.416 82.7008H129.406V78.8008H144.106V81.9508L138.286 88.5808L135.826 87.1708H137.236C139.816 87.1708 141.766 87.7508 143.086 88.9108C144.406 90.0708 145.066 91.5608 145.066 93.3808C145.066 94.5608 144.756 95.6708 144.136 96.7108C143.516 97.7308 142.566 98.5608 141.286 99.2008C140.006 99.8408 138.366 100.161 136.366 100.161Z" fill="#E6148B"/>
<path d="M73.7412 513.059V509.909L81.8412 502.259C82.4812 501.679 82.9512 501.159 83.2512 500.699C83.5512 500.239 83.7512 499.819 83.8512 499.439C83.9712 499.059 84.0312 498.709 84.0312 498.389C84.0312 497.549 83.7412 496.909 83.1612 496.469C82.6012 496.009 81.7712 495.779 80.6712 495.779C79.7912 495.779 78.9712 495.949 78.2112 496.289C77.4712 496.629 76.8412 497.159 76.3212 497.879L72.7812 495.599C73.5812 494.399 74.7012 493.449 76.1412 492.749C77.5812 492.049 79.2412 491.699 81.1212 491.699C82.6812 491.699 84.0412 491.959 85.2012 492.479C86.3812 492.979 87.2912 493.689 87.9312 494.609C88.5912 495.529 88.9212 496.629 88.9212 497.909C88.9212 498.589 88.8312 499.269 88.6512 499.949C88.4912 500.609 88.1512 501.309 87.6312 502.049C87.1312 502.789 86.3912 503.619 85.4112 504.539L78.6912 510.869L77.7612 509.099H89.6112V513.059H73.7412ZM100.617 513.419C98.8965 513.419 97.3565 512.999 95.9965 512.159C94.6365 511.299 93.5665 510.059 92.7865 508.439C92.0065 506.819 91.6165 504.859 91.6165 502.559C91.6165 500.259 92.0065 498.299 92.7865 496.679C93.5665 495.059 94.6365 493.829 95.9965 492.989C97.3565 492.129 98.8965 491.699 100.617 491.699C102.357 491.699 103.897 492.129 105.237 492.989C106.597 493.829 107.667 495.059 108.447 496.679C109.227 498.299 109.617 500.259 109.617 502.559C109.617 504.859 109.227 506.819 108.447 508.439C107.667 510.059 106.597 511.299 105.237 512.159C103.897 512.999 102.357 513.419 100.617 513.419ZM100.617 509.309C101.437 509.309 102.147 509.079 102.747 508.619C103.367 508.159 103.847 507.429 104.187 506.429C104.547 505.429 104.727 504.139 104.727 502.559C104.727 500.979 104.547 499.689 104.187 498.689C103.847 497.689 103.367 496.959 102.747 496.499C102.147 496.039 101.437 495.809 100.617 495.809C99.8165 495.809 99.1065 496.039 98.4865 496.499C97.8865 496.959 97.4065 497.689 97.0465 498.689C96.7065 499.689 96.5365 500.979 96.5365 502.559C96.5365 504.139 96.7065 505.429 97.0465 506.429C97.4065 507.429 97.8865 508.159 98.4865 508.619C99.1065 509.079 99.8165 509.309 100.617 509.309ZM111.681 513.059V509.909L119.781 502.259C120.421 501.679 120.891 501.159 121.191 500.699C121.491 500.239 121.691 499.819 121.791 499.439C121.911 499.059 121.971 498.709 121.971 498.389C121.971 497.549 121.681 496.909 121.101 496.469C120.541 496.009 119.711 495.779 118.611 495.779C117.731 495.779 116.911 495.949 116.151 496.289C115.411 496.629 114.781 497.159 114.261 497.879L110.721 495.599C111.521 494.399 112.641 493.449 114.081 492.749C115.521 492.049 117.181 491.699 119.061 491.699C120.621 491.699 121.981 491.959 123.141 492.479C124.321 492.979 125.231 493.689 125.871 494.609C126.531 495.529 126.861 496.629 126.861 497.909C126.861 498.589 126.771 499.269 126.591 499.949C126.431 500.609 126.091 501.309 125.571 502.049C125.071 502.789 124.331 503.619 123.351 504.539L116.631 510.869L115.701 509.099H127.551V513.059H111.681ZM136.366 513.419C134.906 513.419 133.456 513.229 132.016 512.849C130.576 512.449 129.356 511.889 128.356 511.169L130.246 507.449C131.046 508.029 131.976 508.489 133.036 508.829C134.096 509.169 135.166 509.339 136.246 509.339C137.466 509.339 138.426 509.099 139.126 508.619C139.826 508.139 140.176 507.479 140.176 506.639C140.176 505.839 139.866 505.209 139.246 504.749C138.626 504.289 137.626 504.059 136.246 504.059H134.026V500.849L139.876 494.219L140.416 495.959H129.406V492.059H144.106V495.209L138.286 501.839L135.826 500.429H137.236C139.816 500.429 141.766 501.009 143.086 502.169C144.406 503.329 145.066 504.819 145.066 506.639C145.066 507.819 144.756 508.929 144.136 509.969C143.516 510.989 142.566 511.819 141.286 512.459C140.006 513.099 138.366 513.419 136.366 513.419Z" fill="#6AAB21"/>
<path d="M72.9229 926.316V923.166L81.0229 915.516C81.6629 914.936 82.1329 914.416 82.4329 913.956C82.7329 913.496 82.9329 913.076 83.0329 912.696C83.1529 912.316 83.2129 911.966 83.2129 911.646C83.2129 910.806 82.9229 910.166 82.3429 909.726C81.7829 909.266 80.9529 909.036 79.8529 909.036C78.9729 909.036 78.1529 909.206 77.3929 909.546C76.6529 909.886 76.0229 910.416 75.5029 911.136L71.9629 908.856C72.7629 907.656 73.8829 906.706 75.3229 906.006C76.7629 905.306 78.4229 904.956 80.3029 904.956C81.8629 904.956 83.2229 905.216 84.3829 905.736C85.5629 906.236 86.4729 906.946 87.1129 907.866C87.7729 908.786 88.1029 909.886 88.1029 911.166C88.1029 911.846 88.0129 912.526 87.8329 913.206C87.6729 913.866 87.3329 914.566 86.8129 915.306C86.3129 916.046 85.5729 916.876 84.5929 917.796L77.8729 924.126L76.9429 922.356H88.7929V926.316H72.9229ZM99.7982 926.676C98.0782 926.676 96.5382 926.256 95.1782 925.416C93.8182 924.556 92.7482 923.316 91.9682 921.696C91.1882 920.076 90.7982 918.116 90.7982 915.816C90.7982 913.516 91.1882 911.556 91.9682 909.936C92.7482 908.316 93.8182 907.086 95.1782 906.246C96.5382 905.386 98.0782 904.956 99.7982 904.956C101.538 904.956 103.078 905.386 104.418 906.246C105.778 907.086 106.848 908.316 107.628 909.936C108.408 911.556 108.798 913.516 108.798 915.816C108.798 918.116 108.408 920.076 107.628 921.696C106.848 923.316 105.778 924.556 104.418 925.416C103.078 926.256 101.538 926.676 99.7982 926.676ZM99.7982 922.566C100.618 922.566 101.328 922.336 101.928 921.876C102.548 921.416 103.028 920.686 103.368 919.686C103.728 918.686 103.908 917.396 103.908 915.816C103.908 914.236 103.728 912.946 103.368 911.946C103.028 910.946 102.548 910.216 101.928 909.756C101.328 909.296 100.618 909.066 99.7982 909.066C98.9982 909.066 98.2882 909.296 97.6682 909.756C97.0682 910.216 96.5882 910.946 96.2282 911.946C95.8882 912.946 95.7182 914.236 95.7182 915.816C95.7182 917.396 95.8882 918.686 96.2282 919.686C96.5882 920.686 97.0682 921.416 97.6682 921.876C98.2882 922.336 98.9982 922.566 99.7982 922.566ZM110.862 926.316V923.166L118.962 915.516C119.602 914.936 120.072 914.416 120.372 913.956C120.672 913.496 120.872 913.076 120.972 912.696C121.092 912.316 121.152 911.966 121.152 911.646C121.152 910.806 120.862 910.166 120.282 909.726C119.722 909.266 118.892 909.036 117.792 909.036C116.912 909.036 116.092 909.206 115.332 909.546C114.592 909.886 113.962 910.416 113.442 911.136L109.902 908.856C110.702 907.656 111.822 906.706 113.262 906.006C114.702 905.306 116.362 904.956 118.242 904.956C119.802 904.956 121.162 905.216 122.322 905.736C123.502 906.236 124.412 906.946 125.052 907.866C125.712 908.786 126.042 909.886 126.042 911.166C126.042 911.846 125.952 912.526 125.772 913.206C125.612 913.866 125.272 914.566 124.752 915.306C124.252 916.046 123.512 916.876 122.532 917.796L115.812 924.126L114.882 922.356H126.732V926.316H110.862ZM128.205 921.906V918.636L138.105 905.316H143.205L133.515 918.636L131.145 917.946H147.675V921.906H128.205ZM139.515 926.316V921.906L139.665 917.946V914.016H144.255V926.316H139.515Z" fill="#E6148B"/>
<path d="M73.7412 306.43V303.28L81.8412 295.63C82.4812 295.05 82.9512 294.53 83.2512 294.07C83.5512 293.61 83.7512 293.19 83.8512 292.81C83.9712 292.43 84.0312 292.08 84.0312 291.76C84.0312 290.92 83.7412 290.28 83.1612 289.84C82.6012 289.38 81.7712 289.15 80.6712 289.15C79.7912 289.15 78.9712 289.32 78.2112 289.66C77.4712 290 76.8412 290.53 76.3212 291.25L72.7812 288.97C73.5812 287.77 74.7012 286.82 76.1412 286.12C77.5812 285.42 79.2412 285.07 81.1212 285.07C82.6812 285.07 84.0412 285.33 85.2012 285.85C86.3812 286.35 87.2912 287.06 87.9312 287.98C88.5912 288.9 88.9212 290 88.9212 291.28C88.9212 291.96 88.8312 292.64 88.6512 293.32C88.4912 293.98 88.1512 294.68 87.6312 295.42C87.1312 296.16 86.3912 296.99 85.4112 297.91L78.6912 304.24L77.7612 302.47H89.6112V306.43H73.7412ZM100.617 306.79C98.8965 306.79 97.3565 306.37 95.9965 305.53C94.6365 304.67 93.5665 303.43 92.7865 301.81C92.0065 300.19 91.6165 298.23 91.6165 295.93C91.6165 293.63 92.0065 291.67 92.7865 290.05C93.5665 288.43 94.6365 287.2 95.9965 286.36C97.3565 285.5 98.8965 285.07 100.617 285.07C102.357 285.07 103.897 285.5 105.237 286.36C106.597 287.2 107.667 288.43 108.447 290.05C109.227 291.67 109.617 293.63 109.617 295.93C109.617 298.23 109.227 300.19 108.447 301.81C107.667 303.43 106.597 304.67 105.237 305.53C103.897 306.37 102.357 306.79 100.617 306.79ZM100.617 302.68C101.437 302.68 102.147 302.45 102.747 301.99C103.367 301.53 103.847 300.8 104.187 299.8C104.547 298.8 104.727 297.51 104.727 295.93C104.727 294.35 104.547 293.06 104.187 292.06C103.847 291.06 103.367 290.33 102.747 289.87C102.147 289.41 101.437 289.18 100.617 289.18C99.8165 289.18 99.1065 289.41 98.4865 289.87C97.8865 290.33 97.4065 291.06 97.0465 292.06C96.7065 293.06 96.5365 294.35 96.5365 295.93C96.5365 297.51 96.7065 298.8 97.0465 299.8C97.4065 300.8 97.8865 301.53 98.4865 301.99C99.1065 302.45 99.8165 302.68 100.617 302.68ZM111.681 306.43V303.28L119.781 295.63C120.421 295.05 120.891 294.53 121.191 294.07C121.491 293.61 121.691 293.19 121.791 292.81C121.911 292.43 121.971 292.08 121.971 291.76C121.971 290.92 121.681 290.28 121.101 289.84C120.541 289.38 119.711 289.15 118.611 289.15C117.731 289.15 116.911 289.32 116.151 289.66C115.411 290 114.781 290.53 114.261 291.25L110.721 288.97C111.521 287.77 112.641 286.82 114.081 286.12C115.521 285.42 117.181 285.07 119.061 285.07C120.621 285.07 121.981 285.33 123.141 285.85C124.321 286.35 125.231 287.06 125.871 287.98C126.531 288.9 126.861 290 126.861 291.28C126.861 291.96 126.771 292.64 126.591 293.32C126.431 293.98 126.091 294.68 125.571 295.42C125.071 296.16 124.331 296.99 123.351 297.91L116.631 304.24L115.701 302.47H127.551V306.43H111.681ZM136.366 306.79C134.906 306.79 133.456 306.6 132.016 306.22C130.576 305.82 129.356 305.26 128.356 304.54L130.246 300.82C131.046 301.4 131.976 301.86 133.036 302.2C134.096 302.54 135.166 302.71 136.246 302.71C137.466 302.71 138.426 302.47 139.126 301.99C139.826 301.51 140.176 300.85 140.176 300.01C140.176 299.21 139.866 298.58 139.246 298.12C138.626 297.66 137.626 297.43 136.246 297.43H134.026V294.22L139.876 287.59L140.416 289.33H129.406V285.43H144.106V288.58L138.286 295.21L135.826 293.8H137.236C139.816 293.8 141.766 294.38 143.086 295.54C144.406 296.7 145.066 298.19 145.066 300.01C145.066 301.19 144.756 302.3 144.136 303.34C143.516 304.36 142.566 305.19 141.286 305.83C140.006 306.47 138.366 306.79 136.366 306.79Z" fill="#FBA45A"/>
<path d="M72.9229 719.688V716.537L81.0229 708.887C81.6629 708.307 82.1329 707.787 82.4329 707.327C82.7329 706.867 82.9329 706.447 83.0329 706.067C83.1529 705.687 83.2129 705.337 83.2129 705.017C83.2129 704.177 82.9229 703.537 82.3429 703.097C81.7829 702.637 80.9529 702.407 79.8529 702.407C78.9729 702.407 78.1529 702.577 77.3929 702.917C76.6529 703.257 76.0229 703.787 75.5029 704.507L71.9629 702.227C72.7629 701.027 73.8829 700.077 75.3229 699.377C76.7629 698.677 78.4229 698.327 80.3029 698.327C81.8629 698.327 83.2229 698.587 84.3829 699.107C85.5629 699.607 86.4729 700.317 87.1129 701.237C87.7729 702.157 88.1029 703.257 88.1029 704.538C88.1029 705.217 88.0129 705.897 87.8329 706.577C87.6729 707.237 87.3329 707.937 86.8129 708.677C86.3129 709.417 85.5729 710.247 84.5929 711.167L77.8729 717.497L76.9429 715.728H88.7929V719.688H72.9229ZM99.7982 720.048C98.0782 720.048 96.5382 719.627 95.1782 718.787C93.8182 717.927 92.7482 716.687 91.9682 715.067C91.1882 713.447 90.7982 711.487 90.7982 709.187C90.7982 706.887 91.1882 704.927 91.9682 703.307C92.7482 701.687 93.8182 700.457 95.1782 699.617C96.5382 698.757 98.0782 698.327 99.7982 698.327C101.538 698.327 103.078 698.757 104.418 699.617C105.778 700.457 106.848 701.687 107.628 703.307C108.408 704.927 108.798 706.887 108.798 709.187C108.798 711.487 108.408 713.447 107.628 715.067C106.848 716.687 105.778 717.927 104.418 718.787C103.078 719.627 101.538 720.048 99.7982 720.048ZM99.7982 715.938C100.618 715.938 101.328 715.707 101.928 715.247C102.548 714.787 103.028 714.057 103.368 713.057C103.728 712.057 103.908 710.767 103.908 709.187C103.908 707.607 103.728 706.317 103.368 705.317C103.028 704.317 102.548 703.587 101.928 703.127C101.328 702.667 100.618 702.437 99.7982 702.437C98.9982 702.437 98.2882 702.667 97.6682 703.127C97.0682 703.587 96.5882 704.317 96.2282 705.317C95.8882 706.317 95.7182 707.607 95.7182 709.187C95.7182 710.767 95.8882 712.057 96.2282 713.057C96.5882 714.057 97.0682 714.787 97.6682 715.247C98.2882 715.707 98.9982 715.938 99.7982 715.938ZM110.862 719.688V716.537L118.962 708.887C119.602 708.307 120.072 707.787 120.372 707.327C120.672 706.867 120.872 706.447 120.972 706.067C121.092 705.687 121.152 705.337 121.152 705.017C121.152 704.177 120.862 703.537 120.282 703.097C119.722 702.637 118.892 702.407 117.792 702.407C116.912 702.407 116.092 702.577 115.332 702.917C114.592 703.257 113.962 703.787 113.442 704.507L109.902 702.227C110.702 701.027 111.822 700.077 113.262 699.377C114.702 698.677 116.362 698.327 118.242 698.327C119.802 698.327 121.162 698.587 122.322 699.107C123.502 699.607 124.412 700.317 125.052 701.237C125.712 702.157 126.042 703.257 126.042 704.538C126.042 705.217 125.952 705.897 125.772 706.577C125.612 707.237 125.272 707.937 124.752 708.677C124.252 709.417 123.512 710.247 122.532 711.167L115.812 717.497L114.882 715.728H126.732V719.688H110.862ZM128.205 715.278V712.007L138.105 698.687H143.205L133.515 712.007L131.145 711.317H147.675V715.278H128.205ZM139.515 719.688V715.278L139.665 711.317V707.387H144.255V719.688H139.515Z" fill="#6271FF"/>
<path d="M255.526 97.97C254.214 97.97 253.006 97.754 251.902 97.322C250.798 96.89 249.838 96.29 249.022 95.522C248.206 94.738 247.574 93.826 247.126 92.786C246.678 91.73 246.454 90.578 246.454 89.33C246.454 88.082 246.678 86.938 247.126 85.898C247.574 84.842 248.206 83.93 249.022 83.162C249.838 82.378 250.798 81.77 251.902 81.338C253.006 80.906 254.206 80.69 255.502 80.69C256.814 80.69 258.014 80.906 259.102 81.338C260.206 81.77 261.166 82.37 261.982 83.138C262.798 83.906 263.43 84.818 263.878 85.874C264.326 86.93 264.55 88.082 264.55 89.33C264.55 90.578 264.326 91.73 263.878 92.786C263.43 93.842 262.798 94.754 261.982 95.522C261.166 96.29 260.206 96.89 259.102 97.322C258.014 97.754 256.822 97.97 255.526 97.97ZM260.998 101.402C260.406 101.402 259.83 101.33 259.27 101.186C258.726 101.058 258.182 100.834 257.638 100.514C257.11 100.21 256.558 99.802 255.982 99.29C255.406 98.794 254.774 98.178 254.086 97.442L257.398 96.578C257.846 97.17 258.27 97.642 258.67 97.994C259.086 98.362 259.486 98.626 259.87 98.786C260.254 98.946 260.654 99.026 261.07 99.026C262.174 99.026 263.134 98.578 263.95 97.682L265.39 99.41C264.27 100.738 262.806 101.402 260.998 101.402ZM255.502 95.234C256.35 95.234 257.134 95.09 257.854 94.802C258.574 94.514 259.198 94.106 259.726 93.578C260.254 93.034 260.662 92.402 260.95 91.682C261.254 90.962 261.406 90.178 261.406 89.33C261.406 88.466 261.254 87.682 260.95 86.978C260.662 86.258 260.254 85.634 259.726 85.106C259.198 84.562 258.574 84.146 257.854 83.858C257.134 83.57 256.35 83.426 255.502 83.426C254.654 83.426 253.87 83.57 253.15 83.858C252.43 84.146 251.806 84.562 251.278 85.106C250.75 85.634 250.334 86.258 250.03 86.978C249.742 87.682 249.598 88.466 249.598 89.33C249.598 90.178 249.742 90.962 250.03 91.682C250.334 92.402 250.75 93.034 251.278 93.578C251.806 94.106 252.43 94.514 253.15 94.802C253.87 95.09 254.654 95.234 255.502 95.234ZM266.207 97.73V95.642L272.879 89.306C273.439 88.778 273.855 88.314 274.127 87.914C274.399 87.514 274.575 87.146 274.655 86.81C274.751 86.458 274.799 86.13 274.799 85.826C274.799 85.058 274.535 84.466 274.007 84.05C273.479 83.618 272.703 83.402 271.679 83.402C270.863 83.402 270.119 83.546 269.447 83.834C268.791 84.122 268.223 84.562 267.743 85.154L265.559 83.474C266.215 82.594 267.095 81.914 268.199 81.434C269.319 80.938 270.567 80.69 271.943 80.69C273.159 80.69 274.215 80.89 275.111 81.29C276.023 81.674 276.719 82.226 277.199 82.946C277.695 83.666 277.943 84.522 277.943 85.514C277.943 86.058 277.871 86.602 277.727 87.146C277.583 87.674 277.311 88.234 276.911 88.826C276.511 89.418 275.927 90.082 275.159 90.818L269.423 96.266L268.775 95.09H278.591V97.73H266.207Z" fill="#E6148B"/>
<path d="M254.796 511.228C253.484 511.228 252.276 511.012 251.172 510.58C250.068 510.148 249.108 509.548 248.292 508.78C247.476 507.996 246.844 507.084 246.396 506.044C245.948 504.988 245.724 503.836 245.724 502.588C245.724 501.34 245.948 500.196 246.396 499.156C246.844 498.1 247.476 497.188 248.292 496.42C249.108 495.636 250.068 495.028 251.172 494.596C252.276 494.164 253.476 493.948 254.772 493.948C256.084 493.948 257.284 494.164 258.372 494.596C259.476 495.028 260.436 495.628 261.252 496.396C262.068 497.164 262.7 498.076 263.148 499.132C263.596 500.188 263.82 501.34 263.82 502.588C263.82 503.836 263.596 504.988 263.148 506.044C262.7 507.1 262.068 508.012 261.252 508.78C260.436 509.548 259.476 510.148 258.372 510.58C257.284 511.012 256.092 511.228 254.796 511.228ZM260.268 514.66C259.676 514.66 259.1 514.588 258.54 514.444C257.996 514.316 257.452 514.092 256.908 513.772C256.38 513.468 255.828 513.06 255.252 512.548C254.676 512.052 254.044 511.436 253.356 510.7L256.668 509.836C257.116 510.428 257.54 510.9 257.94 511.252C258.356 511.62 258.756 511.884 259.14 512.044C259.524 512.204 259.924 512.284 260.34 512.284C261.444 512.284 262.404 511.836 263.22 510.94L264.66 512.668C263.54 513.996 262.076 514.66 260.268 514.66ZM254.772 508.492C255.62 508.492 256.404 508.348 257.124 508.06C257.844 507.772 258.468 507.364 258.996 506.836C259.524 506.292 259.932 505.66 260.22 504.94C260.524 504.22 260.676 503.436 260.676 502.588C260.676 501.724 260.524 500.94 260.22 500.236C259.932 499.516 259.524 498.892 258.996 498.364C258.468 497.82 257.844 497.404 257.124 497.116C256.404 496.828 255.62 496.684 254.772 496.684C253.924 496.684 253.14 496.828 252.42 497.116C251.7 497.404 251.076 497.82 250.548 498.364C250.02 498.892 249.604 499.516 249.3 500.236C249.012 500.94 248.868 501.724 248.868 502.588C248.868 503.436 249.012 504.22 249.3 504.94C249.604 505.66 250.02 506.292 250.548 506.836C251.076 507.364 251.7 507.772 252.42 508.06C253.14 508.348 253.924 508.492 254.772 508.492ZM265.687 507.172V505.012L273.967 494.188H277.303L269.143 505.012L267.583 504.532H280.903V507.172H265.687ZM274.903 510.988V507.172L274.999 504.532V501.148H277.927V510.988H274.903Z" fill="#6AAB21"/>
<path d="M255.526 924.486C254.214 924.486 253.006 924.27 251.902 923.838C250.798 923.406 249.838 922.806 249.022 922.038C248.206 921.254 247.574 920.342 247.126 919.302C246.678 918.246 246.454 917.094 246.454 915.846C246.454 914.598 246.678 913.454 247.126 912.414C247.574 911.358 248.206 910.446 249.022 909.678C249.838 908.894 250.798 908.286 251.902 907.854C253.006 907.422 254.206 907.206 255.502 907.206C256.814 907.206 258.014 907.422 259.102 907.854C260.206 908.286 261.166 908.886 261.982 909.654C262.798 910.422 263.43 911.334 263.878 912.39C264.326 913.446 264.55 914.598 264.55 915.846C264.55 917.094 264.326 918.246 263.878 919.302C263.43 920.358 262.798 921.27 261.982 922.038C261.166 922.806 260.206 923.406 259.102 923.838C258.014 924.27 256.822 924.486 255.526 924.486ZM260.998 927.918C260.406 927.918 259.83 927.846 259.27 927.702C258.726 927.574 258.182 927.35 257.638 927.03C257.11 926.726 256.558 926.318 255.982 925.806C255.406 925.31 254.774 924.694 254.086 923.958L257.398 923.094C257.846 923.686 258.27 924.158 258.67 924.51C259.086 924.878 259.486 925.142 259.87 925.302C260.254 925.462 260.654 925.542 261.07 925.542C262.174 925.542 263.134 925.094 263.95 924.198L265.39 925.926C264.27 927.254 262.806 927.918 260.998 927.918ZM255.502 921.75C256.35 921.75 257.134 921.606 257.854 921.318C258.574 921.03 259.198 920.622 259.726 920.094C260.254 919.55 260.662 918.918 260.95 918.198C261.254 917.478 261.406 916.694 261.406 915.846C261.406 914.982 261.254 914.198 260.95 913.494C260.662 912.774 260.254 912.15 259.726 911.622C259.198 911.078 258.574 910.662 257.854 910.374C257.134 910.086 256.35 909.942 255.502 909.942C254.654 909.942 253.87 910.086 253.15 910.374C252.43 910.662 251.806 911.078 251.278 911.622C250.75 912.15 250.334 912.774 250.03 913.494C249.742 914.198 249.598 914.982 249.598 915.846C249.598 916.694 249.742 917.478 250.03 918.198C250.334 918.918 250.75 919.55 251.278 920.094C251.806 920.622 252.43 921.03 253.15 921.318C253.87 921.606 254.654 921.75 255.502 921.75ZM266.207 924.246V922.158L272.879 915.822C273.439 915.294 273.855 914.83 274.127 914.43C274.399 914.03 274.575 913.662 274.655 913.326C274.751 912.974 274.799 912.646 274.799 912.342C274.799 911.574 274.535 910.982 274.007 910.566C273.479 910.134 272.703 909.918 271.679 909.918C270.863 909.918 270.119 910.062 269.447 910.35C268.791 910.638 268.223 911.078 267.743 911.67L265.559 909.99C266.215 909.11 267.095 908.43 268.199 907.95C269.319 907.454 270.567 907.206 271.943 907.206C273.159 907.206 274.215 907.406 275.111 907.806C276.023 908.19 276.719 908.742 277.199 909.462C277.695 910.182 277.943 911.038 277.943 912.03C277.943 912.574 277.871 913.118 277.727 913.662C277.583 914.19 277.311 914.75 276.911 915.342C276.511 915.934 275.927 916.598 275.159 917.334L269.423 922.782L268.775 921.606H278.591V924.246H266.207Z" fill="#E6148B"/>
<path d="M254.597 304.67C253.285 304.67 252.077 304.454 250.973 304.022C249.869 303.59 248.909 302.99 248.093 302.222C247.277 301.438 246.645 300.526 246.197 299.486C245.749 298.43 245.525 297.278 245.525 296.03C245.525 294.782 245.749 293.638 246.197 292.598C246.645 291.542 247.277 290.63 248.093 289.862C248.909 289.078 249.869 288.47 250.973 288.038C252.077 287.606 253.277 287.39 254.573 287.39C255.885 287.39 257.085 287.606 258.173 288.038C259.277 288.47 260.237 289.07 261.053 289.838C261.869 290.606 262.501 291.518 262.949 292.574C263.397 293.63 263.621 294.782 263.621 296.03C263.621 297.278 263.397 298.43 262.949 299.486C262.501 300.542 261.869 301.454 261.053 302.222C260.237 302.99 259.277 303.59 258.173 304.022C257.085 304.454 255.893 304.67 254.597 304.67ZM260.069 308.102C259.477 308.102 258.901 308.03 258.341 307.886C257.797 307.758 257.253 307.534 256.709 307.214C256.181 306.91 255.629 306.502 255.053 305.99C254.477 305.494 253.845 304.878 253.157 304.142L256.469 303.278C256.917 303.87 257.341 304.342 257.741 304.694C258.157 305.062 258.557 305.326 258.941 305.486C259.325 305.646 259.725 305.726 260.141 305.726C261.245 305.726 262.205 305.278 263.021 304.382L264.461 306.11C263.341 307.438 261.877 308.102 260.069 308.102ZM254.573 301.934C255.421 301.934 256.205 301.79 256.925 301.502C257.645 301.214 258.269 300.806 258.797 300.278C259.325 299.734 259.733 299.102 260.021 298.382C260.325 297.662 260.477 296.878 260.477 296.03C260.477 295.166 260.325 294.382 260.021 293.678C259.733 292.958 259.325 292.334 258.797 291.806C258.269 291.262 257.645 290.846 256.925 290.558C256.205 290.27 255.421 290.126 254.573 290.126C253.725 290.126 252.941 290.27 252.221 290.558C251.501 290.846 250.877 291.262 250.349 291.806C249.821 292.334 249.405 292.958 249.101 293.678C248.813 294.382 248.669 295.166 248.669 296.03C248.669 296.878 248.813 297.662 249.101 298.382C249.405 299.102 249.821 299.734 250.349 300.278C250.877 300.806 251.501 301.214 252.221 301.502C252.941 301.79 253.725 301.934 254.573 301.934ZM270.726 304.67C269.542 304.67 268.382 304.502 267.246 304.166C266.126 303.814 265.182 303.334 264.414 302.726L265.758 300.302C266.366 300.798 267.102 301.198 267.966 301.502C268.83 301.806 269.734 301.958 270.678 301.958C271.798 301.958 272.67 301.734 273.294 301.286C273.918 300.822 274.23 300.198 274.23 299.414C274.23 298.646 273.942 298.038 273.366 297.59C272.79 297.142 271.862 296.918 270.582 296.918H269.046V294.782L273.846 289.07L274.254 290.246H265.23V287.63H276.678V289.718L271.878 295.43L270.246 294.47H271.182C273.246 294.47 274.79 294.934 275.814 295.862C276.854 296.774 277.374 297.95 277.374 299.39C277.374 300.334 277.134 301.206 276.654 302.006C276.174 302.806 275.438 303.454 274.446 303.95C273.47 304.43 272.23 304.67 270.726 304.67Z" fill="#FBA45A"/>
<path d="M258.987 717.928C257.675 717.928 256.467 717.712 255.363 717.279C254.259 716.847 253.299 716.247 252.483 715.479C251.667 714.695 251.035 713.783 250.587 712.743C250.139 711.687 249.915 710.535 249.915 709.287C249.915 708.039 250.139 706.895 250.587 705.855C251.035 704.799 251.667 703.887 252.483 703.119C253.299 702.335 254.259 701.727 255.363 701.295C256.467 700.863 257.667 700.647 258.963 700.647C260.275 700.647 261.475 700.863 262.563 701.295C263.667 701.727 264.627 702.327 265.443 703.095C266.259 703.863 266.891 704.775 267.339 705.831C267.787 706.887 268.011 708.039 268.011 709.287C268.011 710.535 267.787 711.687 267.339 712.743C266.891 713.799 266.259 714.711 265.443 715.479C264.627 716.247 263.667 716.847 262.563 717.279C261.475 717.712 260.283 717.928 258.987 717.928ZM264.459 721.36C263.867 721.36 263.291 721.288 262.731 721.144C262.187 721.016 261.643 720.792 261.099 720.472C260.571 720.168 260.019 719.76 259.443 719.248C258.867 718.752 258.235 718.136 257.547 717.399L260.859 716.535C261.307 717.127 261.731 717.599 262.131 717.952C262.547 718.32 262.947 718.584 263.331 718.744C263.715 718.904 264.115 718.984 264.531 718.984C265.635 718.984 266.595 718.536 267.411 717.639L268.851 719.368C267.731 720.696 266.267 721.36 264.459 721.36ZM258.963 715.191C259.811 715.191 260.595 715.047 261.315 714.759C262.035 714.471 262.659 714.063 263.187 713.535C263.715 712.991 264.123 712.359 264.411 711.639C264.715 710.919 264.867 710.135 264.867 709.287C264.867 708.423 264.715 707.639 264.411 706.935C264.123 706.215 263.715 705.591 263.187 705.063C262.659 704.519 262.035 704.103 261.315 703.815C260.595 703.527 259.811 703.383 258.963 703.383C258.115 703.383 257.331 703.527 256.611 703.815C255.891 704.103 255.267 704.519 254.739 705.063C254.211 705.591 253.795 706.215 253.491 706.935C253.203 707.639 253.059 708.423 253.059 709.287C253.059 710.135 253.203 710.919 253.491 711.639C253.795 712.359 254.211 712.991 254.739 713.535C255.267 714.063 255.891 714.471 256.611 714.759C257.331 715.047 258.115 715.191 258.963 715.191ZM272.572 717.688V702.087L273.94 703.503H269.02V700.887H275.692V717.688H272.572Z" fill="#6271FF"/>
<defs>
<filter id="filter0_d_6_424" x="32.9087" y="21.7241" width="153.01" height="153.01" filterUnits="userSpaceOnUse" color-interpolation-filters="sRGB">
<feFlood flood-opacity="0" result="BackgroundImageFix"/>
<feColorMatrix in="SourceAlpha" type="matrix" values="0 0 0 0 0 0 0 0 0 0 0 0 0 0 0 0 0 0 127 0" result="hardAlpha"/>
<feOffset dy="9"/>
<feGaussianBlur stdDeviation="10.5"/>
<feComposite in2="hardAlpha" operator="out"/>
<feColorMatrix type="matrix" values="0 0 0 0 0 0 0 0 0 0 0 0 0 0 0 0 0 0 0.25 0"/>
<feBlend mode="normal" in2="BackgroundImageFix" result="effect1_dropShadow_6_424"/>
<feBlend mode="normal" in="SourceGraphic" in2="effect1_dropShadow_6_424" result="shape"/>
</filter>
<filter id="filter1_d_6_424" x="32.9087" y="228.425" width="153.01" height="153.01" filterUnits="userSpaceOnUse" color-interpolation-filters="sRGB">
<feFlood flood-opacity="0" result="BackgroundImageFix"/>
<feColorMatrix in="SourceAlpha" type="matrix" values="0 0 0 0 0 0 0 0 0 0 0 0 0 0 0 0 0 0 127 0" result="hardAlpha"/>
<feOffset dy="9"/>
<feGaussianBlur stdDeviation="10.5"/>
<feComposite in2="hardAlpha" operator="out"/>
<feColorMatrix type="matrix" values="0 0 0 0 0 0 0 0 0 0 0 0 0 0 0 0 0 0 0.25 0"/>
<feBlend mode="normal" in2="BackgroundImageFix" result="effect1_dropShadow_6_424"/>
<feBlend mode="normal" in="SourceGraphic" in2="effect1_dropShadow_6_424" result="shape"/>
</filter>
<filter id="filter2_d_6_424" x="32.9087" y="435.375" width="153.01" height="153.01" filterUnits="userSpaceOnUse" color-interpolation-filters="sRGB">
<feFlood flood-opacity="0" result="BackgroundImageFix"/>
<feColorMatrix in="SourceAlpha" type="matrix" values="0 0 0 0 0 0 0 0 0 0 0 0 0 0 0 0 0 0 127 0" result="hardAlpha"/>
<feOffset dy="9"/>
<feGaussianBlur stdDeviation="10.5"/>
<feComposite in2="hardAlpha" operator="out"/>
<feColorMatrix type="matrix" values="0 0 0 0 0 0 0 0 0 0 0 0 0 0 0 0 0 0 0.25 0"/>
<feBlend mode="normal" in2="BackgroundImageFix" result="effect1_dropShadow_6_424"/>
<feBlend mode="normal" in="SourceGraphic" in2="effect1_dropShadow_6_424" result="shape"/>
</filter>
<filter id="filter3_d_6_424" x="32.9087" y="642.075" width="153.01" height="153.01" filterUnits="userSpaceOnUse" color-interpolation-filters="sRGB">
<feFlood flood-opacity="0" result="BackgroundImageFix"/>
<feColorMatrix in="SourceAlpha" type="matrix" values="0 0 0 0 0 0 0 0 0 0 0 0 0 0 0 0 0 0 127 0" result="hardAlpha"/>
<feOffset dy="9"/>
<feGaussianBlur stdDeviation="10.5"/>
<feComposite in2="hardAlpha" operator="out"/>
<feColorMatrix type="matrix" values="0 0 0 0 0 0 0 0 0 0 0 0 0 0 0 0 0 0 0.25 0"/>
<feBlend mode="normal" in2="BackgroundImageFix" result="effect1_dropShadow_6_424"/>
<feBlend mode="normal" in="SourceGraphic" in2="effect1_dropShadow_6_424" result="shape"/>
</filter>
<filter id="filter4_d_6_424" x="32.9087" y="849.027" width="153.01" height="153.01" filterUnits="userSpaceOnUse" color-interpolation-filters="sRGB">
<feFlood flood-opacity="0" result="BackgroundImageFix"/>
<feColorMatrix in="SourceAlpha" type="matrix" values="0 0 0 0 0 0 0 0 0 0 0 0 0 0 0 0 0 0 127 0" result="hardAlpha"/>
<feOffset dy="9"/>
<feGaussianBlur stdDeviation="10.5"/>
<feComposite in2="hardAlpha" operator="out"/>
<feColorMatrix type="matrix" values="0 0 0 0 0 0 0 0 0 0 0 0 0 0 0 0 0 0 0.25 0"/>
<feBlend mode="normal" in2="BackgroundImageFix" result="effect1_dropShadow_6_424"/>
<feBlend mode="normal" in="SourceGraphic" in2="effect1_dropShadow_6_424" result="shape"/>
</filter>
<linearGradient id="paint0_linear_6_424" x1="70.2975" y1="50.081" x2="148.645" y2="128.428" gradientUnits="userSpaceOnUse">
<stop stop-color="#ECEFF1"/>
<stop offset="1" stop-color="white"/>
</linearGradient>
<linearGradient id="paint1_linear_6_424" x1="148.645" y1="335.218" x2="70.2975" y2="256.87" gradientUnits="userSpaceOnUse">
<stop stop-color="white"/>
<stop offset="1" stop-color="#ECEFF1"/>
</linearGradient>
<linearGradient id="paint2_linear_6_424" x1="70.2975" y1="463.659" x2="148.645" y2="542.006" gradientUnits="userSpaceOnUse">
<stop stop-color="#ECEFF1"/>
<stop offset="1" stop-color="white"/>
</linearGradient>
<linearGradient id="paint3_linear_6_424" x1="148.645" y1="748.794" x2="70.2975" y2="670.447" gradientUnits="userSpaceOnUse">
<stop stop-color="white"/>
<stop offset="1" stop-color="#ECEFF1"/>
</linearGradient>
<linearGradient id="paint4_linear_6_424" x1="70.2975" y1="877.236" x2="148.645" y2="955.584" gradientUnits="userSpaceOnUse">
<stop stop-color="#ECEFF1"/>
<stop offset="1" stop-color="white"/>
</linearGradient>
</defs>
</svg>
