<svg width="60" height="61" viewBox="0 0 60 61" fill="none" xmlns="http://www.w3.org/2000/svg">
<path d="M42.8479 55.4966C49.5 55.4966 54.8927 50.1039 54.8927 43.4518C54.8927 36.7996 49.5 31.407 42.8479 31.407C36.1957 31.407 30.8031 36.7996 30.8031 43.4518C30.8031 50.1039 36.1957 55.4966 42.8479 55.4966Z" fill="#FFD572"/>
<path d="M17.1523 29.801C23.8044 29.801 29.1971 24.4084 29.1971 17.7562C29.1971 11.1041 23.8044 5.71143 17.1523 5.71143C10.5001 5.71143 5.10748 11.1041 5.10748 17.7562C5.10748 24.4084 10.5001 29.801 17.1523 29.801Z" fill="#7BC2CC"/>
<path d="M42.8479 30.504C35.7087 30.504 29.9001 36.3126 29.9001 43.4518C29.9001 50.591 35.7087 56.3996 42.8479 56.3996C49.9871 56.3996 55.7957 50.591 55.7957 43.4518C55.7957 36.3126 49.9871 30.504 42.8479 30.504ZM42.8479 54.5936C36.7041 54.5936 31.7061 49.5956 31.7061 43.4518C31.7061 37.308 36.7041 32.31 42.8479 32.31C48.9917 32.31 53.9897 37.308 53.9897 43.4518C53.9897 49.5956 48.9917 54.5936 42.8479 54.5936Z" fill="black" stroke="black" stroke-width="0.2"/>
<path d="M30.1001 17.7562C30.1001 10.6171 24.2915 4.80845 17.1523 4.80845C10.0132 4.80845 4.20457 10.6171 4.20457 17.7562C4.20457 24.8954 10.0132 30.704 17.1523 30.704C24.2915 30.704 30.1001 24.8954 30.1001 17.7562ZM17.1523 28.898C11.0085 28.898 6.01054 23.9001 6.01054 17.7562C6.01054 11.6124 11.0085 6.61442 17.1523 6.61442C23.2962 6.61442 28.2942 11.6124 28.2942 17.7562C28.2942 23.9001 23.2962 28.898 17.1523 28.898Z" fill="black" stroke="black" stroke-width="0.2"/>
<path d="M14.5789 35.2574L16.2494 33.5868V40.2398C16.2494 42.5089 18.0953 44.3548 20.3643 44.3548H28.3942H28.4942V44.2548V42.6488V42.5488H28.3942H20.3643C19.0914 42.5488 18.0554 41.5128 18.0554 40.2398V33.5868L19.7259 35.2574L19.7966 35.3281L19.8673 35.2574L21.0028 34.1219L21.0735 34.0512L21.0028 33.9805L17.7908 30.7686C17.6148 30.5925 17.3835 30.504 17.1524 30.504C16.9213 30.504 16.69 30.5925 16.514 30.7686L13.302 33.9805L13.2313 34.0512L13.302 34.1219L14.4375 35.2574L14.5082 35.3281L14.5789 35.2574Z" fill="white" stroke="white" stroke-width="0.2"/>
<path d="M19.4613 14.5442V14.6442H19.5613H21.1673H21.2673V14.5442C21.2673 12.5856 19.891 10.9426 18.0554 10.5296V8.92334V8.82334H17.9554H16.3494H16.2494V8.92334V10.5296C14.4137 10.9426 13.0375 12.5856 13.0375 14.5442C13.0375 16.8133 14.8833 18.6592 17.1524 18.6592C18.4253 18.6592 19.4613 19.6952 19.4613 20.9681C19.4613 22.241 18.4253 23.2771 17.1524 23.2771C15.8795 23.2771 14.8434 22.241 14.8434 20.9681V20.8681H14.7434H13.1375H13.0375V20.9681C13.0375 22.9268 14.4137 24.5698 16.2494 24.9828V26.589V26.689H16.3494H17.9554H18.0554V26.589V24.9828C19.891 24.5698 21.2673 22.9276 21.2673 20.9681C21.2673 18.6991 19.4214 16.8532 17.1524 16.8532C15.8795 16.8532 14.8434 15.8172 14.8434 14.5442C14.8434 13.2713 15.8795 12.2353 17.1524 12.2353C18.4253 12.2353 19.4613 13.2713 19.4613 14.5442Z" fill="black" stroke="black" stroke-width="0.2"/>
<path d="M46.6983 27.2274L46.769 27.1567L46.6983 27.086L45.5629 25.9505L45.4922 25.8798L45.4215 25.9505L43.7509 27.6211V20.9681C43.7509 18.699 41.9051 16.8531 39.636 16.8531H31.6061H31.5061V16.9531V18.5591V18.6591H31.6061H39.636C40.9089 18.6591 41.945 19.6951 41.945 20.9681V27.6211L40.2744 25.9505L40.2037 25.8798L40.133 25.9505L38.9976 27.086L38.9269 27.1567L38.9976 27.2274L42.2095 30.4393C42.3856 30.6154 42.6169 30.7039 42.8479 30.7039C43.079 30.7039 43.3103 30.6154 43.4864 30.4393L46.6983 27.2274Z" fill="white" stroke="white" stroke-width="0.2"/>
<path d="M43.5509 34.6189V36.1249H42.1449V34.6189V34.5189H42.0449H40.4389H40.3389V34.6189V36.1249H37.227H37.127V36.2249V37.8308V37.9308H37.227H38.733V43.4517V48.9726H37.227H37.127V49.0726V50.6786V50.7786H37.227H40.3389V52.2846V52.3846H40.4389H42.0449H42.1449V52.2846V50.7786H43.5509V52.2846V52.3846H43.6509H45.2569H45.3569V52.2846V50.7774C47.5799 50.7241 49.3718 48.8993 49.3718 46.6637C49.3718 45.1617 48.5543 43.8612 47.3508 43.1439C48.0981 42.3998 48.5688 41.3773 48.5688 40.2398C48.5688 38.2812 47.1925 36.6382 45.3569 36.2252V34.6189V34.5189H45.2569H43.6509H43.5509V34.6189ZM40.5389 37.9308H44.4539C45.7268 37.9308 46.7628 38.9669 46.7628 40.2398C46.7628 41.5127 45.7268 42.5488 44.4539 42.5488H40.5389V37.9308ZM45.2569 48.9726H40.5389V44.3547H44.4539H45.2569C46.5298 44.3547 47.5658 45.3908 47.5658 46.6637C47.5658 47.9366 46.5298 48.9726 45.2569 48.9726Z" fill="black" stroke="black" stroke-width="0.2"/>
</svg>
