<svg width="20" height="19" viewBox="0 0 20 19" fill="none" xmlns="http://www.w3.org/2000/svg">
<path d="M18.3731 4.90498C17.782 5.14762 17.1713 5.31561 16.5211 5.39027C17.191 5.01697 17.7032 4.41969 17.9397 3.69175C17.3092 4.04639 16.6196 4.28903 15.8907 4.43835C15.2996 3.84107 14.4524 3.46777 13.5264 3.46777C11.7336 3.46777 10.2953 4.84898 10.2953 6.52883C10.2953 6.77147 10.315 6.99545 10.3741 7.21943C7.69466 7.10744 5.33044 5.87555 3.73458 4.02772C2.59187 5.96888 3.87249 7.57407 4.71968 8.11535C4.20743 8.11535 3.69518 7.96603 3.26174 7.74205C3.26174 9.25391 4.38474 10.5045 5.84269 10.7844C5.52745 10.8778 4.81819 10.9338 4.38474 10.8404C4.79848 12.0537 6.0003 12.9496 7.39914 12.9682C6.29583 13.7895 4.68027 14.4428 2.61157 14.2375C4.04981 15.1147 5.74418 15.6187 7.57645 15.6187C13.5264 15.6187 16.7575 10.9524 16.7575 6.92079C16.7575 6.79014 16.7575 6.65948 16.7378 6.52883C17.4077 6.0622 17.9594 5.52092 18.3731 4.90498V4.90498Z" fill="#A09FB0"/>
</svg>
