<svg width="60" height="61" viewBox="0 0 60 61" fill="none" xmlns="http://www.w3.org/2000/svg">
<path d="M51.1496 22.4006V50.8713C51.1496 51.9499 50.7211 52.9845 49.9583 53.7472C49.1956 54.51 48.1611 54.9385 47.0824 54.9385H9.66385C8.58515 54.9385 7.55064 54.51 6.78788 53.7472C6.02513 52.9845 5.59662 51.9499 5.59662 50.8713V22.4006H51.1496Z" fill="#7AADF9"/>
<path d="M51.1496 22.4006V50.8713C51.1496 51.9499 50.7211 52.9845 49.9583 53.7472C49.1956 54.51 48.1611 54.9385 47.0824 54.9385H38.1345C29.5049 54.9385 21.2288 51.5104 15.1267 45.4084C9.0247 39.3063 5.59662 31.0302 5.59662 22.4006H51.1496Z" fill="#92C4FF"/>
<path d="M47.8958 51.6845V30.5349H10.4773C10.0458 30.5349 9.63201 30.7063 9.32691 31.0114C9.02181 31.3165 8.8504 31.7303 8.8504 32.1618V50.0576C8.8504 50.4891 9.02181 50.9029 9.32691 51.208C9.63201 51.5131 10.0458 51.6845 10.4773 51.6845H47.8958Z" fill="#2862BE"/>
<path d="M8.8504 32.1618V36.5951C12.0493 43.1722 17.3627 48.4856 23.9398 51.6845H47.8958V30.5349H10.4773C10.0458 30.5349 9.63201 30.7063 9.32691 31.0114C9.02181 31.3165 8.8504 31.7303 8.8504 32.1618Z" fill="#3279EA"/>
<path d="M12.1042 48.4309H26.7462V51.6847H12.1042V48.4309Z" fill="#F4A93C"/>
<path d="M12.1042 45.177H26.7462V48.4308H12.1042V45.177Z" fill="#F6B940"/>
<path d="M12.1042 41.9233H26.7462V45.1771H12.1042V41.9233Z" fill="#FAD85D"/>
<path d="M51.1496 27.2811H10.4773C9.18286 27.2811 7.94144 26.7669 7.02614 25.8516C6.11083 24.9363 5.59662 23.6949 5.59662 22.4005C5.59662 21.106 6.11083 19.8646 7.02614 18.9493C7.94144 18.034 9.18286 17.5198 10.4773 17.5198H48.7093C49.3565 17.5198 49.9772 17.7769 50.4348 18.2345C50.8925 18.6922 51.1496 19.3129 51.1496 19.9601V27.2811Z" fill="#2862BE"/>
<path d="M33.6605 10.6055L29.1866 6.13159L8.4689 26.8493C9.1001 27.1342 9.78476 27.2815 10.4773 27.2812H16.9849L33.6605 10.6055Z" fill="#6BC13B"/>
<path d="M46.2689 36.2292H51.963C52.6103 36.2292 53.231 36.4864 53.6886 36.944C54.1463 37.4017 54.4034 38.0224 54.4034 38.6696V43.5503C54.4034 44.1975 54.1463 44.8182 53.6886 45.2758C53.231 45.7335 52.6103 45.9906 51.963 45.9906H46.2689C44.9745 45.9906 43.7331 45.4764 42.8178 44.5611C41.9025 43.6458 41.3882 42.4044 41.3882 41.1099C41.3882 39.8155 41.9025 38.5741 42.8178 37.6588C43.7331 36.7435 44.9745 36.2292 46.2689 36.2292Z" fill="#2458AD"/>
<path d="M46.2689 42.7367C47.1674 42.7367 47.8958 42.0083 47.8958 41.1098C47.8958 40.2113 47.1674 39.4829 46.2689 39.4829C45.3704 39.4829 44.642 40.2113 44.642 41.1098C44.642 42.0083 45.3704 42.7367 46.2689 42.7367Z" fill="#F2F2F2"/>
<path d="M16.9849 27.2813L34.8807 9.3855L47.8958 22.4006L43.0151 27.2813" fill="#7BDF45"/>
<path d="M23.4924 27.2813L34.0672 16.7065L40.5748 23.2141L36.5076 27.2813" fill="#559B2D"/>
<path d="M23.9398 51.6847H26.7462V48.4309H18.6118C20.2794 49.6838 22.0636 50.7734 23.9398 51.6847Z" fill="#F6B940"/>
<path d="M18.6118 48.4308H26.7462V45.177H14.9065C16.0579 46.3533 17.2965 47.441 18.6118 48.4308Z" fill="#FAD85D"/>
<path d="M12.1042 41.9233C12.9661 43.0681 13.9022 44.155 14.9065 45.1771H26.7462V41.9233H12.1042Z" fill="#FCE797"/>
<path d="M51.9631 35.4157V19.9602C51.9631 19.0973 51.6203 18.2696 51.0101 17.6594C50.3999 17.0492 49.5723 16.7064 48.7093 16.7064H43.3519L35.4558 8.81031C35.3033 8.65781 35.0964 8.57214 34.8807 8.57214C34.665 8.57214 34.4581 8.65781 34.3056 8.81031L33.6605 9.45537L29.7617 5.55653C29.6092 5.40403 29.4023 5.31836 29.1866 5.31836C28.9709 5.31836 28.764 5.40403 28.6115 5.55653L17.4616 16.7064H10.4773C8.96768 16.7082 7.52036 17.3086 6.45288 18.3761C5.38539 19.4436 4.78493 20.8909 4.7832 22.4006V50.8712C4.7845 52.1652 5.29912 53.4059 6.21415 54.3209C7.12917 55.2359 8.36984 55.7506 9.66388 55.7518H47.0824C48.3764 55.7506 49.6171 55.2359 50.5321 54.3209C51.4472 53.4059 51.9618 52.1652 51.9631 50.8712V46.8039C52.826 46.8039 53.6537 46.4611 54.2639 45.8509C54.8741 45.2407 55.2169 44.4131 55.2169 43.5502V38.6695C55.2169 37.8065 54.8741 36.9789 54.2639 36.3687C53.6537 35.7585 52.826 35.4157 51.9631 35.4157ZM48.7093 18.3333C49.1408 18.3333 49.5546 18.5047 49.8597 18.8098C50.1648 19.1149 50.3362 19.5287 50.3362 19.9602V26.4678H44.9788L48.471 22.9757C48.6235 22.8231 48.7091 22.6163 48.7091 22.4006C48.7091 22.1849 48.6235 21.978 48.471 21.8254L44.9788 18.3333H48.7093ZM34.8807 10.5356L46.7456 22.4006L42.6784 26.4678H38.4713L41.1499 23.7891C41.3024 23.6366 41.3881 23.4297 41.3881 23.214C41.3881 22.9983 41.3024 22.7914 41.1499 22.6389L34.6424 16.1313C34.4898 15.9788 34.283 15.8932 34.0673 15.8932C33.8516 15.8932 33.6447 15.9788 33.4922 16.1313L23.1557 26.4678H18.9486L34.8807 10.5356ZM25.4561 26.4678L34.0673 17.8566L39.4246 23.214L36.1708 26.4678H25.4561ZM29.1866 7.28184L32.5103 10.6056L16.6481 26.4678H10.4773C10.3321 26.461 10.1874 26.4463 10.0438 26.4239L29.1866 7.28184ZM10.4773 18.3333H15.8347L8.3282 25.839C7.57765 25.3735 6.99947 24.6759 6.68141 23.852C6.36336 23.0281 6.32281 22.1229 6.56592 21.2739C6.80903 20.4248 7.32252 19.6783 8.02844 19.1476C8.73436 18.6169 9.59417 18.331 10.4773 18.3333ZM50.3362 50.8712C50.3362 51.7341 49.9934 52.5617 49.3832 53.1719C48.773 53.7821 47.9454 54.125 47.0824 54.125H9.66388C8.80092 54.125 7.97331 53.7821 7.36311 53.1719C6.7529 52.5617 6.4101 51.7341 6.4101 50.8712V26.3775C6.93883 26.9211 7.57119 27.3531 8.26979 27.648C8.96838 27.943 9.71902 28.0949 10.4773 28.0947H50.3362V35.4157H48.7093V30.535C48.7093 30.3193 48.6236 30.1124 48.471 29.9598C48.3185 29.8073 48.1116 29.7216 47.8958 29.7216H10.4773C9.83011 29.7216 9.2094 29.9787 8.75175 30.4363C8.29409 30.894 8.03699 31.5147 8.03699 32.1619V50.0577C8.03699 50.7049 8.29409 51.3257 8.75175 51.7833C9.2094 52.241 9.83011 52.4981 10.4773 52.4981H47.8958C48.1116 52.4981 48.3185 52.4124 48.471 52.2598C48.6236 52.1073 48.7093 51.9004 48.7093 51.6846V46.8039H50.3362V50.8712ZM25.9328 44.3636H12.9177V42.7367H25.9328V44.3636ZM12.9177 45.9905H25.9328V47.6174H12.9177V45.9905ZM12.9177 49.2443H25.9328V50.8712H12.9177V49.2443ZM26.7462 41.1098H12.1042C11.8885 41.1098 11.6816 41.1955 11.529 41.3481C11.3765 41.5006 11.2908 41.7075 11.2908 41.9233V50.8712H10.4773C10.2616 50.8712 10.0547 50.7855 9.90213 50.6329C9.74958 50.4804 9.66388 50.2735 9.66388 50.0577V32.1619C9.66388 31.9462 9.74958 31.7393 9.90213 31.5867C10.0547 31.4342 10.2616 31.3485 10.4773 31.3485H47.0824V35.4157H46.269C44.7588 35.4157 43.3105 36.0156 42.2426 37.0835C41.1747 38.1513 40.5748 39.5996 40.5748 41.1098C40.5748 42.62 41.1747 44.0683 42.2426 45.1362C43.3105 46.204 44.7588 46.8039 46.269 46.8039H47.0824V50.8712H27.5597V41.9233C27.5597 41.7075 27.474 41.5006 27.3214 41.3481C27.1689 41.1955 26.962 41.1098 26.7462 41.1098ZM53.59 43.5502C53.59 43.9816 53.4186 44.3954 53.1135 44.7005C52.8084 45.0056 52.3946 45.177 51.9631 45.177H46.269C45.1903 45.177 44.1557 44.7485 43.393 43.9858C42.6302 43.223 42.2017 42.1885 42.2017 41.1098C42.2017 40.0311 42.6302 38.9966 43.393 38.2339C44.1557 37.4711 45.1903 37.0426 46.269 37.0426H51.9631C52.3946 37.0426 52.8084 37.214 53.1135 37.5191C53.4186 37.8242 53.59 38.238 53.59 38.6695V43.5502Z" fill="black"/>
<path d="M46.2689 38.6694C45.7863 38.6694 45.3145 38.8126 44.9131 39.0807C44.5118 39.3489 44.199 39.73 44.0143 40.1759C43.8296 40.6218 43.7813 41.1125 43.8755 41.5859C43.9696 42.0592 44.2021 42.4941 44.5433 42.8354C44.8846 43.1766 45.3195 43.4091 45.7928 43.5032C46.2662 43.5974 46.7569 43.5491 47.2028 43.3643C47.6487 43.1796 48.0298 42.8669 48.298 42.4656C48.5661 42.0642 48.7093 41.5924 48.7093 41.1098C48.7093 40.4626 48.4522 39.8418 47.9945 39.3842C47.5368 38.9265 46.9161 38.6694 46.2689 38.6694ZM46.2689 41.9232C46.108 41.9232 45.9508 41.8755 45.817 41.7861C45.6832 41.6967 45.579 41.5697 45.5174 41.4211C45.4558 41.2724 45.4397 41.1089 45.4711 40.9511C45.5025 40.7933 45.58 40.6483 45.6937 40.5346C45.8075 40.4208 45.9524 40.3433 46.1102 40.312C46.268 40.2806 46.4316 40.2967 46.5802 40.3582C46.7289 40.4198 46.8559 40.5241 46.9453 40.6578C47.0347 40.7916 47.0824 40.9489 47.0824 41.1098C47.0824 41.3255 46.9967 41.5324 46.8441 41.685C46.6916 41.8375 46.4847 41.9232 46.2689 41.9232Z" fill="black"/>
</svg>
