<svg width="112" height="112" viewBox="0 0 112 112" fill="none" xmlns="http://www.w3.org/2000/svg">
<path d="M64.9667 28.2357C64.9667 25.0987 67.499 22.5664 70.636 22.5664C73.773 22.5664 76.3052 25.0987 76.3052 28.2357C76.3052 31.3727 73.773 33.9049 70.636 33.9049C73.773 33.9049 76.3052 36.4372 76.3052 39.5742C76.3052 42.7112 73.773 45.2435 70.636 45.2435C67.499 45.2435 64.9667 42.7112 64.9667 39.5742" stroke="url(#paint0_linear_21_1364)" stroke-width="2.8" stroke-miterlimit="9.9902"/>
<path d="M71.1652 65.8794L55.9905 56.9976L40.8157 65.8794V83.6431L55.9905 92.5439L71.1652 83.6431" stroke="url(#paint1_linear_21_1364)" stroke-width="2.8" stroke-miterlimit="9.9902"/>
<path d="M55.9905 92.5441V74.7615" stroke="url(#paint2_linear_21_1364)" stroke-width="2.8" stroke-miterlimit="9.9902"/>
<path d="M40.8157 65.8794L55.9905 74.7613L71.1652 65.8794" stroke="url(#paint3_linear_21_1364)" stroke-width="2.8" stroke-miterlimit="9.9902"/>
<path d="M40.8158 65.8794L25.66 56.9976L10.4852 65.8794V83.6431L25.66 92.5439L40.8158 83.6431" stroke="url(#paint4_linear_21_1364)" stroke-width="2.8" stroke-miterlimit="9.9902"/>
<path d="M25.6598 92.5441V74.7615" stroke="url(#paint5_linear_21_1364)" stroke-width="2.8" stroke-miterlimit="9.9902"/>
<path d="M10.4852 65.8794L25.66 74.7613L40.8158 65.8794" stroke="url(#paint6_linear_21_1364)" stroke-width="2.8" stroke-miterlimit="9.9902"/>
<path d="M101.496 83.6431V65.8794L86.3211 56.9976L71.1653 65.8794V83.6431L86.3211 92.5439L101.496 83.6431Z" stroke="url(#paint7_linear_21_1364)" stroke-width="2.8" stroke-miterlimit="9.9902"/>
<path d="M86.321 92.5441V74.7615" stroke="url(#paint8_linear_21_1364)" stroke-width="2.8" stroke-miterlimit="9.9902"/>
<path d="M71.1653 65.8794L86.3211 74.7613L101.496 65.8794" stroke="url(#paint9_linear_21_1364)" stroke-width="2.8" stroke-miterlimit="9.9902"/>
<path d="M45.8423 33.886H51.5116C54.6486 33.886 57.1809 36.4183 57.1809 39.5553C57.1809 42.6923 54.6486 45.2246 51.5116 45.2246H45.8423V22.5664H51.5116C54.6486 22.5664 57.1809 25.0987 57.1809 28.2357C57.1809 31.3727 54.6486 33.9049 51.5116 33.9049" stroke="url(#paint10_linear_21_1364)" stroke-width="2.8" stroke-miterlimit="9.9902"/>
<path d="M31.6882 33.886H40.1732" stroke="url(#paint11_linear_21_1364)" stroke-width="2.8" stroke-miterlimit="9.9902"/>
<path d="M40.1732 45.2246H31.6882V22.5664H40.1732" stroke="url(#paint12_linear_21_1364)" stroke-width="2.8" stroke-miterlimit="9.9902"/>
<path d="M90.214 28.2357V39.5553C90.214 42.6923 92.7462 45.2246 95.8832 45.2246C99.0202 45.2246 101.552 42.6923 101.552 39.5553V28.2357C101.552 25.0987 99.0202 22.5664 95.8832 22.5664C92.7462 22.5664 90.214 25.0987 90.214 28.2357Z" stroke="url(#paint13_linear_21_1364)" stroke-width="2.8" stroke-miterlimit="9.9902"/>
<path d="M83.2408 42.3899V48.0592" stroke="url(#paint14_linear_21_1364)" stroke-width="2.8" stroke-miterlimit="9.9902"/>
<path d="M10.4474 19.7317V45.2245H11.619L16.8158 36.5505L22.0127 45.2245H23.1843V19.7317" stroke="url(#paint15_linear_21_1364)" stroke-width="2.8" stroke-miterlimit="9.9902"/>
<defs>
<linearGradient id="paint0_linear_21_1364" x1="64.9667" y1="22.5664" x2="83.3443" y2="31.954" gradientUnits="userSpaceOnUse">
<stop stop-color="#F7138F"/>
<stop offset="1" stop-color="#FBA45A"/>
</linearGradient>
<linearGradient id="paint1_linear_21_1364" x1="40.8157" y1="56.9976" x2="76.0408" y2="87.7234" gradientUnits="userSpaceOnUse">
<stop stop-color="#F7138F"/>
<stop offset="1" stop-color="#FBA45A"/>
</linearGradient>
<linearGradient id="paint2_linear_21_1364" x1="55.9905" y1="74.7615" x2="58.0275" y2="74.8785" gradientUnits="userSpaceOnUse">
<stop stop-color="#F7138F"/>
<stop offset="1" stop-color="#FBA45A"/>
</linearGradient>
<linearGradient id="paint3_linear_21_1364" x1="40.8157" y1="65.8794" x2="45.5194" y2="82.2998" gradientUnits="userSpaceOnUse">
<stop stop-color="#F7138F"/>
<stop offset="1" stop-color="#FBA45A"/>
</linearGradient>
<linearGradient id="paint4_linear_21_1364" x1="10.4852" y1="56.9976" x2="45.7073" y2="87.7017" gradientUnits="userSpaceOnUse">
<stop stop-color="#F7138F"/>
<stop offset="1" stop-color="#FBA45A"/>
</linearGradient>
<linearGradient id="paint5_linear_21_1364" x1="25.6598" y1="74.7615" x2="27.6968" y2="74.8785" gradientUnits="userSpaceOnUse">
<stop stop-color="#F7138F"/>
<stop offset="1" stop-color="#FBA45A"/>
</linearGradient>
<linearGradient id="paint6_linear_21_1364" x1="10.4852" y1="65.8794" x2="15.1914" y2="82.2982" gradientUnits="userSpaceOnUse">
<stop stop-color="#F7138F"/>
<stop offset="1" stop-color="#FBA45A"/>
</linearGradient>
<linearGradient id="paint7_linear_21_1364" x1="71.1653" y1="56.9976" x2="106.387" y2="87.7017" gradientUnits="userSpaceOnUse">
<stop stop-color="#F7138F"/>
<stop offset="1" stop-color="#FBA45A"/>
</linearGradient>
<linearGradient id="paint8_linear_21_1364" x1="86.321" y1="74.7615" x2="88.358" y2="74.8785" gradientUnits="userSpaceOnUse">
<stop stop-color="#F7138F"/>
<stop offset="1" stop-color="#FBA45A"/>
</linearGradient>
<linearGradient id="paint9_linear_21_1364" x1="71.1653" y1="65.8794" x2="75.8714" y2="82.2982" gradientUnits="userSpaceOnUse">
<stop stop-color="#F7138F"/>
<stop offset="1" stop-color="#FBA45A"/>
</linearGradient>
<linearGradient id="paint10_linear_21_1364" x1="45.8423" y1="22.5664" x2="64.2136" y2="31.9586" gradientUnits="userSpaceOnUse">
<stop stop-color="#F7138F"/>
<stop offset="1" stop-color="#FBA45A"/>
</linearGradient>
<linearGradient id="paint11_linear_21_1364" x1="31.6882" y1="33.886" x2="31.9159" y2="35.8602" gradientUnits="userSpaceOnUse">
<stop stop-color="#F7138F"/>
<stop offset="1" stop-color="#FBA45A"/>
</linearGradient>
<linearGradient id="paint12_linear_21_1364" x1="31.6882" y1="22.5664" x2="46.8152" y2="28.3537" gradientUnits="userSpaceOnUse">
<stop stop-color="#F7138F"/>
<stop offset="1" stop-color="#FBA45A"/>
</linearGradient>
<linearGradient id="paint13_linear_21_1364" x1="90.214" y1="22.5664" x2="108.585" y2="31.9586" gradientUnits="userSpaceOnUse">
<stop stop-color="#F7138F"/>
<stop offset="1" stop-color="#FBA45A"/>
</linearGradient>
<linearGradient id="paint14_linear_21_1364" x1="83.2408" y1="42.3899" x2="85.2202" y2="42.7466" gradientUnits="userSpaceOnUse">
<stop stop-color="#F7138F"/>
<stop offset="1" stop-color="#FBA45A"/>
</linearGradient>
<linearGradient id="paint15_linear_21_1364" x1="10.4474" y1="19.7317" x2="31.0979" y2="30.2725" gradientUnits="userSpaceOnUse">
<stop stop-color="#F7138F"/>
<stop offset="1" stop-color="#FBA45A"/>
</linearGradient>
</defs>
</svg>
